M48
;GenerationSoftware,Autodesk,EAGLE,9.3.0*%
;CreationDate,2019-04-05T20:47:36Z*%
FMAT,2
ICI,OFF
METRIC,TZ,000.000
T4C0.350
T3C0.900
T2C1.016
T1C1.200
%
G90
M71
T1
X12410Y27940
X5410Y27940
T2
X101600Y87630
X88900Y87630
X68580Y87630
X6350Y48260
X77470Y87630
X6350Y59690
X48260Y87630
X6350Y73660
X58420Y87630
T3
X27940Y16430
X17780Y6430
X17780Y16430
X95170Y67310
X90170Y44370
X90170Y34370
X41990Y59690
X51990Y59690
X85170Y67310
X55880Y40720
X55880Y50720
X100410Y52070
X110410Y52070
X21590Y73660
X29210Y73660
X153670Y52070
X153670Y44450
X121920Y48260
X121920Y55880
X55880Y68580
X63500Y68580
X101600Y41910
X109220Y41910
X67310Y59690
X74930Y59690
X132080Y11430
X139700Y11430
X129540Y88900
X137160Y88900
X103669Y24101
X104611Y16539
X153670Y67310
X153670Y59690
X102870Y27940
X110490Y27940
X55880Y7620
X55880Y15240
X87630Y11430
X80010Y11430
X25400Y39370
X33020Y39370
X24130Y59610
X24130Y49610
X27940Y6430
T4
X116281Y31090
X138074Y80620
X67208Y32004
X134417Y65380
X135636Y64160
X74219Y25908
M30