M48
;GenerationSoftware,Autodesk,EAGLE,9.3.0*%
;CreationDate,2019-04-06T17:11:34Z*%
FMAT,2
ICI,OFF
METRIC,TZ,000.000
T5C0.350
T4C0.900
T3C1.016
T2C1.200
T1C1.321
%
G90
M71
T1
X137414Y19050
X175006Y19050
X137414Y50800
X175006Y50800
T2
X-39040Y82550
X-32040Y82550
T3
X-36830Y64770
X-36830Y57150
X74930Y96520
X52070Y96520
X34290Y96520
X-2540Y96520
X63500Y96520
X22860Y96520
X-36830Y73660
X6350Y96520
T4
X72390Y76120
X72390Y66120
X90090Y57150
X3890Y85090
X13890Y85090
X5080Y76120
X5080Y66120
X26670Y38180
X26670Y48180
X80090Y57150
X30480Y7700
X30480Y17700
X-19050Y72390
X-11430Y72390
X60960Y82550
X53340Y82550
X30480Y27940
X38100Y27940
X62230Y7620
X69850Y7620
X55880Y59690
X55880Y52070
X11430Y27940
X19050Y27940
X-8890Y45720
X-8890Y38100
X-8890Y27940
X-1270Y27940
X38100Y85090
X45720Y85090
X45720Y66040
X53340Y66040
X21590Y76200
X13970Y76200
X109220Y27940
X116840Y27940
X109220Y50800
X116840Y50800
X-19050Y64770
X-11430Y64770
X57150Y27940
X64770Y27940
X36830Y55880
X36830Y48260
X82550Y46990
X90170Y46990
X8890Y38100
X16510Y38100
X-36750Y35560
X-26750Y35560
X-36750Y22860
X-26750Y22860
T5
X-10401Y37071
X18136Y52273
X26670Y55474
M30