G04 EAGLE Gerber RS-274X export*
G75*
%MOMM*%
%FSLAX34Y34*%
%LPD*%
%INSolderpaste Top*%
%IPPOS*%
%AMOC8*
5,1,8,0,0,1.08239X$1,22.5*%
G01*
%ADD10R,1.524000X0.762000*%
%ADD11R,0.348000X1.397000*%
%ADD12R,1.200000X2.500000*%
%ADD13R,1.211200X0.500800*%


D10*
X117348Y641350D03*
X117348Y628650D03*
X117348Y615950D03*
X117348Y603250D03*
X117348Y590550D03*
X117348Y577850D03*
X117348Y565150D03*
X117348Y552450D03*
X212852Y552450D03*
X212852Y565150D03*
X212852Y577850D03*
X212852Y590550D03*
X212852Y603250D03*
X212852Y615950D03*
X212852Y628650D03*
X212852Y641350D03*
D11*
X1730370Y889800D03*
X1736720Y889800D03*
X1743070Y889800D03*
X1749420Y889800D03*
X1755780Y889800D03*
X1762130Y889800D03*
X1768480Y889800D03*
X1774830Y889800D03*
X1730370Y837410D03*
X1736720Y837400D03*
X1743070Y837400D03*
X1749420Y837400D03*
X1755780Y837400D03*
X1762130Y837400D03*
X1768480Y837400D03*
X1774830Y837400D03*
D12*
X-304400Y858000D03*
X-293400Y793000D03*
X-344400Y858000D03*
X-374400Y858000D03*
D13*
X991800Y390500D03*
X991800Y381000D03*
X991800Y371500D03*
X1014800Y371500D03*
X1014800Y390500D03*
M02*
