G04 EAGLE Gerber RS-274X export*
G75*
%MOMM*%
%FSLAX34Y34*%
%LPD*%
%INTop Copper*%
%IPPOS*%
%AMOC8*
5,1,8,0,0,1.08239X$1,22.5*%
G01*
%ADD10C,1.879600*%
%ADD11C,1.651000*%
%ADD12P,3.409096X8X22.500000*%
%ADD13R,1.524000X0.762000*%
%ADD14R,0.348000X1.397000*%
%ADD15R,1.200000X2.500000*%
%ADD16R,1.211200X0.500800*%
%ADD17C,0.381000*%
%ADD18C,0.756400*%


D10*
X520700Y965200D03*
X342900Y965200D03*
D11*
X723900Y661200D03*
X723900Y761200D03*
X38900Y850900D03*
X138900Y850900D03*
X50800Y761200D03*
X50800Y661200D03*
X266700Y381800D03*
X266700Y481800D03*
X800900Y571500D03*
X900900Y571500D03*
D12*
X1374140Y190500D03*
X1750060Y190500D03*
X1374140Y508000D03*
X1750060Y508000D03*
D11*
X304800Y77000D03*
X304800Y177000D03*
D10*
X228600Y965200D03*
D13*
X117348Y641350D03*
X117348Y628650D03*
X117348Y615950D03*
X117348Y603250D03*
X117348Y590550D03*
X117348Y577850D03*
X117348Y565150D03*
X117348Y552450D03*
X212852Y552450D03*
X212852Y565150D03*
X212852Y577850D03*
X212852Y590550D03*
X212852Y603250D03*
X212852Y615950D03*
X212852Y628650D03*
X212852Y641350D03*
D14*
X1730370Y889800D03*
X1736720Y889800D03*
X1743070Y889800D03*
X1749420Y889800D03*
X1755780Y889800D03*
X1762130Y889800D03*
X1768480Y889800D03*
X1774830Y889800D03*
X1730370Y837410D03*
X1736720Y837400D03*
X1743070Y837400D03*
X1749420Y837400D03*
X1755780Y837400D03*
X1762130Y837400D03*
X1768480Y837400D03*
X1774830Y837400D03*
D15*
X-304400Y858000D03*
X-293400Y793000D03*
X-344400Y858000D03*
X-374400Y858000D03*
D10*
X-368300Y736600D03*
X63500Y965200D03*
X-25400Y965200D03*
X635000Y965200D03*
X-190500Y723900D03*
X-114300Y723900D03*
X609600Y825500D03*
X533400Y825500D03*
X304800Y279400D03*
X381000Y279400D03*
X622300Y76200D03*
X698500Y76200D03*
X558800Y596900D03*
X558800Y520700D03*
X114300Y279400D03*
X190500Y279400D03*
X-88900Y457200D03*
X-88900Y381000D03*
X-88900Y279400D03*
X-12700Y279400D03*
X381000Y850900D03*
X457200Y850900D03*
X457200Y660400D03*
X533400Y660400D03*
X215900Y762000D03*
X139700Y762000D03*
X1092200Y279400D03*
X1168400Y279400D03*
X1092200Y508000D03*
X1168400Y508000D03*
X-190500Y647700D03*
X-114300Y647700D03*
X571500Y279400D03*
X647700Y279400D03*
X368300Y558800D03*
X368300Y482600D03*
X825500Y469900D03*
X901700Y469900D03*
X88900Y381000D03*
X165100Y381000D03*
X-368300Y647700D03*
X749300Y965200D03*
X-368300Y571500D03*
D16*
X991800Y390500D03*
X991800Y381000D03*
X991800Y371500D03*
X1014800Y371500D03*
X1014800Y390500D03*
D11*
X-367500Y355600D03*
X-267500Y355600D03*
X-367500Y228600D03*
X-267500Y228600D03*
D17*
X117348Y629412D02*
X122682Y629412D01*
X130683Y637413D01*
X130683Y645414D01*
X53340Y722757D01*
X-112014Y722757D01*
X117348Y629412D02*
X117348Y628650D01*
X-112014Y722757D02*
X-114300Y723900D01*
X322707Y280035D02*
X378714Y280035D01*
X322707Y280035D02*
X309372Y293370D01*
X128016Y293370D01*
X114681Y280035D01*
X378714Y280035D02*
X381000Y279400D01*
X114681Y280035D02*
X114300Y279400D01*
X1736217Y837438D02*
X1736217Y845439D01*
X1733550Y848106D01*
X1725549Y848106D01*
X1394841Y517398D01*
X1394841Y501396D01*
X1192149Y298704D01*
X1090803Y298704D01*
X1077468Y285369D01*
X1077468Y274701D01*
X1088136Y264033D01*
X1154811Y264033D01*
X1168146Y277368D01*
X1736217Y837438D02*
X1736720Y837400D01*
X1168400Y279400D02*
X1168146Y277368D01*
X117348Y602742D02*
X56007Y602742D01*
X-88011Y458724D01*
X117348Y602742D02*
X117348Y603250D01*
X-88011Y458724D02*
X-88900Y457200D01*
X-88011Y362712D02*
X-88011Y280035D01*
X-88011Y362712D02*
X-74676Y376047D01*
X-74676Y442722D01*
X-88011Y456057D01*
X-88011Y280035D02*
X-88900Y279400D01*
X-88011Y456057D02*
X-88900Y457200D01*
X306705Y277368D02*
X306705Y178689D01*
X304800Y177000D01*
X306705Y277368D02*
X304800Y279400D01*
X1730883Y829437D02*
X1730883Y834771D01*
X1730883Y829437D02*
X1194816Y293370D01*
X1106805Y293370D01*
X1093470Y280035D01*
X1730883Y834771D02*
X1730370Y837410D01*
X1093470Y280035D02*
X1092200Y279400D01*
X117348Y565150D02*
X117348Y577850D01*
X117348Y562737D02*
X125349Y562737D01*
X130683Y557403D01*
X130683Y421386D01*
X90678Y381381D01*
X117348Y562737D02*
X117348Y565150D01*
X90678Y381381D02*
X88900Y381000D01*
X552069Y661416D02*
X722757Y661416D01*
X552069Y661416D02*
X538734Y674751D01*
X472059Y674751D01*
X470726Y673418D02*
X458724Y661416D01*
X470726Y673418D02*
X472059Y674751D01*
X722757Y661416D02*
X723900Y661200D01*
X458724Y661416D02*
X457200Y660400D01*
X458724Y685419D02*
X458724Y850773D01*
X458724Y685419D02*
X470726Y673418D01*
X458724Y850773D02*
X457200Y850900D01*
X40005Y853440D02*
X40005Y941451D01*
X61341Y962787D01*
X40005Y853440D02*
X38900Y850900D01*
X61341Y962787D02*
X63500Y965200D01*
X1762887Y837438D02*
X1768221Y837438D01*
X1768480Y837400D01*
X1762887Y837438D02*
X1762887Y845439D01*
X1730883Y877443D01*
X864108Y877443D01*
X757428Y984123D01*
X512064Y984123D01*
X381381Y853440D01*
X1762130Y837400D02*
X1762887Y837438D01*
X381381Y853440D02*
X381000Y850900D01*
X216027Y762762D02*
X216027Y952119D01*
X226695Y962787D01*
X216027Y762762D02*
X215900Y762000D01*
X226695Y962787D02*
X228600Y965200D01*
X-266700Y354711D02*
X-266700Y229362D01*
X-267500Y228600D01*
X-266700Y354711D02*
X-267500Y355600D01*
X109347Y554736D02*
X117348Y554736D01*
X109347Y554736D02*
X104013Y560070D01*
X104013Y581406D01*
X112014Y589407D01*
X117348Y589407D01*
X117348Y554736D02*
X117348Y552450D01*
X117348Y589407D02*
X122682Y589407D01*
X173355Y538734D01*
X173355Y520065D01*
X210693Y482727D01*
X266700Y482727D01*
X117348Y589407D02*
X117348Y590550D01*
X266700Y482727D02*
X266700Y481800D01*
X1744218Y826770D02*
X1744218Y834771D01*
X1749552Y826770D02*
X1754886Y826770D01*
X1749552Y826770D02*
X1744218Y826770D01*
X1754886Y826770D02*
X1754886Y834771D01*
X1744218Y834771D02*
X1743070Y837400D01*
X1754886Y834771D02*
X1755780Y837400D01*
X1749552Y826770D02*
X1749552Y509397D01*
X1750060Y508000D01*
X1752219Y506730D02*
X1752219Y192024D01*
X1750060Y190500D01*
X1752219Y506730D02*
X1750060Y508000D01*
X989457Y381381D02*
X914781Y381381D01*
X826770Y469392D01*
X989457Y381381D02*
X991800Y381000D01*
X826770Y469392D02*
X825500Y469900D01*
X725424Y677418D02*
X725424Y760095D01*
X725424Y677418D02*
X824103Y578739D01*
X824103Y472059D01*
X725424Y760095D02*
X723900Y761200D01*
X824103Y472059D02*
X825500Y469900D01*
X1016127Y450723D02*
X1016127Y392049D01*
X1086803Y521399D02*
X1088136Y522732D01*
X1086803Y521399D02*
X1016127Y450723D01*
X1088136Y522732D02*
X1154811Y522732D01*
X1168146Y509397D01*
X1016127Y392049D02*
X1014800Y390500D01*
X1168400Y508000D02*
X1168146Y509397D01*
X1749552Y837438D02*
X1749552Y845439D01*
X1741551Y853440D01*
X1720215Y853440D01*
X1376172Y509397D01*
X1749420Y837400D02*
X1749552Y837438D01*
X1376172Y509397D02*
X1374140Y508000D01*
X1373505Y506730D02*
X1170813Y506730D01*
X1168400Y508000D01*
X1373505Y506730D02*
X1374140Y508000D01*
X-365379Y354711D02*
X-365379Y229362D01*
X-367500Y228600D01*
X-365379Y354711D02*
X-367500Y355600D01*
X213360Y554736D02*
X266700Y554736D01*
X213360Y554736D02*
X212852Y552450D01*
X522732Y837438D02*
X522732Y962787D01*
X522732Y837438D02*
X533400Y826770D01*
X522732Y962787D02*
X520700Y965200D01*
X533400Y826770D02*
X533400Y825500D01*
X210693Y552069D02*
X181356Y522732D01*
X210693Y552069D02*
X212852Y552450D01*
X1085469Y522732D02*
X1085469Y648081D01*
X754761Y978789D01*
X536067Y978789D01*
X522732Y965454D01*
X1085469Y522732D02*
X1086803Y521399D01*
X522732Y965454D02*
X520700Y965200D01*
D18*
X266700Y554736D03*
X181356Y522732D03*
D17*
X1749552Y890778D02*
X1749552Y898779D01*
X1658874Y989457D01*
X368046Y989457D01*
X344043Y965454D01*
X1749420Y889800D02*
X1749552Y890778D01*
X344043Y965454D02*
X342900Y965200D01*
X117348Y642747D02*
X-109347Y642747D01*
X-114300Y647700D01*
X117348Y642747D02*
X117348Y641350D01*
X989457Y514731D02*
X989457Y392049D01*
X681419Y822770D02*
X680085Y824103D01*
X681419Y822770D02*
X989457Y514731D01*
X680085Y824103D02*
X610743Y824103D01*
X989457Y392049D02*
X991800Y390500D01*
X610743Y824103D02*
X609600Y825500D01*
X746760Y888111D02*
X746760Y962787D01*
X746760Y888111D02*
X681419Y822770D01*
X746760Y962787D02*
X749300Y965200D01*
X117348Y613410D02*
X48006Y613410D01*
X-104013Y461391D01*
X-104013Y370713D01*
X117348Y613410D02*
X117348Y615950D01*
X130683Y277368D02*
X189357Y277368D01*
X130683Y277368D02*
X117348Y264033D01*
X2667Y264033D01*
X-12700Y279400D01*
X189357Y277368D02*
X190500Y279400D01*
D18*
X-104013Y370713D03*
D17*
X53340Y762762D02*
X138684Y762762D01*
X53340Y762762D02*
X50800Y761200D01*
X138684Y762762D02*
X138684Y850773D01*
X138900Y850900D01*
X138684Y762762D02*
X139700Y762000D01*
X165354Y381381D02*
X266700Y381381D01*
X266700Y381800D01*
X165354Y381381D02*
X165100Y381000D01*
X901446Y472059D02*
X901446Y570738D01*
X900900Y571500D01*
X901446Y472059D02*
X901700Y469900D01*
X314706Y613410D02*
X213360Y613410D01*
X314706Y613410D02*
X368046Y560070D01*
X213360Y613410D02*
X212852Y615950D01*
X368046Y560070D02*
X368300Y558800D01*
X248031Y602742D02*
X213360Y602742D01*
X248031Y602742D02*
X368046Y482727D01*
X213360Y602742D02*
X212852Y603250D01*
X368046Y482727D02*
X368300Y482600D01*
X213360Y565404D02*
X213360Y576072D01*
X213360Y565404D02*
X212852Y565150D01*
X213360Y576072D02*
X212852Y577850D01*
X706755Y373380D02*
X989457Y373380D01*
X706755Y373380D02*
X560070Y520065D01*
X989457Y373380D02*
X991800Y371500D01*
X560070Y520065D02*
X558800Y520700D01*
X269367Y562737D02*
X213360Y562737D01*
X269367Y562737D02*
X362712Y469392D01*
X506730Y469392D01*
X557403Y520065D01*
X213360Y562737D02*
X212852Y565150D01*
X557403Y520065D02*
X558800Y520700D01*
X1016127Y373380D02*
X1090803Y448056D01*
X1090803Y506730D01*
X1016127Y373380D02*
X1014800Y371500D01*
X1090803Y506730D02*
X1092200Y508000D01*
X1152144Y192024D02*
X1373505Y192024D01*
X1017461Y326708D02*
X1016127Y328041D01*
X1017461Y326708D02*
X1152144Y192024D01*
X1016127Y328041D02*
X1016127Y370713D01*
X1373505Y192024D02*
X1374140Y190500D01*
X1016127Y370713D02*
X1014800Y371500D01*
X210693Y592074D02*
X205359Y592074D01*
X200025Y597408D01*
X200025Y621411D01*
X205359Y626745D01*
X210693Y626745D01*
X210693Y592074D02*
X212852Y590550D01*
X210693Y626745D02*
X212852Y628650D01*
X213360Y626745D02*
X528066Y626745D01*
X557403Y597408D01*
X213360Y626745D02*
X212852Y628650D01*
X557403Y597408D02*
X558800Y596900D01*
X693420Y325374D02*
X1016127Y325374D01*
X693420Y325374D02*
X648081Y280035D01*
X1016127Y325374D02*
X1017461Y326708D01*
X648081Y280035D02*
X647700Y279400D01*
X210693Y642747D02*
X152019Y642747D01*
X-24003Y818769D01*
X-24003Y962787D01*
X210693Y642747D02*
X212852Y641350D01*
X-24003Y962787D02*
X-25400Y965200D01*
X-293370Y792099D02*
X-293370Y770763D01*
X-176022Y653415D01*
X-176022Y642747D01*
X-244031Y574739D02*
X-245364Y573405D01*
X-244031Y574739D02*
X-176022Y642747D01*
X-245364Y573405D02*
X-368046Y573405D01*
X-293370Y792099D02*
X-293400Y793000D01*
X-368046Y573405D02*
X-368300Y571500D01*
X322707Y77343D02*
X621411Y77343D01*
X322707Y77343D02*
X141351Y258699D01*
X-88011Y258699D01*
X-242697Y413385D01*
X-242697Y573405D01*
X621411Y77343D02*
X622300Y76200D01*
X-242697Y573405D02*
X-244031Y574739D01*
X-346710Y778764D02*
X-346710Y856107D01*
X-346710Y778764D02*
X-381381Y744093D01*
X-381381Y658749D01*
X-370713Y648081D01*
X-346710Y856107D02*
X-344400Y858000D01*
X-370713Y648081D02*
X-368300Y647700D01*
X-368046Y648081D02*
X-192024Y648081D01*
X-190500Y647700D01*
X-368046Y648081D02*
X-368300Y647700D01*
X-317373Y856107D02*
X-306705Y856107D01*
X-317373Y856107D02*
X-341376Y832104D01*
X-341376Y765429D01*
X-368046Y738759D01*
X-306705Y856107D02*
X-304400Y858000D01*
X-368046Y738759D02*
X-368300Y736600D01*
M02*
