G04 EAGLE Gerber RS-274X export*
G75*
%MOMM*%
%FSLAX34Y34*%
%LPD*%
%INSilkscreen Top*%
%IPPOS*%
%AMOC8*
5,1,8,0,0,1.08239X$1,22.5*%
G01*
%ADD10C,0.203200*%
%ADD11C,0.127000*%
%ADD12C,0.152400*%
%ADD13C,0.254000*%
%ADD14C,0.025400*%


D10*
X495300Y882650D02*
X488950Y889000D01*
X476250Y889000D01*
X469900Y882650D01*
X469900Y869950D01*
X476250Y863600D01*
X488950Y863600D01*
X495300Y869950D01*
X495300Y882650D01*
D11*
X473752Y892782D02*
X470535Y892782D01*
X472144Y894390D02*
X472144Y891173D01*
X477996Y890905D02*
X476387Y895731D01*
X479604Y895731D02*
X477996Y890905D01*
D10*
X901700Y398700D02*
X908050Y398700D01*
X901700Y398700D02*
X895350Y398700D01*
X901700Y388700D02*
X908050Y388700D01*
X901700Y388700D02*
X895350Y388700D01*
X901700Y398700D02*
X901700Y428700D01*
X901700Y388700D02*
X901700Y358700D01*
D11*
X764761Y-344396D02*
X764761Y-345468D01*
X764759Y-345533D01*
X764753Y-345597D01*
X764743Y-345661D01*
X764730Y-345725D01*
X764712Y-345787D01*
X764691Y-345848D01*
X764667Y-345908D01*
X764638Y-345966D01*
X764606Y-346023D01*
X764571Y-346077D01*
X764533Y-346129D01*
X764491Y-346179D01*
X764447Y-346226D01*
X764400Y-346270D01*
X764350Y-346312D01*
X764298Y-346350D01*
X764244Y-346385D01*
X764187Y-346417D01*
X764129Y-346446D01*
X764069Y-346470D01*
X764008Y-346491D01*
X763946Y-346509D01*
X763882Y-346522D01*
X763818Y-346532D01*
X763754Y-346538D01*
X763689Y-346540D01*
X763689Y-346541D02*
X761007Y-346541D01*
X760942Y-346539D01*
X760878Y-346533D01*
X760814Y-346523D01*
X760750Y-346510D01*
X760688Y-346492D01*
X760627Y-346471D01*
X760567Y-346446D01*
X760508Y-346418D01*
X760452Y-346386D01*
X760397Y-346351D01*
X760345Y-346313D01*
X760295Y-346271D01*
X760248Y-346227D01*
X760204Y-346180D01*
X760162Y-346130D01*
X760124Y-346078D01*
X760089Y-346023D01*
X760057Y-345967D01*
X760029Y-345908D01*
X760004Y-345849D01*
X759983Y-345787D01*
X759965Y-345725D01*
X759952Y-345661D01*
X759942Y-345597D01*
X759936Y-345533D01*
X759934Y-345468D01*
X759935Y-345468D02*
X759935Y-344396D01*
X761007Y-341940D02*
X759935Y-340600D01*
X764761Y-340600D01*
X764761Y-341940D02*
X764761Y-339259D01*
D10*
X464900Y596900D02*
X464900Y603250D01*
X464900Y596900D02*
X464900Y590550D01*
X474900Y596900D02*
X474900Y603250D01*
X474900Y596900D02*
X474900Y590550D01*
X464900Y596900D02*
X434900Y596900D01*
X474900Y596900D02*
X504900Y596900D01*
D11*
X465661Y607535D02*
X464588Y607535D01*
X464523Y607537D01*
X464459Y607543D01*
X464395Y607553D01*
X464331Y607566D01*
X464269Y607584D01*
X464208Y607605D01*
X464148Y607629D01*
X464090Y607658D01*
X464033Y607690D01*
X463979Y607725D01*
X463927Y607763D01*
X463877Y607805D01*
X463830Y607849D01*
X463786Y607896D01*
X463744Y607946D01*
X463706Y607998D01*
X463671Y608052D01*
X463639Y608109D01*
X463610Y608167D01*
X463586Y608227D01*
X463565Y608288D01*
X463547Y608350D01*
X463534Y608414D01*
X463524Y608478D01*
X463518Y608542D01*
X463516Y608607D01*
X463516Y611289D01*
X463518Y611354D01*
X463524Y611418D01*
X463534Y611482D01*
X463547Y611546D01*
X463565Y611608D01*
X463586Y611669D01*
X463610Y611729D01*
X463639Y611787D01*
X463671Y611844D01*
X463706Y611898D01*
X463744Y611950D01*
X463786Y612000D01*
X463830Y612047D01*
X463877Y612091D01*
X463927Y612133D01*
X463979Y612171D01*
X464033Y612206D01*
X464090Y612238D01*
X464148Y612267D01*
X464208Y612291D01*
X464269Y612312D01*
X464331Y612330D01*
X464395Y612343D01*
X464459Y612353D01*
X464523Y612359D01*
X464588Y612361D01*
X465661Y612361D01*
X468117Y611289D02*
X469457Y612361D01*
X469457Y607535D01*
X468117Y607535D02*
X470798Y607535D01*
X475078Y612361D02*
X475146Y612359D01*
X475213Y612353D01*
X475280Y612344D01*
X475347Y612331D01*
X475412Y612314D01*
X475477Y612293D01*
X475540Y612269D01*
X475602Y612241D01*
X475662Y612210D01*
X475720Y612176D01*
X475776Y612138D01*
X475831Y612098D01*
X475882Y612054D01*
X475931Y612007D01*
X475978Y611958D01*
X476022Y611907D01*
X476062Y611852D01*
X476100Y611796D01*
X476134Y611738D01*
X476165Y611678D01*
X476193Y611616D01*
X476217Y611553D01*
X476238Y611488D01*
X476255Y611423D01*
X476268Y611356D01*
X476277Y611289D01*
X476283Y611222D01*
X476285Y611154D01*
X475078Y612361D02*
X475000Y612359D01*
X474922Y612353D01*
X474845Y612343D01*
X474768Y612330D01*
X474692Y612312D01*
X474617Y612291D01*
X474543Y612266D01*
X474471Y612237D01*
X474400Y612205D01*
X474331Y612169D01*
X474263Y612130D01*
X474198Y612087D01*
X474135Y612041D01*
X474074Y611992D01*
X474016Y611940D01*
X473961Y611885D01*
X473908Y611828D01*
X473859Y611768D01*
X473812Y611705D01*
X473769Y611641D01*
X473729Y611574D01*
X473692Y611505D01*
X473659Y611434D01*
X473629Y611362D01*
X473603Y611289D01*
X475882Y610216D02*
X475931Y610265D01*
X475978Y610317D01*
X476021Y610372D01*
X476062Y610429D01*
X476100Y610488D01*
X476134Y610549D01*
X476165Y610612D01*
X476193Y610676D01*
X476217Y610742D01*
X476237Y610808D01*
X476254Y610876D01*
X476267Y610945D01*
X476276Y611014D01*
X476282Y611084D01*
X476284Y611154D01*
X475882Y610216D02*
X473603Y607535D01*
X476284Y607535D01*
D10*
X896700Y673100D02*
X896700Y679450D01*
X896700Y673100D02*
X896700Y666750D01*
X906700Y673100D02*
X906700Y679450D01*
X906700Y673100D02*
X906700Y666750D01*
X896700Y673100D02*
X866700Y673100D01*
X906700Y673100D02*
X936700Y673100D01*
D11*
X897461Y683735D02*
X896388Y683735D01*
X896323Y683737D01*
X896259Y683743D01*
X896195Y683753D01*
X896131Y683766D01*
X896069Y683784D01*
X896008Y683805D01*
X895948Y683829D01*
X895890Y683858D01*
X895833Y683890D01*
X895779Y683925D01*
X895727Y683963D01*
X895677Y684005D01*
X895630Y684049D01*
X895586Y684096D01*
X895544Y684146D01*
X895506Y684198D01*
X895471Y684252D01*
X895439Y684309D01*
X895410Y684367D01*
X895386Y684427D01*
X895365Y684488D01*
X895347Y684550D01*
X895334Y684614D01*
X895324Y684678D01*
X895318Y684742D01*
X895316Y684807D01*
X895316Y687489D01*
X895318Y687554D01*
X895324Y687618D01*
X895334Y687682D01*
X895347Y687746D01*
X895365Y687808D01*
X895386Y687869D01*
X895410Y687929D01*
X895439Y687987D01*
X895471Y688044D01*
X895506Y688098D01*
X895544Y688150D01*
X895586Y688200D01*
X895630Y688247D01*
X895677Y688291D01*
X895727Y688333D01*
X895779Y688371D01*
X895833Y688406D01*
X895890Y688438D01*
X895948Y688467D01*
X896008Y688491D01*
X896069Y688512D01*
X896131Y688530D01*
X896195Y688543D01*
X896259Y688553D01*
X896323Y688559D01*
X896388Y688561D01*
X897461Y688561D01*
X899917Y687489D02*
X901257Y688561D01*
X901257Y683735D01*
X899917Y683735D02*
X902598Y683735D01*
X905403Y683735D02*
X906744Y683735D01*
X906815Y683737D01*
X906887Y683743D01*
X906957Y683752D01*
X907027Y683765D01*
X907097Y683782D01*
X907165Y683803D01*
X907232Y683827D01*
X907298Y683855D01*
X907362Y683886D01*
X907425Y683921D01*
X907485Y683959D01*
X907544Y684000D01*
X907600Y684044D01*
X907654Y684091D01*
X907705Y684140D01*
X907753Y684193D01*
X907799Y684248D01*
X907841Y684305D01*
X907881Y684365D01*
X907917Y684426D01*
X907950Y684490D01*
X907979Y684555D01*
X908005Y684621D01*
X908028Y684689D01*
X908047Y684758D01*
X908062Y684828D01*
X908073Y684898D01*
X908081Y684969D01*
X908085Y685040D01*
X908085Y685112D01*
X908081Y685183D01*
X908073Y685254D01*
X908062Y685324D01*
X908047Y685394D01*
X908028Y685463D01*
X908005Y685531D01*
X907979Y685597D01*
X907950Y685662D01*
X907917Y685726D01*
X907881Y685787D01*
X907841Y685847D01*
X907799Y685904D01*
X907753Y685959D01*
X907705Y686012D01*
X907654Y686061D01*
X907600Y686108D01*
X907544Y686152D01*
X907485Y686193D01*
X907425Y686231D01*
X907362Y686266D01*
X907298Y686297D01*
X907232Y686325D01*
X907165Y686349D01*
X907097Y686370D01*
X907027Y686387D01*
X906957Y686400D01*
X906887Y686409D01*
X906815Y686415D01*
X906744Y686417D01*
X907012Y688561D02*
X905403Y688561D01*
X907012Y688561D02*
X907077Y688559D01*
X907141Y688553D01*
X907205Y688543D01*
X907269Y688530D01*
X907331Y688512D01*
X907392Y688491D01*
X907452Y688467D01*
X907510Y688438D01*
X907567Y688406D01*
X907621Y688371D01*
X907673Y688333D01*
X907723Y688291D01*
X907770Y688247D01*
X907814Y688200D01*
X907856Y688150D01*
X907894Y688098D01*
X907929Y688044D01*
X907961Y687987D01*
X907990Y687929D01*
X908014Y687869D01*
X908035Y687808D01*
X908053Y687746D01*
X908066Y687682D01*
X908076Y687618D01*
X908082Y687554D01*
X908084Y687489D01*
X908082Y687424D01*
X908076Y687360D01*
X908066Y687296D01*
X908053Y687232D01*
X908035Y687170D01*
X908014Y687109D01*
X907990Y687049D01*
X907961Y686991D01*
X907929Y686934D01*
X907894Y686880D01*
X907856Y686828D01*
X907814Y686778D01*
X907770Y686731D01*
X907723Y686687D01*
X907673Y686645D01*
X907621Y686607D01*
X907567Y686572D01*
X907510Y686540D01*
X907452Y686511D01*
X907392Y686487D01*
X907331Y686466D01*
X907269Y686448D01*
X907205Y686435D01*
X907141Y686425D01*
X907077Y686419D01*
X907012Y686417D01*
X907012Y686416D02*
X905939Y686416D01*
D10*
X558800Y452200D02*
X552450Y452200D01*
X558800Y452200D02*
X565150Y452200D01*
X558800Y462200D02*
X552450Y462200D01*
X558800Y462200D02*
X565150Y462200D01*
X558800Y452200D02*
X558800Y422200D01*
X558800Y462200D02*
X558800Y492200D01*
D11*
X547304Y451739D02*
X546232Y451739D01*
X546167Y451741D01*
X546103Y451747D01*
X546039Y451757D01*
X545975Y451770D01*
X545913Y451788D01*
X545852Y451809D01*
X545792Y451833D01*
X545734Y451862D01*
X545677Y451894D01*
X545623Y451929D01*
X545571Y451967D01*
X545521Y452009D01*
X545474Y452053D01*
X545430Y452100D01*
X545388Y452150D01*
X545350Y452202D01*
X545315Y452256D01*
X545283Y452313D01*
X545254Y452371D01*
X545230Y452431D01*
X545209Y452492D01*
X545191Y452554D01*
X545178Y452618D01*
X545168Y452682D01*
X545162Y452746D01*
X545160Y452811D01*
X545159Y452811D02*
X545159Y455493D01*
X545160Y455493D02*
X545162Y455558D01*
X545168Y455622D01*
X545178Y455686D01*
X545191Y455750D01*
X545209Y455812D01*
X545230Y455873D01*
X545254Y455933D01*
X545283Y455991D01*
X545315Y456048D01*
X545350Y456102D01*
X545388Y456154D01*
X545430Y456204D01*
X545474Y456251D01*
X545521Y456295D01*
X545571Y456337D01*
X545623Y456375D01*
X545677Y456410D01*
X545734Y456442D01*
X545792Y456471D01*
X545852Y456495D01*
X545913Y456516D01*
X545975Y456534D01*
X546039Y456547D01*
X546103Y456557D01*
X546167Y456563D01*
X546232Y456565D01*
X547304Y456565D01*
X551234Y456565D02*
X551302Y456563D01*
X551369Y456557D01*
X551436Y456548D01*
X551503Y456535D01*
X551568Y456518D01*
X551633Y456497D01*
X551696Y456473D01*
X551758Y456445D01*
X551818Y456414D01*
X551876Y456380D01*
X551932Y456342D01*
X551987Y456302D01*
X552038Y456258D01*
X552087Y456211D01*
X552134Y456162D01*
X552178Y456111D01*
X552218Y456056D01*
X552256Y456000D01*
X552290Y455942D01*
X552321Y455882D01*
X552349Y455820D01*
X552373Y455757D01*
X552394Y455692D01*
X552411Y455627D01*
X552424Y455560D01*
X552433Y455493D01*
X552439Y455426D01*
X552441Y455358D01*
X551234Y456565D02*
X551156Y456563D01*
X551078Y456557D01*
X551001Y456547D01*
X550924Y456534D01*
X550848Y456516D01*
X550773Y456495D01*
X550699Y456470D01*
X550627Y456441D01*
X550556Y456409D01*
X550487Y456373D01*
X550419Y456334D01*
X550354Y456291D01*
X550291Y456245D01*
X550230Y456196D01*
X550172Y456144D01*
X550117Y456089D01*
X550064Y456032D01*
X550015Y455972D01*
X549968Y455909D01*
X549925Y455845D01*
X549885Y455778D01*
X549848Y455709D01*
X549815Y455638D01*
X549785Y455566D01*
X549759Y455493D01*
X552039Y454420D02*
X552088Y454469D01*
X552135Y454521D01*
X552178Y454576D01*
X552219Y454633D01*
X552257Y454692D01*
X552291Y454753D01*
X552322Y454816D01*
X552350Y454880D01*
X552374Y454946D01*
X552394Y455012D01*
X552411Y455080D01*
X552424Y455149D01*
X552433Y455218D01*
X552439Y455288D01*
X552441Y455358D01*
X552039Y454420D02*
X549760Y451739D01*
X552441Y451739D01*
D10*
X1049100Y520700D02*
X1049100Y527050D01*
X1049100Y520700D02*
X1049100Y514350D01*
X1059100Y520700D02*
X1059100Y527050D01*
X1059100Y520700D02*
X1059100Y514350D01*
X1049100Y520700D02*
X1019100Y520700D01*
X1059100Y520700D02*
X1089100Y520700D01*
D11*
X1052604Y531335D02*
X1051532Y531335D01*
X1051467Y531337D01*
X1051403Y531343D01*
X1051339Y531353D01*
X1051275Y531366D01*
X1051213Y531384D01*
X1051152Y531405D01*
X1051092Y531429D01*
X1051034Y531458D01*
X1050977Y531490D01*
X1050923Y531525D01*
X1050871Y531563D01*
X1050821Y531605D01*
X1050774Y531649D01*
X1050730Y531696D01*
X1050688Y531746D01*
X1050650Y531798D01*
X1050615Y531852D01*
X1050583Y531909D01*
X1050554Y531967D01*
X1050530Y532027D01*
X1050509Y532088D01*
X1050491Y532150D01*
X1050478Y532214D01*
X1050468Y532278D01*
X1050462Y532342D01*
X1050460Y532407D01*
X1050459Y532407D02*
X1050459Y535089D01*
X1050460Y535089D02*
X1050462Y535154D01*
X1050468Y535218D01*
X1050478Y535282D01*
X1050491Y535346D01*
X1050509Y535408D01*
X1050530Y535469D01*
X1050554Y535529D01*
X1050583Y535587D01*
X1050615Y535644D01*
X1050650Y535698D01*
X1050688Y535750D01*
X1050730Y535800D01*
X1050774Y535847D01*
X1050821Y535891D01*
X1050871Y535933D01*
X1050923Y535971D01*
X1050977Y536006D01*
X1051034Y536038D01*
X1051092Y536067D01*
X1051152Y536091D01*
X1051213Y536112D01*
X1051275Y536130D01*
X1051339Y536143D01*
X1051403Y536153D01*
X1051467Y536159D01*
X1051532Y536161D01*
X1052604Y536161D01*
X1055060Y531335D02*
X1056400Y531335D01*
X1056471Y531337D01*
X1056543Y531343D01*
X1056613Y531352D01*
X1056683Y531365D01*
X1056753Y531382D01*
X1056821Y531403D01*
X1056888Y531427D01*
X1056954Y531455D01*
X1057018Y531486D01*
X1057081Y531521D01*
X1057141Y531559D01*
X1057200Y531600D01*
X1057256Y531644D01*
X1057310Y531691D01*
X1057361Y531740D01*
X1057409Y531793D01*
X1057455Y531848D01*
X1057497Y531905D01*
X1057537Y531965D01*
X1057573Y532026D01*
X1057606Y532090D01*
X1057635Y532155D01*
X1057661Y532221D01*
X1057684Y532289D01*
X1057703Y532358D01*
X1057718Y532428D01*
X1057729Y532498D01*
X1057737Y532569D01*
X1057741Y532640D01*
X1057741Y532712D01*
X1057737Y532783D01*
X1057729Y532854D01*
X1057718Y532924D01*
X1057703Y532994D01*
X1057684Y533063D01*
X1057661Y533131D01*
X1057635Y533197D01*
X1057606Y533262D01*
X1057573Y533326D01*
X1057537Y533387D01*
X1057497Y533447D01*
X1057455Y533504D01*
X1057409Y533559D01*
X1057361Y533612D01*
X1057310Y533661D01*
X1057256Y533708D01*
X1057200Y533752D01*
X1057141Y533793D01*
X1057081Y533831D01*
X1057018Y533866D01*
X1056954Y533897D01*
X1056888Y533925D01*
X1056821Y533949D01*
X1056753Y533970D01*
X1056683Y533987D01*
X1056613Y534000D01*
X1056543Y534009D01*
X1056471Y534015D01*
X1056400Y534017D01*
X1056668Y536161D02*
X1055060Y536161D01*
X1056668Y536161D02*
X1056733Y536159D01*
X1056797Y536153D01*
X1056861Y536143D01*
X1056925Y536130D01*
X1056987Y536112D01*
X1057048Y536091D01*
X1057108Y536067D01*
X1057166Y536038D01*
X1057223Y536006D01*
X1057277Y535971D01*
X1057329Y535933D01*
X1057379Y535891D01*
X1057426Y535847D01*
X1057470Y535800D01*
X1057512Y535750D01*
X1057550Y535698D01*
X1057585Y535644D01*
X1057617Y535587D01*
X1057646Y535529D01*
X1057670Y535469D01*
X1057691Y535408D01*
X1057709Y535346D01*
X1057722Y535282D01*
X1057732Y535218D01*
X1057738Y535154D01*
X1057740Y535089D01*
X1057738Y535024D01*
X1057732Y534960D01*
X1057722Y534896D01*
X1057709Y534832D01*
X1057691Y534770D01*
X1057670Y534709D01*
X1057646Y534649D01*
X1057617Y534591D01*
X1057585Y534534D01*
X1057550Y534480D01*
X1057512Y534428D01*
X1057470Y534378D01*
X1057426Y534331D01*
X1057379Y534287D01*
X1057329Y534245D01*
X1057277Y534207D01*
X1057223Y534172D01*
X1057166Y534140D01*
X1057108Y534111D01*
X1057048Y534087D01*
X1056987Y534066D01*
X1056925Y534048D01*
X1056861Y534035D01*
X1056797Y534025D01*
X1056733Y534019D01*
X1056668Y534017D01*
X1056668Y534016D02*
X1055596Y534016D01*
D10*
X698500Y882650D02*
X692150Y889000D01*
X679450Y889000D01*
X673100Y882650D01*
X673100Y869950D01*
X679450Y863600D01*
X692150Y863600D01*
X698500Y869950D01*
X698500Y882650D01*
D11*
X676416Y893586D02*
X675612Y893586D01*
X676416Y893586D02*
X676416Y890905D01*
X674807Y890905D01*
X674742Y890907D01*
X674678Y890913D01*
X674614Y890923D01*
X674550Y890936D01*
X674488Y890954D01*
X674427Y890975D01*
X674367Y890999D01*
X674309Y891028D01*
X674252Y891060D01*
X674198Y891095D01*
X674146Y891133D01*
X674096Y891175D01*
X674049Y891219D01*
X674005Y891266D01*
X673963Y891316D01*
X673925Y891368D01*
X673890Y891422D01*
X673858Y891479D01*
X673829Y891537D01*
X673805Y891597D01*
X673784Y891658D01*
X673766Y891720D01*
X673753Y891784D01*
X673743Y891848D01*
X673737Y891912D01*
X673735Y891977D01*
X673735Y894659D01*
X673737Y894724D01*
X673743Y894788D01*
X673753Y894852D01*
X673766Y894916D01*
X673784Y894978D01*
X673805Y895039D01*
X673829Y895099D01*
X673858Y895157D01*
X673890Y895214D01*
X673925Y895268D01*
X673963Y895320D01*
X674005Y895370D01*
X674049Y895417D01*
X674096Y895461D01*
X674146Y895503D01*
X674198Y895541D01*
X674252Y895576D01*
X674309Y895608D01*
X674367Y895637D01*
X674427Y895661D01*
X674488Y895682D01*
X674550Y895700D01*
X674614Y895713D01*
X674678Y895723D01*
X674742Y895729D01*
X674807Y895731D01*
X676416Y895731D01*
X679587Y895731D02*
X679587Y890905D01*
X682268Y890905D02*
X679587Y895731D01*
X682268Y895731D02*
X682268Y890905D01*
X685439Y890905D02*
X685439Y895731D01*
X686780Y895731D01*
X686850Y895729D01*
X686920Y895724D01*
X686990Y895714D01*
X687059Y895702D01*
X687127Y895685D01*
X687194Y895665D01*
X687261Y895642D01*
X687325Y895615D01*
X687389Y895585D01*
X687451Y895551D01*
X687510Y895515D01*
X687568Y895475D01*
X687624Y895432D01*
X687677Y895387D01*
X687728Y895338D01*
X687777Y895287D01*
X687822Y895234D01*
X687865Y895178D01*
X687905Y895120D01*
X687941Y895061D01*
X687975Y894999D01*
X688005Y894935D01*
X688032Y894871D01*
X688055Y894804D01*
X688075Y894737D01*
X688092Y894669D01*
X688104Y894600D01*
X688114Y894530D01*
X688119Y894460D01*
X688121Y894390D01*
X688120Y894390D02*
X688120Y892246D01*
X688121Y892246D02*
X688119Y892176D01*
X688114Y892106D01*
X688104Y892036D01*
X688092Y891967D01*
X688075Y891899D01*
X688055Y891832D01*
X688032Y891765D01*
X688005Y891701D01*
X687975Y891637D01*
X687941Y891575D01*
X687905Y891516D01*
X687865Y891458D01*
X687822Y891402D01*
X687777Y891349D01*
X687728Y891298D01*
X687677Y891249D01*
X687624Y891204D01*
X687568Y891161D01*
X687510Y891121D01*
X687450Y891085D01*
X687389Y891051D01*
X687325Y891021D01*
X687261Y890994D01*
X687194Y890971D01*
X687127Y890951D01*
X687059Y890934D01*
X686990Y890922D01*
X686920Y890912D01*
X686850Y890907D01*
X686780Y890905D01*
X685439Y890905D01*
D12*
X1359920Y559310D02*
X1359920Y457450D01*
X1434080Y457450D01*
X1434080Y559310D01*
X1359920Y559310D01*
X1363472Y550164D02*
X1363474Y550310D01*
X1363480Y550455D01*
X1363490Y550601D01*
X1363504Y550746D01*
X1363522Y550890D01*
X1363543Y551034D01*
X1363569Y551178D01*
X1363599Y551320D01*
X1363632Y551462D01*
X1363670Y551603D01*
X1363711Y551743D01*
X1363756Y551881D01*
X1363805Y552019D01*
X1363857Y552155D01*
X1363914Y552289D01*
X1363973Y552422D01*
X1364037Y552553D01*
X1364104Y552682D01*
X1364175Y552810D01*
X1364249Y552935D01*
X1364326Y553059D01*
X1364407Y553180D01*
X1364491Y553299D01*
X1364578Y553416D01*
X1364668Y553530D01*
X1364762Y553642D01*
X1364858Y553751D01*
X1364958Y553858D01*
X1365060Y553961D01*
X1365165Y554062D01*
X1365273Y554160D01*
X1365384Y554255D01*
X1365497Y554347D01*
X1365612Y554436D01*
X1365730Y554522D01*
X1365850Y554604D01*
X1365973Y554683D01*
X1366097Y554759D01*
X1366224Y554831D01*
X1366352Y554900D01*
X1366482Y554965D01*
X1366614Y555027D01*
X1366748Y555085D01*
X1366883Y555139D01*
X1367020Y555190D01*
X1367158Y555237D01*
X1367297Y555280D01*
X1367437Y555319D01*
X1367579Y555355D01*
X1367721Y555386D01*
X1367864Y555414D01*
X1368008Y555438D01*
X1368152Y555458D01*
X1368297Y555474D01*
X1368442Y555486D01*
X1368587Y555494D01*
X1368733Y555498D01*
X1368879Y555498D01*
X1369025Y555494D01*
X1369170Y555486D01*
X1369315Y555474D01*
X1369460Y555458D01*
X1369604Y555438D01*
X1369748Y555414D01*
X1369891Y555386D01*
X1370033Y555355D01*
X1370175Y555319D01*
X1370315Y555280D01*
X1370454Y555237D01*
X1370592Y555190D01*
X1370729Y555139D01*
X1370864Y555085D01*
X1370998Y555027D01*
X1371130Y554965D01*
X1371260Y554900D01*
X1371388Y554831D01*
X1371515Y554759D01*
X1371639Y554683D01*
X1371762Y554604D01*
X1371882Y554522D01*
X1372000Y554436D01*
X1372115Y554347D01*
X1372228Y554255D01*
X1372339Y554160D01*
X1372447Y554062D01*
X1372552Y553961D01*
X1372654Y553858D01*
X1372754Y553751D01*
X1372850Y553642D01*
X1372944Y553530D01*
X1373034Y553416D01*
X1373121Y553299D01*
X1373205Y553180D01*
X1373286Y553059D01*
X1373363Y552935D01*
X1373437Y552810D01*
X1373508Y552682D01*
X1373575Y552553D01*
X1373639Y552422D01*
X1373698Y552289D01*
X1373755Y552155D01*
X1373807Y552019D01*
X1373856Y551881D01*
X1373901Y551743D01*
X1373942Y551603D01*
X1373980Y551462D01*
X1374013Y551320D01*
X1374043Y551178D01*
X1374069Y551034D01*
X1374090Y550890D01*
X1374108Y550746D01*
X1374122Y550601D01*
X1374132Y550455D01*
X1374138Y550310D01*
X1374140Y550164D01*
X1374138Y550018D01*
X1374132Y549873D01*
X1374122Y549727D01*
X1374108Y549582D01*
X1374090Y549438D01*
X1374069Y549294D01*
X1374043Y549150D01*
X1374013Y549008D01*
X1373980Y548866D01*
X1373942Y548725D01*
X1373901Y548585D01*
X1373856Y548447D01*
X1373807Y548309D01*
X1373755Y548173D01*
X1373698Y548039D01*
X1373639Y547906D01*
X1373575Y547775D01*
X1373508Y547646D01*
X1373437Y547518D01*
X1373363Y547393D01*
X1373286Y547269D01*
X1373205Y547148D01*
X1373121Y547029D01*
X1373034Y546912D01*
X1372944Y546798D01*
X1372850Y546686D01*
X1372754Y546577D01*
X1372654Y546470D01*
X1372552Y546367D01*
X1372447Y546266D01*
X1372339Y546168D01*
X1372228Y546073D01*
X1372115Y545981D01*
X1372000Y545892D01*
X1371882Y545806D01*
X1371762Y545724D01*
X1371639Y545645D01*
X1371515Y545569D01*
X1371388Y545497D01*
X1371260Y545428D01*
X1371130Y545363D01*
X1370998Y545301D01*
X1370864Y545243D01*
X1370729Y545189D01*
X1370592Y545138D01*
X1370454Y545091D01*
X1370315Y545048D01*
X1370175Y545009D01*
X1370033Y544973D01*
X1369891Y544942D01*
X1369748Y544914D01*
X1369604Y544890D01*
X1369460Y544870D01*
X1369315Y544854D01*
X1369170Y544842D01*
X1369025Y544834D01*
X1368879Y544830D01*
X1368733Y544830D01*
X1368587Y544834D01*
X1368442Y544842D01*
X1368297Y544854D01*
X1368152Y544870D01*
X1368008Y544890D01*
X1367864Y544914D01*
X1367721Y544942D01*
X1367579Y544973D01*
X1367437Y545009D01*
X1367297Y545048D01*
X1367158Y545091D01*
X1367020Y545138D01*
X1366883Y545189D01*
X1366748Y545243D01*
X1366614Y545301D01*
X1366482Y545363D01*
X1366352Y545428D01*
X1366224Y545497D01*
X1366097Y545569D01*
X1365973Y545645D01*
X1365850Y545724D01*
X1365730Y545806D01*
X1365612Y545892D01*
X1365497Y545981D01*
X1365384Y546073D01*
X1365273Y546168D01*
X1365165Y546266D01*
X1365060Y546367D01*
X1364958Y546470D01*
X1364858Y546577D01*
X1364762Y546686D01*
X1364668Y546798D01*
X1364578Y546912D01*
X1364491Y547029D01*
X1364407Y547148D01*
X1364326Y547269D01*
X1364249Y547393D01*
X1364175Y547518D01*
X1364104Y547646D01*
X1364037Y547775D01*
X1363973Y547906D01*
X1363914Y548039D01*
X1363857Y548173D01*
X1363805Y548309D01*
X1363756Y548447D01*
X1363711Y548585D01*
X1363670Y548725D01*
X1363632Y548866D01*
X1363599Y549008D01*
X1363569Y549150D01*
X1363543Y549294D01*
X1363522Y549438D01*
X1363504Y549582D01*
X1363490Y549727D01*
X1363480Y549873D01*
X1363474Y550018D01*
X1363472Y550164D01*
D11*
X1360805Y564515D02*
X1360805Y575945D01*
X1359535Y564515D02*
X1362075Y564515D01*
X1362075Y575945D02*
X1359535Y575945D01*
X1369277Y564515D02*
X1371817Y564515D01*
X1369277Y564515D02*
X1369177Y564517D01*
X1369078Y564523D01*
X1368978Y564533D01*
X1368880Y564546D01*
X1368781Y564564D01*
X1368684Y564585D01*
X1368588Y564610D01*
X1368492Y564639D01*
X1368398Y564672D01*
X1368305Y564708D01*
X1368214Y564748D01*
X1368124Y564792D01*
X1368036Y564839D01*
X1367950Y564889D01*
X1367866Y564943D01*
X1367784Y565000D01*
X1367705Y565060D01*
X1367627Y565124D01*
X1367553Y565190D01*
X1367481Y565259D01*
X1367412Y565331D01*
X1367346Y565405D01*
X1367282Y565483D01*
X1367222Y565562D01*
X1367165Y565644D01*
X1367111Y565728D01*
X1367061Y565814D01*
X1367014Y565902D01*
X1366970Y565992D01*
X1366930Y566083D01*
X1366894Y566176D01*
X1366861Y566270D01*
X1366832Y566366D01*
X1366807Y566462D01*
X1366786Y566559D01*
X1366768Y566658D01*
X1366755Y566756D01*
X1366745Y566856D01*
X1366739Y566955D01*
X1366737Y567055D01*
X1366737Y573405D01*
X1366739Y573505D01*
X1366745Y573604D01*
X1366755Y573704D01*
X1366768Y573802D01*
X1366786Y573901D01*
X1366807Y573998D01*
X1366832Y574094D01*
X1366861Y574190D01*
X1366894Y574284D01*
X1366930Y574377D01*
X1366970Y574468D01*
X1367014Y574558D01*
X1367061Y574646D01*
X1367111Y574732D01*
X1367165Y574816D01*
X1367222Y574898D01*
X1367282Y574977D01*
X1367346Y575055D01*
X1367412Y575129D01*
X1367481Y575201D01*
X1367553Y575270D01*
X1367627Y575336D01*
X1367705Y575400D01*
X1367784Y575460D01*
X1367866Y575517D01*
X1367950Y575571D01*
X1368036Y575621D01*
X1368124Y575668D01*
X1368214Y575712D01*
X1368305Y575752D01*
X1368398Y575788D01*
X1368492Y575821D01*
X1368588Y575850D01*
X1368684Y575875D01*
X1368781Y575896D01*
X1368880Y575914D01*
X1368978Y575927D01*
X1369078Y575937D01*
X1369177Y575943D01*
X1369277Y575945D01*
X1371817Y575945D01*
X1376299Y573405D02*
X1379474Y575945D01*
X1379474Y564515D01*
X1376299Y564515D02*
X1382649Y564515D01*
D13*
X143100Y246400D02*
X43100Y246400D01*
X160100Y246400D02*
X160100Y312400D01*
X148100Y312400D01*
X132100Y312400D02*
X108100Y312400D01*
X92100Y312400D02*
X78100Y312400D01*
X62100Y312400D02*
X43100Y312400D01*
D11*
X72094Y286131D02*
X72094Y282377D01*
X72093Y282377D02*
X72091Y282312D01*
X72085Y282248D01*
X72075Y282184D01*
X72062Y282120D01*
X72044Y282058D01*
X72023Y281997D01*
X71999Y281937D01*
X71970Y281879D01*
X71938Y281822D01*
X71903Y281768D01*
X71865Y281716D01*
X71823Y281666D01*
X71779Y281619D01*
X71732Y281575D01*
X71682Y281533D01*
X71630Y281495D01*
X71576Y281460D01*
X71519Y281428D01*
X71461Y281399D01*
X71401Y281375D01*
X71340Y281354D01*
X71278Y281336D01*
X71214Y281323D01*
X71150Y281313D01*
X71086Y281307D01*
X71021Y281305D01*
X70485Y281305D01*
X75042Y285059D02*
X76382Y286131D01*
X76382Y281305D01*
X75042Y281305D02*
X77723Y281305D01*
D10*
X76200Y742950D02*
X69850Y749300D01*
X57150Y749300D01*
X50800Y742950D01*
X50800Y730250D01*
X57150Y723900D01*
X69850Y723900D01*
X76200Y730250D01*
X76200Y742950D01*
D11*
X51435Y751205D02*
X51435Y756031D01*
X51435Y751205D02*
X53580Y751205D01*
X55719Y751205D02*
X57328Y756031D01*
X58937Y751205D01*
X58534Y752412D02*
X56121Y752412D01*
D10*
X590550Y889000D02*
X596900Y882650D01*
X590550Y889000D02*
X577850Y889000D01*
X571500Y882650D01*
X571500Y869950D01*
X577850Y863600D01*
X590550Y863600D01*
X596900Y869950D01*
X596900Y882650D01*
D11*
X572135Y892246D02*
X572135Y894390D01*
X572137Y894461D01*
X572143Y894533D01*
X572152Y894603D01*
X572165Y894673D01*
X572182Y894743D01*
X572203Y894811D01*
X572227Y894878D01*
X572255Y894944D01*
X572286Y895008D01*
X572321Y895071D01*
X572359Y895131D01*
X572400Y895190D01*
X572444Y895246D01*
X572491Y895300D01*
X572540Y895351D01*
X572593Y895399D01*
X572648Y895445D01*
X572705Y895487D01*
X572765Y895527D01*
X572826Y895563D01*
X572890Y895596D01*
X572955Y895625D01*
X573021Y895651D01*
X573089Y895674D01*
X573158Y895693D01*
X573228Y895708D01*
X573298Y895719D01*
X573369Y895727D01*
X573440Y895731D01*
X573512Y895731D01*
X573583Y895727D01*
X573654Y895719D01*
X573724Y895708D01*
X573794Y895693D01*
X573863Y895674D01*
X573931Y895651D01*
X573997Y895625D01*
X574062Y895596D01*
X574126Y895563D01*
X574187Y895527D01*
X574247Y895487D01*
X574304Y895445D01*
X574359Y895399D01*
X574412Y895351D01*
X574461Y895300D01*
X574508Y895246D01*
X574552Y895190D01*
X574593Y895131D01*
X574631Y895071D01*
X574666Y895008D01*
X574697Y894944D01*
X574725Y894878D01*
X574749Y894811D01*
X574770Y894743D01*
X574787Y894673D01*
X574800Y894603D01*
X574809Y894533D01*
X574815Y894461D01*
X574817Y894390D01*
X574816Y894390D02*
X574816Y892246D01*
X574817Y892246D02*
X574815Y892175D01*
X574809Y892103D01*
X574800Y892033D01*
X574787Y891963D01*
X574770Y891893D01*
X574749Y891825D01*
X574725Y891758D01*
X574697Y891692D01*
X574666Y891628D01*
X574631Y891565D01*
X574593Y891505D01*
X574552Y891446D01*
X574508Y891390D01*
X574461Y891336D01*
X574412Y891285D01*
X574359Y891237D01*
X574304Y891191D01*
X574247Y891149D01*
X574187Y891109D01*
X574126Y891073D01*
X574062Y891040D01*
X573997Y891011D01*
X573931Y890985D01*
X573863Y890962D01*
X573794Y890943D01*
X573724Y890928D01*
X573654Y890917D01*
X573583Y890909D01*
X573512Y890905D01*
X573440Y890905D01*
X573369Y890909D01*
X573298Y890917D01*
X573228Y890928D01*
X573158Y890943D01*
X573089Y890962D01*
X573021Y890985D01*
X572955Y891011D01*
X572890Y891040D01*
X572826Y891073D01*
X572765Y891109D01*
X572705Y891149D01*
X572648Y891191D01*
X572593Y891237D01*
X572540Y891285D01*
X572491Y891336D01*
X572444Y891390D01*
X572400Y891446D01*
X572359Y891505D01*
X572321Y891565D01*
X572286Y891628D01*
X572255Y891692D01*
X572227Y891758D01*
X572203Y891825D01*
X572182Y891893D01*
X572165Y891963D01*
X572152Y892033D01*
X572143Y892103D01*
X572137Y892175D01*
X572135Y892246D01*
X577804Y892246D02*
X577804Y895731D01*
X577804Y892246D02*
X577806Y892175D01*
X577812Y892103D01*
X577821Y892033D01*
X577834Y891963D01*
X577851Y891893D01*
X577872Y891825D01*
X577896Y891758D01*
X577924Y891692D01*
X577955Y891628D01*
X577990Y891565D01*
X578028Y891505D01*
X578069Y891446D01*
X578113Y891390D01*
X578160Y891336D01*
X578209Y891285D01*
X578262Y891237D01*
X578317Y891191D01*
X578374Y891149D01*
X578434Y891109D01*
X578495Y891073D01*
X578559Y891040D01*
X578624Y891011D01*
X578690Y890985D01*
X578758Y890962D01*
X578827Y890943D01*
X578897Y890928D01*
X578967Y890917D01*
X579038Y890909D01*
X579109Y890905D01*
X579181Y890905D01*
X579252Y890909D01*
X579323Y890917D01*
X579393Y890928D01*
X579463Y890943D01*
X579532Y890962D01*
X579600Y890985D01*
X579666Y891011D01*
X579731Y891040D01*
X579795Y891073D01*
X579856Y891109D01*
X579916Y891149D01*
X579973Y891191D01*
X580028Y891237D01*
X580081Y891285D01*
X580130Y891336D01*
X580177Y891390D01*
X580221Y891446D01*
X580262Y891505D01*
X580300Y891565D01*
X580335Y891628D01*
X580366Y891692D01*
X580394Y891758D01*
X580418Y891825D01*
X580439Y891893D01*
X580456Y891963D01*
X580469Y892033D01*
X580478Y892103D01*
X580484Y892175D01*
X580486Y892246D01*
X580485Y892246D02*
X580485Y895731D01*
X584448Y895731D02*
X584448Y890905D01*
X583108Y895731D02*
X585789Y895731D01*
D10*
X1022350Y889000D02*
X1028700Y882650D01*
X1022350Y889000D02*
X1009650Y889000D01*
X1003300Y882650D01*
X1003300Y869950D01*
X1009650Y863600D01*
X1022350Y863600D01*
X1028700Y869950D01*
X1028700Y882650D01*
D11*
X1003935Y890905D02*
X1003935Y895731D01*
X1005276Y895731D01*
X1005347Y895729D01*
X1005419Y895723D01*
X1005489Y895714D01*
X1005559Y895701D01*
X1005629Y895684D01*
X1005697Y895663D01*
X1005764Y895639D01*
X1005830Y895611D01*
X1005894Y895580D01*
X1005957Y895545D01*
X1006017Y895507D01*
X1006076Y895466D01*
X1006132Y895422D01*
X1006186Y895375D01*
X1006237Y895326D01*
X1006285Y895273D01*
X1006331Y895218D01*
X1006373Y895161D01*
X1006413Y895101D01*
X1006449Y895040D01*
X1006482Y894976D01*
X1006511Y894911D01*
X1006537Y894845D01*
X1006560Y894777D01*
X1006579Y894708D01*
X1006594Y894638D01*
X1006605Y894568D01*
X1006613Y894497D01*
X1006617Y894426D01*
X1006617Y894354D01*
X1006613Y894283D01*
X1006605Y894212D01*
X1006594Y894142D01*
X1006579Y894072D01*
X1006560Y894003D01*
X1006537Y893935D01*
X1006511Y893869D01*
X1006482Y893804D01*
X1006449Y893740D01*
X1006413Y893679D01*
X1006373Y893619D01*
X1006331Y893562D01*
X1006285Y893507D01*
X1006237Y893454D01*
X1006186Y893405D01*
X1006132Y893358D01*
X1006076Y893314D01*
X1006017Y893273D01*
X1005957Y893235D01*
X1005894Y893200D01*
X1005830Y893169D01*
X1005764Y893141D01*
X1005697Y893117D01*
X1005629Y893096D01*
X1005559Y893079D01*
X1005489Y893066D01*
X1005419Y893057D01*
X1005347Y893051D01*
X1005276Y893049D01*
X1005276Y893050D02*
X1003935Y893050D01*
X1009294Y890905D02*
X1011439Y890905D01*
X1009294Y890905D02*
X1009294Y895731D01*
X1011439Y895731D01*
X1010903Y893586D02*
X1009294Y893586D01*
X1014822Y895731D02*
X1014822Y890905D01*
X1013481Y895731D02*
X1016162Y895731D01*
X1018699Y892782D02*
X1021917Y892782D01*
X1020308Y894390D02*
X1020308Y891173D01*
D10*
X901700Y882650D02*
X895350Y889000D01*
X882650Y889000D01*
X876300Y882650D01*
X876300Y869950D01*
X882650Y863600D01*
X895350Y863600D01*
X901700Y869950D01*
X901700Y882650D01*
D11*
X876935Y890905D02*
X876935Y895731D01*
X878276Y895731D01*
X878347Y895729D01*
X878419Y895723D01*
X878489Y895714D01*
X878559Y895701D01*
X878629Y895684D01*
X878697Y895663D01*
X878764Y895639D01*
X878830Y895611D01*
X878894Y895580D01*
X878957Y895545D01*
X879017Y895507D01*
X879076Y895466D01*
X879132Y895422D01*
X879186Y895375D01*
X879237Y895326D01*
X879285Y895273D01*
X879331Y895218D01*
X879373Y895161D01*
X879413Y895101D01*
X879449Y895040D01*
X879482Y894976D01*
X879511Y894911D01*
X879537Y894845D01*
X879560Y894777D01*
X879579Y894708D01*
X879594Y894638D01*
X879605Y894568D01*
X879613Y894497D01*
X879617Y894426D01*
X879617Y894354D01*
X879613Y894283D01*
X879605Y894212D01*
X879594Y894142D01*
X879579Y894072D01*
X879560Y894003D01*
X879537Y893935D01*
X879511Y893869D01*
X879482Y893804D01*
X879449Y893740D01*
X879413Y893679D01*
X879373Y893619D01*
X879331Y893562D01*
X879285Y893507D01*
X879237Y893454D01*
X879186Y893405D01*
X879132Y893358D01*
X879076Y893314D01*
X879017Y893273D01*
X878957Y893235D01*
X878894Y893200D01*
X878830Y893169D01*
X878764Y893141D01*
X878697Y893117D01*
X878629Y893096D01*
X878559Y893079D01*
X878489Y893066D01*
X878419Y893057D01*
X878347Y893051D01*
X878276Y893049D01*
X878276Y893050D02*
X876935Y893050D01*
X882294Y890905D02*
X884439Y890905D01*
X882294Y890905D02*
X882294Y895731D01*
X884439Y895731D01*
X883903Y893586D02*
X882294Y893586D01*
X887822Y895731D02*
X887822Y890905D01*
X886481Y895731D02*
X889162Y895731D01*
X891699Y892782D02*
X894917Y892782D01*
D10*
X279400Y744220D02*
X228600Y744220D01*
X279400Y744220D02*
X279400Y736600D01*
X279400Y728980D01*
X228600Y728980D01*
X228600Y736600D01*
X228600Y744220D01*
X279400Y736600D02*
X281940Y736600D01*
X228600Y736600D02*
X226060Y736600D01*
D11*
X262648Y747395D02*
X262648Y752221D01*
X263989Y752221D01*
X264060Y752219D01*
X264132Y752213D01*
X264202Y752204D01*
X264272Y752191D01*
X264342Y752174D01*
X264410Y752153D01*
X264477Y752129D01*
X264543Y752101D01*
X264607Y752070D01*
X264670Y752035D01*
X264730Y751997D01*
X264789Y751956D01*
X264845Y751912D01*
X264899Y751865D01*
X264950Y751816D01*
X264998Y751763D01*
X265044Y751708D01*
X265086Y751651D01*
X265126Y751591D01*
X265162Y751530D01*
X265195Y751466D01*
X265224Y751401D01*
X265250Y751335D01*
X265273Y751267D01*
X265292Y751198D01*
X265307Y751128D01*
X265318Y751058D01*
X265326Y750987D01*
X265330Y750916D01*
X265330Y750844D01*
X265326Y750773D01*
X265318Y750702D01*
X265307Y750632D01*
X265292Y750562D01*
X265273Y750493D01*
X265250Y750425D01*
X265224Y750359D01*
X265195Y750294D01*
X265162Y750230D01*
X265126Y750169D01*
X265086Y750109D01*
X265044Y750052D01*
X264998Y749997D01*
X264950Y749944D01*
X264899Y749895D01*
X264845Y749848D01*
X264789Y749804D01*
X264730Y749763D01*
X264670Y749725D01*
X264607Y749690D01*
X264543Y749659D01*
X264477Y749631D01*
X264410Y749607D01*
X264342Y749586D01*
X264272Y749569D01*
X264202Y749556D01*
X264132Y749547D01*
X264060Y749541D01*
X263989Y749539D01*
X263989Y749540D02*
X262648Y749540D01*
X264257Y749540D02*
X265329Y747395D01*
X268071Y751149D02*
X269411Y752221D01*
X269411Y747395D01*
X268071Y747395D02*
X270752Y747395D01*
D10*
X1544320Y508000D02*
X1544320Y457200D01*
X1536700Y457200D01*
X1529080Y457200D01*
X1529080Y508000D01*
X1536700Y508000D01*
X1544320Y508000D01*
X1536700Y457200D02*
X1536700Y454660D01*
X1536700Y508000D02*
X1536700Y510540D01*
D11*
X1542808Y488061D02*
X1542808Y483235D01*
X1542808Y488061D02*
X1544149Y488061D01*
X1544220Y488059D01*
X1544292Y488053D01*
X1544362Y488044D01*
X1544432Y488031D01*
X1544502Y488014D01*
X1544570Y487993D01*
X1544637Y487969D01*
X1544703Y487941D01*
X1544767Y487910D01*
X1544830Y487875D01*
X1544890Y487837D01*
X1544949Y487796D01*
X1545005Y487752D01*
X1545059Y487705D01*
X1545110Y487656D01*
X1545158Y487603D01*
X1545204Y487548D01*
X1545246Y487491D01*
X1545286Y487431D01*
X1545322Y487370D01*
X1545355Y487306D01*
X1545384Y487241D01*
X1545410Y487175D01*
X1545433Y487107D01*
X1545452Y487038D01*
X1545467Y486968D01*
X1545478Y486898D01*
X1545486Y486827D01*
X1545490Y486756D01*
X1545490Y486684D01*
X1545486Y486613D01*
X1545478Y486542D01*
X1545467Y486472D01*
X1545452Y486402D01*
X1545433Y486333D01*
X1545410Y486265D01*
X1545384Y486199D01*
X1545355Y486134D01*
X1545322Y486070D01*
X1545286Y486009D01*
X1545246Y485949D01*
X1545204Y485892D01*
X1545158Y485837D01*
X1545110Y485784D01*
X1545059Y485735D01*
X1545005Y485688D01*
X1544949Y485644D01*
X1544890Y485603D01*
X1544830Y485565D01*
X1544767Y485530D01*
X1544703Y485499D01*
X1544637Y485471D01*
X1544570Y485447D01*
X1544502Y485426D01*
X1544432Y485409D01*
X1544362Y485396D01*
X1544292Y485387D01*
X1544220Y485381D01*
X1544149Y485379D01*
X1544149Y485380D02*
X1542808Y485380D01*
X1544417Y485380D02*
X1545489Y483235D01*
X1549705Y488061D02*
X1549773Y488059D01*
X1549840Y488053D01*
X1549907Y488044D01*
X1549974Y488031D01*
X1550039Y488014D01*
X1550104Y487993D01*
X1550167Y487969D01*
X1550229Y487941D01*
X1550289Y487910D01*
X1550347Y487876D01*
X1550403Y487838D01*
X1550458Y487798D01*
X1550509Y487754D01*
X1550558Y487707D01*
X1550605Y487658D01*
X1550649Y487607D01*
X1550689Y487552D01*
X1550727Y487496D01*
X1550761Y487438D01*
X1550792Y487378D01*
X1550820Y487316D01*
X1550844Y487253D01*
X1550865Y487188D01*
X1550882Y487123D01*
X1550895Y487056D01*
X1550904Y486989D01*
X1550910Y486922D01*
X1550912Y486854D01*
X1549705Y488061D02*
X1549627Y488059D01*
X1549549Y488053D01*
X1549472Y488043D01*
X1549395Y488030D01*
X1549319Y488012D01*
X1549244Y487991D01*
X1549170Y487966D01*
X1549098Y487937D01*
X1549027Y487905D01*
X1548958Y487869D01*
X1548890Y487830D01*
X1548825Y487787D01*
X1548762Y487741D01*
X1548701Y487692D01*
X1548643Y487640D01*
X1548588Y487585D01*
X1548535Y487528D01*
X1548486Y487468D01*
X1548439Y487405D01*
X1548396Y487341D01*
X1548356Y487274D01*
X1548319Y487205D01*
X1548286Y487134D01*
X1548256Y487062D01*
X1548230Y486989D01*
X1550510Y485916D02*
X1550559Y485965D01*
X1550606Y486017D01*
X1550649Y486072D01*
X1550690Y486129D01*
X1550728Y486188D01*
X1550762Y486249D01*
X1550793Y486312D01*
X1550821Y486376D01*
X1550845Y486442D01*
X1550865Y486508D01*
X1550882Y486576D01*
X1550895Y486645D01*
X1550904Y486714D01*
X1550910Y486784D01*
X1550912Y486854D01*
X1550510Y485916D02*
X1548231Y483235D01*
X1550912Y483235D01*
D10*
X1211580Y495300D02*
X1211580Y546100D01*
X1219200Y546100D01*
X1226820Y546100D01*
X1226820Y495300D01*
X1219200Y495300D01*
X1211580Y495300D01*
X1219200Y546100D02*
X1219200Y548640D01*
X1219200Y495300D02*
X1219200Y492760D01*
D11*
X1208405Y513905D02*
X1203579Y513905D01*
X1203579Y515246D01*
X1203581Y515317D01*
X1203587Y515389D01*
X1203596Y515459D01*
X1203609Y515529D01*
X1203626Y515599D01*
X1203647Y515667D01*
X1203671Y515734D01*
X1203699Y515800D01*
X1203730Y515864D01*
X1203765Y515927D01*
X1203803Y515987D01*
X1203844Y516046D01*
X1203888Y516102D01*
X1203935Y516156D01*
X1203984Y516207D01*
X1204037Y516255D01*
X1204092Y516301D01*
X1204149Y516343D01*
X1204209Y516383D01*
X1204270Y516419D01*
X1204334Y516452D01*
X1204399Y516481D01*
X1204465Y516507D01*
X1204533Y516530D01*
X1204602Y516549D01*
X1204672Y516564D01*
X1204742Y516575D01*
X1204813Y516583D01*
X1204884Y516587D01*
X1204956Y516587D01*
X1205027Y516583D01*
X1205098Y516575D01*
X1205168Y516564D01*
X1205238Y516549D01*
X1205307Y516530D01*
X1205375Y516507D01*
X1205441Y516481D01*
X1205506Y516452D01*
X1205570Y516419D01*
X1205631Y516383D01*
X1205691Y516343D01*
X1205748Y516301D01*
X1205803Y516255D01*
X1205856Y516207D01*
X1205905Y516156D01*
X1205952Y516102D01*
X1205996Y516046D01*
X1206037Y515987D01*
X1206075Y515927D01*
X1206110Y515864D01*
X1206141Y515800D01*
X1206169Y515734D01*
X1206193Y515667D01*
X1206214Y515599D01*
X1206231Y515529D01*
X1206244Y515459D01*
X1206253Y515389D01*
X1206259Y515317D01*
X1206261Y515246D01*
X1206260Y515246D02*
X1206260Y513905D01*
X1206260Y515514D02*
X1208405Y516586D01*
X1203579Y520802D02*
X1203581Y520870D01*
X1203587Y520937D01*
X1203596Y521004D01*
X1203609Y521071D01*
X1203626Y521136D01*
X1203647Y521201D01*
X1203671Y521264D01*
X1203699Y521326D01*
X1203730Y521386D01*
X1203764Y521444D01*
X1203802Y521500D01*
X1203842Y521555D01*
X1203886Y521606D01*
X1203933Y521655D01*
X1203982Y521702D01*
X1204033Y521746D01*
X1204088Y521786D01*
X1204144Y521824D01*
X1204202Y521858D01*
X1204262Y521889D01*
X1204324Y521917D01*
X1204387Y521941D01*
X1204452Y521962D01*
X1204517Y521979D01*
X1204584Y521992D01*
X1204651Y522001D01*
X1204718Y522007D01*
X1204786Y522009D01*
X1203579Y520802D02*
X1203581Y520724D01*
X1203587Y520646D01*
X1203597Y520569D01*
X1203610Y520492D01*
X1203628Y520416D01*
X1203649Y520341D01*
X1203674Y520267D01*
X1203703Y520195D01*
X1203735Y520124D01*
X1203771Y520055D01*
X1203810Y519987D01*
X1203853Y519922D01*
X1203899Y519859D01*
X1203948Y519798D01*
X1204000Y519740D01*
X1204055Y519685D01*
X1204112Y519632D01*
X1204172Y519583D01*
X1204235Y519536D01*
X1204300Y519493D01*
X1204366Y519453D01*
X1204435Y519416D01*
X1204506Y519383D01*
X1204578Y519353D01*
X1204652Y519327D01*
X1205724Y521607D02*
X1205675Y521656D01*
X1205623Y521703D01*
X1205568Y521746D01*
X1205511Y521787D01*
X1205452Y521825D01*
X1205391Y521859D01*
X1205328Y521890D01*
X1205264Y521918D01*
X1205198Y521942D01*
X1205132Y521962D01*
X1205064Y521979D01*
X1204995Y521992D01*
X1204926Y522001D01*
X1204856Y522007D01*
X1204786Y522009D01*
X1205724Y521607D02*
X1208405Y519328D01*
X1208405Y522009D01*
X1203579Y526289D02*
X1203581Y526357D01*
X1203587Y526424D01*
X1203596Y526491D01*
X1203609Y526558D01*
X1203626Y526623D01*
X1203647Y526688D01*
X1203671Y526751D01*
X1203699Y526813D01*
X1203730Y526873D01*
X1203764Y526931D01*
X1203802Y526987D01*
X1203842Y527042D01*
X1203886Y527093D01*
X1203933Y527142D01*
X1203982Y527189D01*
X1204033Y527233D01*
X1204088Y527273D01*
X1204144Y527311D01*
X1204202Y527345D01*
X1204262Y527376D01*
X1204324Y527404D01*
X1204387Y527428D01*
X1204452Y527449D01*
X1204517Y527466D01*
X1204584Y527479D01*
X1204651Y527488D01*
X1204718Y527494D01*
X1204786Y527496D01*
X1203579Y526288D02*
X1203581Y526210D01*
X1203587Y526132D01*
X1203597Y526055D01*
X1203610Y525978D01*
X1203628Y525902D01*
X1203649Y525827D01*
X1203674Y525753D01*
X1203703Y525681D01*
X1203735Y525610D01*
X1203771Y525541D01*
X1203810Y525473D01*
X1203853Y525408D01*
X1203899Y525345D01*
X1203948Y525284D01*
X1204000Y525226D01*
X1204055Y525171D01*
X1204112Y525118D01*
X1204172Y525069D01*
X1204235Y525022D01*
X1204300Y524979D01*
X1204366Y524939D01*
X1204435Y524902D01*
X1204506Y524869D01*
X1204578Y524839D01*
X1204652Y524813D01*
X1205724Y527093D02*
X1205675Y527142D01*
X1205623Y527189D01*
X1205568Y527232D01*
X1205511Y527273D01*
X1205452Y527311D01*
X1205391Y527345D01*
X1205328Y527376D01*
X1205264Y527404D01*
X1205198Y527428D01*
X1205132Y527448D01*
X1205064Y527465D01*
X1204995Y527478D01*
X1204926Y527487D01*
X1204856Y527493D01*
X1204786Y527495D01*
X1205724Y527093D02*
X1208405Y524814D01*
X1208405Y527495D01*
D10*
X622300Y693420D02*
X571500Y693420D01*
X622300Y693420D02*
X622300Y685800D01*
X622300Y678180D01*
X571500Y678180D01*
X571500Y685800D01*
X571500Y693420D01*
X622300Y685800D02*
X624840Y685800D01*
X571500Y685800D02*
X568960Y685800D01*
D11*
X590105Y696595D02*
X590105Y701421D01*
X591446Y701421D01*
X591517Y701419D01*
X591589Y701413D01*
X591659Y701404D01*
X591729Y701391D01*
X591799Y701374D01*
X591867Y701353D01*
X591934Y701329D01*
X592000Y701301D01*
X592064Y701270D01*
X592127Y701235D01*
X592187Y701197D01*
X592246Y701156D01*
X592302Y701112D01*
X592356Y701065D01*
X592407Y701016D01*
X592455Y700963D01*
X592501Y700908D01*
X592543Y700851D01*
X592583Y700791D01*
X592619Y700730D01*
X592652Y700666D01*
X592681Y700601D01*
X592707Y700535D01*
X592730Y700467D01*
X592749Y700398D01*
X592764Y700328D01*
X592775Y700258D01*
X592783Y700187D01*
X592787Y700116D01*
X592787Y700044D01*
X592783Y699973D01*
X592775Y699902D01*
X592764Y699832D01*
X592749Y699762D01*
X592730Y699693D01*
X592707Y699625D01*
X592681Y699559D01*
X592652Y699494D01*
X592619Y699430D01*
X592583Y699369D01*
X592543Y699309D01*
X592501Y699252D01*
X592455Y699197D01*
X592407Y699144D01*
X592356Y699095D01*
X592302Y699048D01*
X592246Y699004D01*
X592187Y698963D01*
X592127Y698925D01*
X592064Y698890D01*
X592000Y698859D01*
X591934Y698831D01*
X591867Y698807D01*
X591799Y698786D01*
X591729Y698769D01*
X591659Y698756D01*
X591589Y698747D01*
X591517Y698741D01*
X591446Y698739D01*
X591446Y698740D02*
X590105Y698740D01*
X591714Y698740D02*
X592786Y696595D01*
X597002Y701421D02*
X597070Y701419D01*
X597137Y701413D01*
X597204Y701404D01*
X597271Y701391D01*
X597336Y701374D01*
X597401Y701353D01*
X597464Y701329D01*
X597526Y701301D01*
X597586Y701270D01*
X597644Y701236D01*
X597700Y701198D01*
X597755Y701158D01*
X597806Y701114D01*
X597855Y701067D01*
X597902Y701018D01*
X597946Y700967D01*
X597986Y700912D01*
X598024Y700856D01*
X598058Y700798D01*
X598089Y700738D01*
X598117Y700676D01*
X598141Y700613D01*
X598162Y700548D01*
X598179Y700483D01*
X598192Y700416D01*
X598201Y700349D01*
X598207Y700282D01*
X598209Y700214D01*
X597002Y701421D02*
X596924Y701419D01*
X596846Y701413D01*
X596769Y701403D01*
X596692Y701390D01*
X596616Y701372D01*
X596541Y701351D01*
X596467Y701326D01*
X596395Y701297D01*
X596324Y701265D01*
X596255Y701229D01*
X596187Y701190D01*
X596122Y701147D01*
X596059Y701101D01*
X595998Y701052D01*
X595940Y701000D01*
X595885Y700945D01*
X595832Y700888D01*
X595783Y700828D01*
X595736Y700765D01*
X595693Y700701D01*
X595653Y700634D01*
X595616Y700565D01*
X595583Y700494D01*
X595553Y700422D01*
X595527Y700349D01*
X597807Y699276D02*
X597856Y699325D01*
X597903Y699377D01*
X597946Y699432D01*
X597987Y699489D01*
X598025Y699548D01*
X598059Y699609D01*
X598090Y699672D01*
X598118Y699736D01*
X598142Y699802D01*
X598162Y699868D01*
X598179Y699936D01*
X598192Y700005D01*
X598201Y700074D01*
X598207Y700144D01*
X598209Y700214D01*
X597807Y699276D02*
X595528Y696595D01*
X598209Y696595D01*
X601014Y696595D02*
X602355Y696595D01*
X602426Y696597D01*
X602498Y696603D01*
X602568Y696612D01*
X602638Y696625D01*
X602708Y696642D01*
X602776Y696663D01*
X602843Y696687D01*
X602909Y696715D01*
X602973Y696746D01*
X603036Y696781D01*
X603096Y696819D01*
X603155Y696860D01*
X603211Y696904D01*
X603265Y696951D01*
X603316Y697000D01*
X603364Y697053D01*
X603410Y697108D01*
X603452Y697165D01*
X603492Y697225D01*
X603528Y697286D01*
X603561Y697350D01*
X603590Y697415D01*
X603616Y697481D01*
X603639Y697549D01*
X603658Y697618D01*
X603673Y697688D01*
X603684Y697758D01*
X603692Y697829D01*
X603696Y697900D01*
X603696Y697972D01*
X603692Y698043D01*
X603684Y698114D01*
X603673Y698184D01*
X603658Y698254D01*
X603639Y698323D01*
X603616Y698391D01*
X603590Y698457D01*
X603561Y698522D01*
X603528Y698586D01*
X603492Y698647D01*
X603452Y698707D01*
X603410Y698764D01*
X603364Y698819D01*
X603316Y698872D01*
X603265Y698921D01*
X603211Y698968D01*
X603155Y699012D01*
X603096Y699053D01*
X603036Y699091D01*
X602973Y699126D01*
X602909Y699157D01*
X602843Y699185D01*
X602776Y699209D01*
X602708Y699230D01*
X602638Y699247D01*
X602568Y699260D01*
X602498Y699269D01*
X602426Y699275D01*
X602355Y699277D01*
X602623Y701421D02*
X601014Y701421D01*
X602623Y701421D02*
X602688Y701419D01*
X602752Y701413D01*
X602816Y701403D01*
X602880Y701390D01*
X602942Y701372D01*
X603003Y701351D01*
X603063Y701327D01*
X603121Y701298D01*
X603178Y701266D01*
X603232Y701231D01*
X603284Y701193D01*
X603334Y701151D01*
X603381Y701107D01*
X603425Y701060D01*
X603467Y701010D01*
X603505Y700958D01*
X603540Y700904D01*
X603572Y700847D01*
X603601Y700789D01*
X603625Y700729D01*
X603646Y700668D01*
X603664Y700606D01*
X603677Y700542D01*
X603687Y700478D01*
X603693Y700414D01*
X603695Y700349D01*
X603693Y700284D01*
X603687Y700220D01*
X603677Y700156D01*
X603664Y700092D01*
X603646Y700030D01*
X603625Y699969D01*
X603601Y699909D01*
X603572Y699851D01*
X603540Y699794D01*
X603505Y699740D01*
X603467Y699688D01*
X603425Y699638D01*
X603381Y699591D01*
X603334Y699547D01*
X603284Y699505D01*
X603232Y699467D01*
X603178Y699432D01*
X603121Y699400D01*
X603063Y699371D01*
X603003Y699347D01*
X602942Y699326D01*
X602880Y699308D01*
X602816Y699295D01*
X602752Y699285D01*
X602688Y699279D01*
X602623Y699277D01*
X602623Y699276D02*
X601550Y699276D01*
D10*
X1028700Y426720D02*
X1079500Y426720D01*
X1079500Y419100D01*
X1079500Y411480D01*
X1028700Y411480D01*
X1028700Y419100D01*
X1028700Y426720D01*
X1079500Y419100D02*
X1082040Y419100D01*
X1028700Y419100D02*
X1026160Y419100D01*
D11*
X1047305Y429895D02*
X1047305Y434721D01*
X1048646Y434721D01*
X1048717Y434719D01*
X1048789Y434713D01*
X1048859Y434704D01*
X1048929Y434691D01*
X1048999Y434674D01*
X1049067Y434653D01*
X1049134Y434629D01*
X1049200Y434601D01*
X1049264Y434570D01*
X1049327Y434535D01*
X1049387Y434497D01*
X1049446Y434456D01*
X1049502Y434412D01*
X1049556Y434365D01*
X1049607Y434316D01*
X1049655Y434263D01*
X1049701Y434208D01*
X1049743Y434151D01*
X1049783Y434091D01*
X1049819Y434030D01*
X1049852Y433966D01*
X1049881Y433901D01*
X1049907Y433835D01*
X1049930Y433767D01*
X1049949Y433698D01*
X1049964Y433628D01*
X1049975Y433558D01*
X1049983Y433487D01*
X1049987Y433416D01*
X1049987Y433344D01*
X1049983Y433273D01*
X1049975Y433202D01*
X1049964Y433132D01*
X1049949Y433062D01*
X1049930Y432993D01*
X1049907Y432925D01*
X1049881Y432859D01*
X1049852Y432794D01*
X1049819Y432730D01*
X1049783Y432669D01*
X1049743Y432609D01*
X1049701Y432552D01*
X1049655Y432497D01*
X1049607Y432444D01*
X1049556Y432395D01*
X1049502Y432348D01*
X1049446Y432304D01*
X1049387Y432263D01*
X1049327Y432225D01*
X1049264Y432190D01*
X1049200Y432159D01*
X1049134Y432131D01*
X1049067Y432107D01*
X1048999Y432086D01*
X1048929Y432069D01*
X1048859Y432056D01*
X1048789Y432047D01*
X1048717Y432041D01*
X1048646Y432039D01*
X1048646Y432040D02*
X1047305Y432040D01*
X1048914Y432040D02*
X1049986Y429895D01*
X1054202Y434721D02*
X1054270Y434719D01*
X1054337Y434713D01*
X1054404Y434704D01*
X1054471Y434691D01*
X1054536Y434674D01*
X1054601Y434653D01*
X1054664Y434629D01*
X1054726Y434601D01*
X1054786Y434570D01*
X1054844Y434536D01*
X1054900Y434498D01*
X1054955Y434458D01*
X1055006Y434414D01*
X1055055Y434367D01*
X1055102Y434318D01*
X1055146Y434267D01*
X1055186Y434212D01*
X1055224Y434156D01*
X1055258Y434098D01*
X1055289Y434038D01*
X1055317Y433976D01*
X1055341Y433913D01*
X1055362Y433848D01*
X1055379Y433783D01*
X1055392Y433716D01*
X1055401Y433649D01*
X1055407Y433582D01*
X1055409Y433514D01*
X1054202Y434721D02*
X1054124Y434719D01*
X1054046Y434713D01*
X1053969Y434703D01*
X1053892Y434690D01*
X1053816Y434672D01*
X1053741Y434651D01*
X1053667Y434626D01*
X1053595Y434597D01*
X1053524Y434565D01*
X1053455Y434529D01*
X1053387Y434490D01*
X1053322Y434447D01*
X1053259Y434401D01*
X1053198Y434352D01*
X1053140Y434300D01*
X1053085Y434245D01*
X1053032Y434188D01*
X1052983Y434128D01*
X1052936Y434065D01*
X1052893Y434001D01*
X1052853Y433934D01*
X1052816Y433865D01*
X1052783Y433794D01*
X1052753Y433722D01*
X1052727Y433649D01*
X1055007Y432576D02*
X1055056Y432625D01*
X1055103Y432677D01*
X1055146Y432732D01*
X1055187Y432789D01*
X1055225Y432848D01*
X1055259Y432909D01*
X1055290Y432972D01*
X1055318Y433036D01*
X1055342Y433102D01*
X1055362Y433168D01*
X1055379Y433236D01*
X1055392Y433305D01*
X1055401Y433374D01*
X1055407Y433444D01*
X1055409Y433514D01*
X1055007Y432576D02*
X1052728Y429895D01*
X1055409Y429895D01*
X1058214Y429895D02*
X1059823Y429895D01*
X1059888Y429897D01*
X1059952Y429903D01*
X1060016Y429913D01*
X1060080Y429926D01*
X1060142Y429944D01*
X1060203Y429965D01*
X1060263Y429989D01*
X1060321Y430018D01*
X1060378Y430050D01*
X1060432Y430085D01*
X1060484Y430123D01*
X1060534Y430165D01*
X1060581Y430209D01*
X1060625Y430256D01*
X1060667Y430306D01*
X1060705Y430358D01*
X1060740Y430412D01*
X1060772Y430469D01*
X1060801Y430527D01*
X1060825Y430587D01*
X1060846Y430648D01*
X1060864Y430710D01*
X1060877Y430774D01*
X1060887Y430838D01*
X1060893Y430902D01*
X1060895Y430967D01*
X1060895Y431504D01*
X1060893Y431569D01*
X1060887Y431633D01*
X1060877Y431697D01*
X1060864Y431761D01*
X1060846Y431823D01*
X1060825Y431884D01*
X1060801Y431944D01*
X1060772Y432002D01*
X1060740Y432059D01*
X1060705Y432113D01*
X1060667Y432165D01*
X1060625Y432215D01*
X1060581Y432262D01*
X1060534Y432306D01*
X1060484Y432348D01*
X1060432Y432386D01*
X1060378Y432421D01*
X1060321Y432453D01*
X1060263Y432482D01*
X1060203Y432506D01*
X1060142Y432527D01*
X1060080Y432545D01*
X1060016Y432558D01*
X1059952Y432568D01*
X1059888Y432574D01*
X1059823Y432576D01*
X1058214Y432576D01*
X1058214Y434721D01*
X1060895Y434721D01*
D10*
X736600Y604520D02*
X685800Y604520D01*
X736600Y604520D02*
X736600Y596900D01*
X736600Y589280D01*
X685800Y589280D01*
X685800Y596900D01*
X685800Y604520D01*
X736600Y596900D02*
X739140Y596900D01*
X685800Y596900D02*
X683260Y596900D01*
D11*
X704405Y607695D02*
X704405Y612521D01*
X705746Y612521D01*
X705817Y612519D01*
X705889Y612513D01*
X705959Y612504D01*
X706029Y612491D01*
X706099Y612474D01*
X706167Y612453D01*
X706234Y612429D01*
X706300Y612401D01*
X706364Y612370D01*
X706427Y612335D01*
X706487Y612297D01*
X706546Y612256D01*
X706602Y612212D01*
X706656Y612165D01*
X706707Y612116D01*
X706755Y612063D01*
X706801Y612008D01*
X706843Y611951D01*
X706883Y611891D01*
X706919Y611830D01*
X706952Y611766D01*
X706981Y611701D01*
X707007Y611635D01*
X707030Y611567D01*
X707049Y611498D01*
X707064Y611428D01*
X707075Y611358D01*
X707083Y611287D01*
X707087Y611216D01*
X707087Y611144D01*
X707083Y611073D01*
X707075Y611002D01*
X707064Y610932D01*
X707049Y610862D01*
X707030Y610793D01*
X707007Y610725D01*
X706981Y610659D01*
X706952Y610594D01*
X706919Y610530D01*
X706883Y610469D01*
X706843Y610409D01*
X706801Y610352D01*
X706755Y610297D01*
X706707Y610244D01*
X706656Y610195D01*
X706602Y610148D01*
X706546Y610104D01*
X706487Y610063D01*
X706427Y610025D01*
X706364Y609990D01*
X706300Y609959D01*
X706234Y609931D01*
X706167Y609907D01*
X706099Y609886D01*
X706029Y609869D01*
X705959Y609856D01*
X705889Y609847D01*
X705817Y609841D01*
X705746Y609839D01*
X705746Y609840D02*
X704405Y609840D01*
X706014Y609840D02*
X707086Y607695D01*
X711302Y612521D02*
X711370Y612519D01*
X711437Y612513D01*
X711504Y612504D01*
X711571Y612491D01*
X711636Y612474D01*
X711701Y612453D01*
X711764Y612429D01*
X711826Y612401D01*
X711886Y612370D01*
X711944Y612336D01*
X712000Y612298D01*
X712055Y612258D01*
X712106Y612214D01*
X712155Y612167D01*
X712202Y612118D01*
X712246Y612067D01*
X712286Y612012D01*
X712324Y611956D01*
X712358Y611898D01*
X712389Y611838D01*
X712417Y611776D01*
X712441Y611713D01*
X712462Y611648D01*
X712479Y611583D01*
X712492Y611516D01*
X712501Y611449D01*
X712507Y611382D01*
X712509Y611314D01*
X711302Y612521D02*
X711224Y612519D01*
X711146Y612513D01*
X711069Y612503D01*
X710992Y612490D01*
X710916Y612472D01*
X710841Y612451D01*
X710767Y612426D01*
X710695Y612397D01*
X710624Y612365D01*
X710555Y612329D01*
X710487Y612290D01*
X710422Y612247D01*
X710359Y612201D01*
X710298Y612152D01*
X710240Y612100D01*
X710185Y612045D01*
X710132Y611988D01*
X710083Y611928D01*
X710036Y611865D01*
X709993Y611801D01*
X709953Y611734D01*
X709916Y611665D01*
X709883Y611594D01*
X709853Y611522D01*
X709827Y611449D01*
X712107Y610376D02*
X712156Y610425D01*
X712203Y610477D01*
X712246Y610532D01*
X712287Y610589D01*
X712325Y610648D01*
X712359Y610709D01*
X712390Y610772D01*
X712418Y610836D01*
X712442Y610902D01*
X712462Y610968D01*
X712479Y611036D01*
X712492Y611105D01*
X712501Y611174D01*
X712507Y611244D01*
X712509Y611314D01*
X712107Y610376D02*
X709828Y607695D01*
X712509Y607695D01*
X715314Y610376D02*
X716923Y610376D01*
X716988Y610374D01*
X717052Y610368D01*
X717116Y610358D01*
X717180Y610345D01*
X717242Y610327D01*
X717303Y610306D01*
X717363Y610282D01*
X717421Y610253D01*
X717478Y610221D01*
X717532Y610186D01*
X717584Y610148D01*
X717634Y610106D01*
X717681Y610062D01*
X717725Y610015D01*
X717767Y609965D01*
X717805Y609913D01*
X717840Y609859D01*
X717872Y609802D01*
X717901Y609744D01*
X717925Y609684D01*
X717946Y609623D01*
X717964Y609561D01*
X717977Y609497D01*
X717987Y609433D01*
X717993Y609369D01*
X717995Y609304D01*
X717995Y609036D01*
X717996Y609036D02*
X717994Y608965D01*
X717988Y608893D01*
X717979Y608823D01*
X717966Y608753D01*
X717949Y608683D01*
X717928Y608615D01*
X717904Y608548D01*
X717876Y608482D01*
X717845Y608418D01*
X717810Y608355D01*
X717772Y608295D01*
X717731Y608236D01*
X717687Y608180D01*
X717640Y608126D01*
X717591Y608075D01*
X717538Y608027D01*
X717483Y607981D01*
X717426Y607939D01*
X717366Y607899D01*
X717305Y607863D01*
X717241Y607830D01*
X717176Y607801D01*
X717110Y607775D01*
X717042Y607752D01*
X716973Y607733D01*
X716903Y607718D01*
X716833Y607707D01*
X716762Y607699D01*
X716691Y607695D01*
X716619Y607695D01*
X716548Y607699D01*
X716477Y607707D01*
X716407Y607718D01*
X716337Y607733D01*
X716268Y607752D01*
X716200Y607775D01*
X716134Y607801D01*
X716069Y607830D01*
X716005Y607863D01*
X715944Y607899D01*
X715884Y607939D01*
X715827Y607981D01*
X715772Y608027D01*
X715719Y608075D01*
X715670Y608126D01*
X715623Y608180D01*
X715579Y608236D01*
X715538Y608295D01*
X715500Y608355D01*
X715465Y608418D01*
X715434Y608482D01*
X715406Y608548D01*
X715382Y608615D01*
X715361Y608683D01*
X715344Y608753D01*
X715331Y608823D01*
X715322Y608893D01*
X715316Y608965D01*
X715314Y609036D01*
X715314Y610376D01*
X715316Y610467D01*
X715322Y610558D01*
X715331Y610648D01*
X715345Y610739D01*
X715362Y610828D01*
X715383Y610916D01*
X715408Y611004D01*
X715437Y611091D01*
X715469Y611176D01*
X715504Y611260D01*
X715544Y611342D01*
X715586Y611422D01*
X715632Y611501D01*
X715682Y611577D01*
X715734Y611651D01*
X715790Y611724D01*
X715849Y611793D01*
X715910Y611860D01*
X715975Y611925D01*
X716042Y611986D01*
X716111Y612045D01*
X716183Y612101D01*
X716258Y612153D01*
X716334Y612203D01*
X716413Y612249D01*
X716493Y612291D01*
X716575Y612331D01*
X716659Y612366D01*
X716744Y612398D01*
X716831Y612427D01*
X716918Y612452D01*
X717007Y612473D01*
X717096Y612490D01*
X717187Y612504D01*
X717277Y612513D01*
X717368Y612519D01*
X717459Y612521D01*
D10*
X1333500Y121920D02*
X1384300Y121920D01*
X1384300Y114300D01*
X1384300Y106680D01*
X1333500Y106680D01*
X1333500Y114300D01*
X1333500Y121920D01*
X1384300Y114300D02*
X1386840Y114300D01*
X1333500Y114300D02*
X1330960Y114300D01*
D11*
X1354848Y125095D02*
X1354848Y129921D01*
X1356189Y129921D01*
X1356260Y129919D01*
X1356332Y129913D01*
X1356402Y129904D01*
X1356472Y129891D01*
X1356542Y129874D01*
X1356610Y129853D01*
X1356677Y129829D01*
X1356743Y129801D01*
X1356807Y129770D01*
X1356870Y129735D01*
X1356930Y129697D01*
X1356989Y129656D01*
X1357045Y129612D01*
X1357099Y129565D01*
X1357150Y129516D01*
X1357198Y129463D01*
X1357244Y129408D01*
X1357286Y129351D01*
X1357326Y129291D01*
X1357362Y129230D01*
X1357395Y129166D01*
X1357424Y129101D01*
X1357450Y129035D01*
X1357473Y128967D01*
X1357492Y128898D01*
X1357507Y128828D01*
X1357518Y128758D01*
X1357526Y128687D01*
X1357530Y128616D01*
X1357530Y128544D01*
X1357526Y128473D01*
X1357518Y128402D01*
X1357507Y128332D01*
X1357492Y128262D01*
X1357473Y128193D01*
X1357450Y128125D01*
X1357424Y128059D01*
X1357395Y127994D01*
X1357362Y127930D01*
X1357326Y127869D01*
X1357286Y127809D01*
X1357244Y127752D01*
X1357198Y127697D01*
X1357150Y127644D01*
X1357099Y127595D01*
X1357045Y127548D01*
X1356989Y127504D01*
X1356930Y127463D01*
X1356870Y127425D01*
X1356807Y127390D01*
X1356743Y127359D01*
X1356677Y127331D01*
X1356610Y127307D01*
X1356542Y127286D01*
X1356472Y127269D01*
X1356402Y127256D01*
X1356332Y127247D01*
X1356260Y127241D01*
X1356189Y127239D01*
X1356189Y127240D02*
X1354848Y127240D01*
X1356457Y127240D02*
X1357529Y125095D01*
X1360271Y126167D02*
X1361343Y129921D01*
X1360271Y126167D02*
X1362952Y126167D01*
X1362148Y127240D02*
X1362148Y125095D01*
D10*
X1358900Y896620D02*
X1308100Y896620D01*
X1358900Y896620D02*
X1358900Y889000D01*
X1358900Y881380D01*
X1308100Y881380D01*
X1308100Y889000D01*
X1308100Y896620D01*
X1358900Y889000D02*
X1361440Y889000D01*
X1308100Y889000D02*
X1305560Y889000D01*
D11*
X1329448Y899795D02*
X1329448Y904621D01*
X1330789Y904621D01*
X1330860Y904619D01*
X1330932Y904613D01*
X1331002Y904604D01*
X1331072Y904591D01*
X1331142Y904574D01*
X1331210Y904553D01*
X1331277Y904529D01*
X1331343Y904501D01*
X1331407Y904470D01*
X1331470Y904435D01*
X1331530Y904397D01*
X1331589Y904356D01*
X1331645Y904312D01*
X1331699Y904265D01*
X1331750Y904216D01*
X1331798Y904163D01*
X1331844Y904108D01*
X1331886Y904051D01*
X1331926Y903991D01*
X1331962Y903930D01*
X1331995Y903866D01*
X1332024Y903801D01*
X1332050Y903735D01*
X1332073Y903667D01*
X1332092Y903598D01*
X1332107Y903528D01*
X1332118Y903458D01*
X1332126Y903387D01*
X1332130Y903316D01*
X1332130Y903244D01*
X1332126Y903173D01*
X1332118Y903102D01*
X1332107Y903032D01*
X1332092Y902962D01*
X1332073Y902893D01*
X1332050Y902825D01*
X1332024Y902759D01*
X1331995Y902694D01*
X1331962Y902630D01*
X1331926Y902569D01*
X1331886Y902509D01*
X1331844Y902452D01*
X1331798Y902397D01*
X1331750Y902344D01*
X1331699Y902295D01*
X1331645Y902248D01*
X1331589Y902204D01*
X1331530Y902163D01*
X1331470Y902125D01*
X1331407Y902090D01*
X1331343Y902059D01*
X1331277Y902031D01*
X1331210Y902007D01*
X1331142Y901986D01*
X1331072Y901969D01*
X1331002Y901956D01*
X1330932Y901947D01*
X1330860Y901941D01*
X1330789Y901939D01*
X1330789Y901940D02*
X1329448Y901940D01*
X1331057Y901940D02*
X1332129Y899795D01*
X1334871Y899795D02*
X1336479Y899795D01*
X1336544Y899797D01*
X1336608Y899803D01*
X1336672Y899813D01*
X1336736Y899826D01*
X1336798Y899844D01*
X1336859Y899865D01*
X1336919Y899889D01*
X1336977Y899918D01*
X1337034Y899950D01*
X1337088Y899985D01*
X1337140Y900023D01*
X1337190Y900065D01*
X1337237Y900109D01*
X1337281Y900156D01*
X1337323Y900206D01*
X1337361Y900258D01*
X1337396Y900312D01*
X1337428Y900369D01*
X1337457Y900427D01*
X1337481Y900487D01*
X1337502Y900548D01*
X1337520Y900610D01*
X1337533Y900674D01*
X1337543Y900738D01*
X1337549Y900802D01*
X1337551Y900867D01*
X1337552Y900867D02*
X1337552Y901404D01*
X1337551Y901404D02*
X1337549Y901469D01*
X1337543Y901533D01*
X1337533Y901597D01*
X1337520Y901661D01*
X1337502Y901723D01*
X1337481Y901784D01*
X1337457Y901844D01*
X1337428Y901902D01*
X1337396Y901959D01*
X1337361Y902013D01*
X1337323Y902065D01*
X1337281Y902115D01*
X1337237Y902162D01*
X1337190Y902206D01*
X1337140Y902248D01*
X1337088Y902286D01*
X1337034Y902321D01*
X1336977Y902353D01*
X1336919Y902382D01*
X1336859Y902406D01*
X1336798Y902427D01*
X1336736Y902445D01*
X1336672Y902458D01*
X1336608Y902468D01*
X1336544Y902474D01*
X1336479Y902476D01*
X1334871Y902476D01*
X1334871Y904621D01*
X1337552Y904621D01*
D10*
X1045822Y229347D02*
X1052101Y178937D01*
X1044539Y177995D01*
X1036978Y177053D01*
X1030699Y227463D01*
X1038261Y228405D01*
X1045822Y229347D01*
X1044539Y177995D02*
X1044853Y175474D01*
X1038261Y228405D02*
X1037947Y230926D01*
D11*
X1051611Y208555D02*
X1056400Y209152D01*
X1056566Y207821D01*
X1056567Y207822D02*
X1056574Y207749D01*
X1056577Y207677D01*
X1056576Y207604D01*
X1056571Y207532D01*
X1056563Y207460D01*
X1056550Y207388D01*
X1056534Y207317D01*
X1056513Y207248D01*
X1056489Y207179D01*
X1056462Y207112D01*
X1056430Y207046D01*
X1056396Y206983D01*
X1056358Y206921D01*
X1056316Y206861D01*
X1056271Y206804D01*
X1056224Y206749D01*
X1056173Y206697D01*
X1056120Y206648D01*
X1056064Y206601D01*
X1056006Y206558D01*
X1055945Y206518D01*
X1055883Y206481D01*
X1055818Y206448D01*
X1055752Y206418D01*
X1055684Y206392D01*
X1055615Y206370D01*
X1055545Y206351D01*
X1055474Y206336D01*
X1055402Y206325D01*
X1055329Y206318D01*
X1055257Y206315D01*
X1055184Y206316D01*
X1055112Y206321D01*
X1055040Y206329D01*
X1054968Y206342D01*
X1054897Y206358D01*
X1054828Y206379D01*
X1054759Y206403D01*
X1054692Y206430D01*
X1054626Y206462D01*
X1054563Y206496D01*
X1054501Y206534D01*
X1054441Y206576D01*
X1054384Y206621D01*
X1054329Y206668D01*
X1054277Y206719D01*
X1054228Y206772D01*
X1054181Y206828D01*
X1054138Y206886D01*
X1054098Y206947D01*
X1054061Y207009D01*
X1054028Y207074D01*
X1053998Y207140D01*
X1053972Y207208D01*
X1053950Y207277D01*
X1053931Y207347D01*
X1053916Y207418D01*
X1053905Y207490D01*
X1053740Y208820D01*
X1053939Y207224D02*
X1051943Y205894D01*
X1054942Y203505D02*
X1055141Y201909D01*
X1055142Y201909D02*
X1055148Y201844D01*
X1055150Y201779D01*
X1055148Y201715D01*
X1055143Y201650D01*
X1055133Y201586D01*
X1055120Y201522D01*
X1055102Y201460D01*
X1055081Y201399D01*
X1055057Y201339D01*
X1055029Y201280D01*
X1054997Y201224D01*
X1054962Y201169D01*
X1054924Y201117D01*
X1054882Y201067D01*
X1054838Y201020D01*
X1054791Y200975D01*
X1054741Y200933D01*
X1054689Y200895D01*
X1054635Y200859D01*
X1054579Y200827D01*
X1054520Y200799D01*
X1054461Y200774D01*
X1054399Y200753D01*
X1054337Y200735D01*
X1054274Y200721D01*
X1054210Y200711D01*
X1054209Y200712D02*
X1053943Y200679D01*
X1053944Y200678D02*
X1053871Y200671D01*
X1053799Y200668D01*
X1053726Y200669D01*
X1053654Y200674D01*
X1053582Y200682D01*
X1053510Y200695D01*
X1053439Y200711D01*
X1053370Y200732D01*
X1053301Y200756D01*
X1053234Y200783D01*
X1053168Y200815D01*
X1053105Y200849D01*
X1053043Y200887D01*
X1052983Y200929D01*
X1052926Y200974D01*
X1052871Y201021D01*
X1052819Y201072D01*
X1052770Y201125D01*
X1052723Y201181D01*
X1052680Y201239D01*
X1052640Y201300D01*
X1052603Y201362D01*
X1052570Y201427D01*
X1052540Y201493D01*
X1052514Y201561D01*
X1052492Y201630D01*
X1052473Y201700D01*
X1052458Y201771D01*
X1052447Y201843D01*
X1052440Y201916D01*
X1052437Y201988D01*
X1052438Y202061D01*
X1052443Y202133D01*
X1052451Y202205D01*
X1052464Y202277D01*
X1052480Y202348D01*
X1052501Y202417D01*
X1052525Y202486D01*
X1052552Y202553D01*
X1052584Y202619D01*
X1052618Y202682D01*
X1052656Y202744D01*
X1052698Y202804D01*
X1052743Y202861D01*
X1052790Y202916D01*
X1052841Y202968D01*
X1052894Y203017D01*
X1052950Y203064D01*
X1053008Y203107D01*
X1053069Y203147D01*
X1053131Y203184D01*
X1053196Y203217D01*
X1053262Y203247D01*
X1053330Y203273D01*
X1053399Y203295D01*
X1053469Y203314D01*
X1053540Y203329D01*
X1053612Y203340D01*
X1054942Y203505D01*
X1054942Y203506D02*
X1055032Y203515D01*
X1055123Y203520D01*
X1055214Y203522D01*
X1055305Y203520D01*
X1055396Y203514D01*
X1055487Y203504D01*
X1055577Y203490D01*
X1055666Y203472D01*
X1055755Y203451D01*
X1055842Y203426D01*
X1055929Y203397D01*
X1056014Y203365D01*
X1056097Y203329D01*
X1056179Y203289D01*
X1056260Y203246D01*
X1056338Y203200D01*
X1056414Y203150D01*
X1056488Y203097D01*
X1056560Y203041D01*
X1056630Y202982D01*
X1056697Y202920D01*
X1056761Y202856D01*
X1056822Y202789D01*
X1056881Y202719D01*
X1056936Y202647D01*
X1056988Y202572D01*
X1057037Y202495D01*
X1057083Y202417D01*
X1057126Y202336D01*
X1057165Y202254D01*
X1057200Y202170D01*
X1057232Y202085D01*
X1057260Y201998D01*
X1057285Y201910D01*
X1057305Y201822D01*
X1057322Y201732D01*
X1057336Y201642D01*
D10*
X1544320Y609600D02*
X1544320Y660400D01*
X1544320Y609600D02*
X1536700Y609600D01*
X1529080Y609600D01*
X1529080Y660400D01*
X1536700Y660400D01*
X1544320Y660400D01*
X1536700Y609600D02*
X1536700Y607060D01*
X1536700Y660400D02*
X1536700Y662940D01*
D11*
X1542808Y640461D02*
X1542808Y635635D01*
X1542808Y640461D02*
X1544149Y640461D01*
X1544220Y640459D01*
X1544292Y640453D01*
X1544362Y640444D01*
X1544432Y640431D01*
X1544502Y640414D01*
X1544570Y640393D01*
X1544637Y640369D01*
X1544703Y640341D01*
X1544767Y640310D01*
X1544830Y640275D01*
X1544890Y640237D01*
X1544949Y640196D01*
X1545005Y640152D01*
X1545059Y640105D01*
X1545110Y640056D01*
X1545158Y640003D01*
X1545204Y639948D01*
X1545246Y639891D01*
X1545286Y639831D01*
X1545322Y639770D01*
X1545355Y639706D01*
X1545384Y639641D01*
X1545410Y639575D01*
X1545433Y639507D01*
X1545452Y639438D01*
X1545467Y639368D01*
X1545478Y639298D01*
X1545486Y639227D01*
X1545490Y639156D01*
X1545490Y639084D01*
X1545486Y639013D01*
X1545478Y638942D01*
X1545467Y638872D01*
X1545452Y638802D01*
X1545433Y638733D01*
X1545410Y638665D01*
X1545384Y638599D01*
X1545355Y638534D01*
X1545322Y638470D01*
X1545286Y638409D01*
X1545246Y638349D01*
X1545204Y638292D01*
X1545158Y638237D01*
X1545110Y638184D01*
X1545059Y638135D01*
X1545005Y638088D01*
X1544949Y638044D01*
X1544890Y638003D01*
X1544830Y637965D01*
X1544767Y637930D01*
X1544703Y637899D01*
X1544637Y637871D01*
X1544570Y637847D01*
X1544502Y637826D01*
X1544432Y637809D01*
X1544362Y637796D01*
X1544292Y637787D01*
X1544220Y637781D01*
X1544149Y637779D01*
X1544149Y637780D02*
X1542808Y637780D01*
X1544417Y637780D02*
X1545489Y635635D01*
X1548231Y639925D02*
X1548231Y640461D01*
X1550912Y640461D01*
X1549571Y635635D01*
D10*
X1092200Y287020D02*
X1041400Y287020D01*
X1092200Y287020D02*
X1092200Y279400D01*
X1092200Y271780D01*
X1041400Y271780D01*
X1041400Y279400D01*
X1041400Y287020D01*
X1092200Y279400D02*
X1094740Y279400D01*
X1041400Y279400D02*
X1038860Y279400D01*
D11*
X1062748Y290195D02*
X1062748Y295021D01*
X1064089Y295021D01*
X1064160Y295019D01*
X1064232Y295013D01*
X1064302Y295004D01*
X1064372Y294991D01*
X1064442Y294974D01*
X1064510Y294953D01*
X1064577Y294929D01*
X1064643Y294901D01*
X1064707Y294870D01*
X1064770Y294835D01*
X1064830Y294797D01*
X1064889Y294756D01*
X1064945Y294712D01*
X1064999Y294665D01*
X1065050Y294616D01*
X1065098Y294563D01*
X1065144Y294508D01*
X1065186Y294451D01*
X1065226Y294391D01*
X1065262Y294330D01*
X1065295Y294266D01*
X1065324Y294201D01*
X1065350Y294135D01*
X1065373Y294067D01*
X1065392Y293998D01*
X1065407Y293928D01*
X1065418Y293858D01*
X1065426Y293787D01*
X1065430Y293716D01*
X1065430Y293644D01*
X1065426Y293573D01*
X1065418Y293502D01*
X1065407Y293432D01*
X1065392Y293362D01*
X1065373Y293293D01*
X1065350Y293225D01*
X1065324Y293159D01*
X1065295Y293094D01*
X1065262Y293030D01*
X1065226Y292969D01*
X1065186Y292909D01*
X1065144Y292852D01*
X1065098Y292797D01*
X1065050Y292744D01*
X1064999Y292695D01*
X1064945Y292648D01*
X1064889Y292604D01*
X1064830Y292563D01*
X1064770Y292525D01*
X1064707Y292490D01*
X1064643Y292459D01*
X1064577Y292431D01*
X1064510Y292407D01*
X1064442Y292386D01*
X1064372Y292369D01*
X1064302Y292356D01*
X1064232Y292347D01*
X1064160Y292341D01*
X1064089Y292339D01*
X1064089Y292340D02*
X1062748Y292340D01*
X1064357Y292340D02*
X1065429Y290195D01*
X1068170Y291536D02*
X1068172Y291607D01*
X1068178Y291679D01*
X1068187Y291749D01*
X1068200Y291819D01*
X1068217Y291889D01*
X1068238Y291957D01*
X1068262Y292024D01*
X1068290Y292090D01*
X1068321Y292154D01*
X1068356Y292217D01*
X1068394Y292277D01*
X1068435Y292336D01*
X1068479Y292392D01*
X1068526Y292446D01*
X1068575Y292497D01*
X1068628Y292545D01*
X1068683Y292591D01*
X1068740Y292633D01*
X1068800Y292673D01*
X1068861Y292709D01*
X1068925Y292742D01*
X1068990Y292771D01*
X1069056Y292797D01*
X1069124Y292820D01*
X1069193Y292839D01*
X1069263Y292854D01*
X1069333Y292865D01*
X1069404Y292873D01*
X1069475Y292877D01*
X1069547Y292877D01*
X1069618Y292873D01*
X1069689Y292865D01*
X1069759Y292854D01*
X1069829Y292839D01*
X1069898Y292820D01*
X1069966Y292797D01*
X1070032Y292771D01*
X1070097Y292742D01*
X1070161Y292709D01*
X1070222Y292673D01*
X1070282Y292633D01*
X1070339Y292591D01*
X1070394Y292545D01*
X1070447Y292497D01*
X1070496Y292446D01*
X1070543Y292392D01*
X1070587Y292336D01*
X1070628Y292277D01*
X1070666Y292217D01*
X1070701Y292154D01*
X1070732Y292090D01*
X1070760Y292024D01*
X1070784Y291957D01*
X1070805Y291889D01*
X1070822Y291819D01*
X1070835Y291749D01*
X1070844Y291679D01*
X1070850Y291607D01*
X1070852Y291536D01*
X1070850Y291465D01*
X1070844Y291393D01*
X1070835Y291323D01*
X1070822Y291253D01*
X1070805Y291183D01*
X1070784Y291115D01*
X1070760Y291048D01*
X1070732Y290982D01*
X1070701Y290918D01*
X1070666Y290855D01*
X1070628Y290795D01*
X1070587Y290736D01*
X1070543Y290680D01*
X1070496Y290626D01*
X1070447Y290575D01*
X1070394Y290527D01*
X1070339Y290481D01*
X1070282Y290439D01*
X1070222Y290399D01*
X1070161Y290363D01*
X1070097Y290330D01*
X1070032Y290301D01*
X1069966Y290275D01*
X1069898Y290252D01*
X1069829Y290233D01*
X1069759Y290218D01*
X1069689Y290207D01*
X1069618Y290199D01*
X1069547Y290195D01*
X1069475Y290195D01*
X1069404Y290199D01*
X1069333Y290207D01*
X1069263Y290218D01*
X1069193Y290233D01*
X1069124Y290252D01*
X1069056Y290275D01*
X1068990Y290301D01*
X1068925Y290330D01*
X1068861Y290363D01*
X1068800Y290399D01*
X1068740Y290439D01*
X1068683Y290481D01*
X1068628Y290527D01*
X1068575Y290575D01*
X1068526Y290626D01*
X1068479Y290680D01*
X1068435Y290736D01*
X1068394Y290795D01*
X1068356Y290855D01*
X1068321Y290918D01*
X1068290Y290982D01*
X1068262Y291048D01*
X1068238Y291115D01*
X1068217Y291183D01*
X1068200Y291253D01*
X1068187Y291323D01*
X1068178Y291393D01*
X1068172Y291465D01*
X1068170Y291536D01*
X1068439Y293949D02*
X1068441Y294014D01*
X1068447Y294078D01*
X1068457Y294142D01*
X1068470Y294206D01*
X1068488Y294268D01*
X1068509Y294329D01*
X1068533Y294389D01*
X1068562Y294447D01*
X1068594Y294504D01*
X1068629Y294558D01*
X1068667Y294610D01*
X1068709Y294660D01*
X1068753Y294707D01*
X1068800Y294751D01*
X1068850Y294793D01*
X1068902Y294831D01*
X1068956Y294866D01*
X1069013Y294898D01*
X1069071Y294927D01*
X1069131Y294951D01*
X1069192Y294972D01*
X1069254Y294990D01*
X1069318Y295003D01*
X1069382Y295013D01*
X1069446Y295019D01*
X1069511Y295021D01*
X1069576Y295019D01*
X1069640Y295013D01*
X1069704Y295003D01*
X1069768Y294990D01*
X1069830Y294972D01*
X1069891Y294951D01*
X1069951Y294927D01*
X1070009Y294898D01*
X1070066Y294866D01*
X1070120Y294831D01*
X1070172Y294793D01*
X1070222Y294751D01*
X1070269Y294707D01*
X1070313Y294660D01*
X1070355Y294610D01*
X1070393Y294558D01*
X1070428Y294504D01*
X1070460Y294447D01*
X1070489Y294389D01*
X1070513Y294329D01*
X1070534Y294268D01*
X1070552Y294206D01*
X1070565Y294142D01*
X1070575Y294078D01*
X1070581Y294014D01*
X1070583Y293949D01*
X1070581Y293884D01*
X1070575Y293820D01*
X1070565Y293756D01*
X1070552Y293692D01*
X1070534Y293630D01*
X1070513Y293569D01*
X1070489Y293509D01*
X1070460Y293451D01*
X1070428Y293394D01*
X1070393Y293340D01*
X1070355Y293288D01*
X1070313Y293238D01*
X1070269Y293191D01*
X1070222Y293147D01*
X1070172Y293105D01*
X1070120Y293067D01*
X1070066Y293032D01*
X1070009Y293000D01*
X1069951Y292971D01*
X1069891Y292947D01*
X1069830Y292926D01*
X1069768Y292908D01*
X1069704Y292895D01*
X1069640Y292885D01*
X1069576Y292879D01*
X1069511Y292877D01*
X1069446Y292879D01*
X1069382Y292885D01*
X1069318Y292895D01*
X1069254Y292908D01*
X1069192Y292926D01*
X1069131Y292947D01*
X1069071Y292971D01*
X1069013Y293000D01*
X1068956Y293032D01*
X1068902Y293067D01*
X1068850Y293105D01*
X1068800Y293147D01*
X1068753Y293191D01*
X1068709Y293238D01*
X1068667Y293288D01*
X1068629Y293340D01*
X1068594Y293394D01*
X1068562Y293451D01*
X1068533Y293509D01*
X1068509Y293569D01*
X1068488Y293630D01*
X1068470Y293692D01*
X1068457Y293756D01*
X1068447Y293820D01*
X1068441Y293884D01*
X1068439Y293949D01*
D10*
X551180Y139700D02*
X551180Y88900D01*
X551180Y139700D02*
X558800Y139700D01*
X566420Y139700D01*
X566420Y88900D01*
X558800Y88900D01*
X551180Y88900D01*
X558800Y139700D02*
X558800Y142240D01*
X558800Y88900D02*
X558800Y86360D01*
D11*
X554101Y97548D02*
X549275Y97548D01*
X549275Y98889D01*
X549277Y98960D01*
X549283Y99032D01*
X549292Y99102D01*
X549305Y99172D01*
X549322Y99242D01*
X549343Y99310D01*
X549367Y99377D01*
X549395Y99443D01*
X549426Y99507D01*
X549461Y99570D01*
X549499Y99630D01*
X549540Y99689D01*
X549584Y99745D01*
X549631Y99799D01*
X549680Y99850D01*
X549733Y99898D01*
X549788Y99944D01*
X549845Y99986D01*
X549905Y100026D01*
X549966Y100062D01*
X550030Y100095D01*
X550095Y100124D01*
X550161Y100150D01*
X550229Y100173D01*
X550298Y100192D01*
X550368Y100207D01*
X550438Y100218D01*
X550509Y100226D01*
X550580Y100230D01*
X550652Y100230D01*
X550723Y100226D01*
X550794Y100218D01*
X550864Y100207D01*
X550934Y100192D01*
X551003Y100173D01*
X551071Y100150D01*
X551137Y100124D01*
X551202Y100095D01*
X551266Y100062D01*
X551327Y100026D01*
X551387Y99986D01*
X551444Y99944D01*
X551499Y99898D01*
X551552Y99850D01*
X551601Y99799D01*
X551648Y99745D01*
X551692Y99689D01*
X551733Y99630D01*
X551771Y99570D01*
X551806Y99507D01*
X551837Y99443D01*
X551865Y99377D01*
X551889Y99310D01*
X551910Y99242D01*
X551927Y99172D01*
X551940Y99102D01*
X551949Y99032D01*
X551955Y98960D01*
X551957Y98889D01*
X551956Y98889D02*
X551956Y97548D01*
X551956Y99157D02*
X554101Y100229D01*
X551956Y104043D02*
X551956Y105652D01*
X551956Y104043D02*
X551954Y103978D01*
X551948Y103914D01*
X551938Y103850D01*
X551925Y103786D01*
X551907Y103724D01*
X551886Y103663D01*
X551862Y103603D01*
X551833Y103545D01*
X551801Y103488D01*
X551766Y103434D01*
X551728Y103382D01*
X551686Y103332D01*
X551642Y103285D01*
X551595Y103241D01*
X551545Y103199D01*
X551493Y103161D01*
X551439Y103126D01*
X551382Y103094D01*
X551324Y103065D01*
X551264Y103041D01*
X551203Y103020D01*
X551141Y103002D01*
X551077Y102989D01*
X551013Y102979D01*
X550949Y102973D01*
X550884Y102971D01*
X550616Y102971D01*
X550616Y102970D02*
X550545Y102972D01*
X550473Y102978D01*
X550403Y102987D01*
X550333Y103000D01*
X550263Y103017D01*
X550195Y103038D01*
X550128Y103062D01*
X550062Y103090D01*
X549998Y103121D01*
X549935Y103156D01*
X549875Y103194D01*
X549816Y103235D01*
X549760Y103279D01*
X549706Y103326D01*
X549655Y103375D01*
X549607Y103428D01*
X549561Y103483D01*
X549519Y103540D01*
X549479Y103600D01*
X549443Y103661D01*
X549410Y103725D01*
X549381Y103790D01*
X549355Y103856D01*
X549332Y103924D01*
X549313Y103993D01*
X549298Y104063D01*
X549287Y104133D01*
X549279Y104204D01*
X549275Y104275D01*
X549275Y104347D01*
X549279Y104418D01*
X549287Y104489D01*
X549298Y104559D01*
X549313Y104629D01*
X549332Y104698D01*
X549355Y104766D01*
X549381Y104832D01*
X549410Y104897D01*
X549443Y104961D01*
X549479Y105022D01*
X549519Y105082D01*
X549561Y105139D01*
X549607Y105194D01*
X549655Y105247D01*
X549706Y105296D01*
X549760Y105343D01*
X549816Y105387D01*
X549875Y105428D01*
X549935Y105466D01*
X549998Y105501D01*
X550062Y105532D01*
X550128Y105560D01*
X550195Y105584D01*
X550263Y105605D01*
X550333Y105622D01*
X550403Y105635D01*
X550473Y105644D01*
X550545Y105650D01*
X550616Y105652D01*
X551956Y105652D01*
X552047Y105650D01*
X552138Y105644D01*
X552228Y105635D01*
X552319Y105621D01*
X552408Y105604D01*
X552496Y105583D01*
X552584Y105558D01*
X552671Y105529D01*
X552756Y105497D01*
X552840Y105462D01*
X552922Y105422D01*
X553002Y105380D01*
X553081Y105334D01*
X553157Y105284D01*
X553231Y105232D01*
X553304Y105176D01*
X553373Y105117D01*
X553440Y105056D01*
X553505Y104991D01*
X553566Y104924D01*
X553625Y104855D01*
X553681Y104782D01*
X553733Y104708D01*
X553783Y104632D01*
X553829Y104553D01*
X553871Y104473D01*
X553911Y104391D01*
X553946Y104307D01*
X553978Y104222D01*
X554007Y104135D01*
X554032Y104047D01*
X554053Y103959D01*
X554070Y103870D01*
X554084Y103779D01*
X554093Y103689D01*
X554099Y103598D01*
X554101Y103507D01*
D10*
X76200Y603250D02*
X69850Y609600D01*
X57150Y609600D01*
X50800Y603250D01*
X50800Y590550D01*
X57150Y584200D01*
X69850Y584200D01*
X76200Y590550D01*
X76200Y603250D01*
D11*
X76835Y603631D02*
X76835Y598805D01*
X76835Y603631D02*
X78176Y603631D01*
X78247Y603629D01*
X78319Y603623D01*
X78389Y603614D01*
X78459Y603601D01*
X78529Y603584D01*
X78597Y603563D01*
X78664Y603539D01*
X78730Y603511D01*
X78794Y603480D01*
X78857Y603445D01*
X78917Y603407D01*
X78976Y603366D01*
X79032Y603322D01*
X79086Y603275D01*
X79137Y603226D01*
X79185Y603173D01*
X79231Y603118D01*
X79273Y603061D01*
X79313Y603001D01*
X79349Y602940D01*
X79382Y602876D01*
X79411Y602811D01*
X79437Y602745D01*
X79460Y602677D01*
X79479Y602608D01*
X79494Y602538D01*
X79505Y602468D01*
X79513Y602397D01*
X79517Y602326D01*
X79517Y602254D01*
X79513Y602183D01*
X79505Y602112D01*
X79494Y602042D01*
X79479Y601972D01*
X79460Y601903D01*
X79437Y601835D01*
X79411Y601769D01*
X79382Y601704D01*
X79349Y601640D01*
X79313Y601579D01*
X79273Y601519D01*
X79231Y601462D01*
X79185Y601407D01*
X79137Y601354D01*
X79086Y601305D01*
X79032Y601258D01*
X78976Y601214D01*
X78917Y601173D01*
X78857Y601135D01*
X78794Y601100D01*
X78730Y601069D01*
X78664Y601041D01*
X78597Y601017D01*
X78529Y600996D01*
X78459Y600979D01*
X78389Y600966D01*
X78319Y600957D01*
X78247Y600951D01*
X78176Y600949D01*
X78176Y600950D02*
X76835Y600950D01*
X78444Y600950D02*
X79516Y598805D01*
X81990Y598805D02*
X83598Y603631D01*
X85207Y598805D01*
X84805Y600012D02*
X82392Y600012D01*
D10*
X781050Y889000D02*
X787400Y882650D01*
X781050Y889000D02*
X768350Y889000D01*
X762000Y882650D01*
X762000Y869950D01*
X768350Y863600D01*
X781050Y863600D01*
X787400Y869950D01*
X787400Y882650D01*
D11*
X762635Y890905D02*
X762635Y895731D01*
X763976Y895731D01*
X764047Y895729D01*
X764119Y895723D01*
X764189Y895714D01*
X764259Y895701D01*
X764329Y895684D01*
X764397Y895663D01*
X764464Y895639D01*
X764530Y895611D01*
X764594Y895580D01*
X764657Y895545D01*
X764717Y895507D01*
X764776Y895466D01*
X764832Y895422D01*
X764886Y895375D01*
X764937Y895326D01*
X764985Y895273D01*
X765031Y895218D01*
X765073Y895161D01*
X765113Y895101D01*
X765149Y895040D01*
X765182Y894976D01*
X765211Y894911D01*
X765237Y894845D01*
X765260Y894777D01*
X765279Y894708D01*
X765294Y894638D01*
X765305Y894568D01*
X765313Y894497D01*
X765317Y894426D01*
X765317Y894354D01*
X765313Y894283D01*
X765305Y894212D01*
X765294Y894142D01*
X765279Y894072D01*
X765260Y894003D01*
X765237Y893935D01*
X765211Y893869D01*
X765182Y893804D01*
X765149Y893740D01*
X765113Y893679D01*
X765073Y893619D01*
X765031Y893562D01*
X764985Y893507D01*
X764937Y893454D01*
X764886Y893405D01*
X764832Y893358D01*
X764776Y893314D01*
X764717Y893273D01*
X764657Y893235D01*
X764594Y893200D01*
X764530Y893169D01*
X764464Y893141D01*
X764397Y893117D01*
X764329Y893096D01*
X764259Y893079D01*
X764189Y893066D01*
X764119Y893057D01*
X764047Y893051D01*
X763976Y893049D01*
X763976Y893050D02*
X762635Y893050D01*
X764244Y893050D02*
X765316Y890905D01*
X768387Y893586D02*
X769728Y893586D01*
X769728Y893587D02*
X769799Y893585D01*
X769871Y893579D01*
X769941Y893570D01*
X770011Y893557D01*
X770081Y893540D01*
X770149Y893519D01*
X770216Y893495D01*
X770282Y893467D01*
X770346Y893436D01*
X770409Y893401D01*
X770469Y893363D01*
X770528Y893322D01*
X770584Y893278D01*
X770638Y893231D01*
X770689Y893182D01*
X770737Y893129D01*
X770783Y893074D01*
X770825Y893017D01*
X770865Y892957D01*
X770901Y892896D01*
X770934Y892832D01*
X770963Y892767D01*
X770989Y892701D01*
X771012Y892633D01*
X771031Y892564D01*
X771046Y892494D01*
X771057Y892424D01*
X771065Y892353D01*
X771069Y892282D01*
X771069Y892210D01*
X771065Y892139D01*
X771057Y892068D01*
X771046Y891998D01*
X771031Y891928D01*
X771012Y891859D01*
X770989Y891791D01*
X770963Y891725D01*
X770934Y891660D01*
X770901Y891596D01*
X770865Y891535D01*
X770825Y891475D01*
X770783Y891418D01*
X770737Y891363D01*
X770689Y891310D01*
X770638Y891261D01*
X770584Y891214D01*
X770528Y891170D01*
X770469Y891129D01*
X770409Y891091D01*
X770346Y891056D01*
X770282Y891025D01*
X770216Y890997D01*
X770149Y890973D01*
X770081Y890952D01*
X770011Y890935D01*
X769941Y890922D01*
X769871Y890913D01*
X769799Y890907D01*
X769728Y890905D01*
X768387Y890905D01*
X768387Y895731D01*
X769728Y895731D01*
X769793Y895729D01*
X769857Y895723D01*
X769921Y895713D01*
X769985Y895700D01*
X770047Y895682D01*
X770108Y895661D01*
X770168Y895637D01*
X770226Y895608D01*
X770283Y895576D01*
X770337Y895541D01*
X770389Y895503D01*
X770439Y895461D01*
X770486Y895417D01*
X770530Y895370D01*
X770572Y895320D01*
X770610Y895268D01*
X770645Y895214D01*
X770677Y895157D01*
X770706Y895099D01*
X770730Y895039D01*
X770751Y894978D01*
X770769Y894916D01*
X770782Y894852D01*
X770792Y894788D01*
X770798Y894724D01*
X770800Y894659D01*
X770798Y894594D01*
X770792Y894530D01*
X770782Y894466D01*
X770769Y894402D01*
X770751Y894340D01*
X770730Y894279D01*
X770706Y894219D01*
X770677Y894161D01*
X770645Y894104D01*
X770610Y894050D01*
X770572Y893998D01*
X770530Y893948D01*
X770486Y893901D01*
X770439Y893857D01*
X770389Y893815D01*
X770337Y893777D01*
X770283Y893742D01*
X770226Y893710D01*
X770168Y893681D01*
X770108Y893657D01*
X770047Y893636D01*
X769985Y893618D01*
X769921Y893605D01*
X769857Y893595D01*
X769793Y893589D01*
X769728Y893587D01*
X773746Y890905D02*
X775891Y890905D01*
X773746Y890905D02*
X773746Y895731D01*
X775891Y895731D01*
X775355Y893586D02*
X773746Y893586D01*
X778501Y895731D02*
X778501Y890905D01*
X780646Y890905D01*
X784028Y890905D02*
X784028Y895731D01*
X782688Y895731D02*
X785369Y895731D01*
X787809Y894390D02*
X787809Y892246D01*
X787808Y894390D02*
X787810Y894461D01*
X787816Y894533D01*
X787825Y894603D01*
X787838Y894673D01*
X787855Y894743D01*
X787876Y894811D01*
X787900Y894878D01*
X787928Y894944D01*
X787959Y895008D01*
X787994Y895071D01*
X788032Y895131D01*
X788073Y895190D01*
X788117Y895246D01*
X788164Y895300D01*
X788213Y895351D01*
X788266Y895399D01*
X788321Y895445D01*
X788378Y895487D01*
X788438Y895527D01*
X788499Y895563D01*
X788563Y895596D01*
X788628Y895625D01*
X788694Y895651D01*
X788762Y895674D01*
X788831Y895693D01*
X788901Y895708D01*
X788971Y895719D01*
X789042Y895727D01*
X789113Y895731D01*
X789185Y895731D01*
X789256Y895727D01*
X789327Y895719D01*
X789397Y895708D01*
X789467Y895693D01*
X789536Y895674D01*
X789604Y895651D01*
X789670Y895625D01*
X789735Y895596D01*
X789799Y895563D01*
X789860Y895527D01*
X789920Y895487D01*
X789977Y895445D01*
X790032Y895399D01*
X790085Y895351D01*
X790134Y895300D01*
X790181Y895246D01*
X790225Y895190D01*
X790266Y895131D01*
X790304Y895071D01*
X790339Y895008D01*
X790370Y894944D01*
X790398Y894878D01*
X790422Y894811D01*
X790443Y894743D01*
X790460Y894673D01*
X790473Y894603D01*
X790482Y894533D01*
X790488Y894461D01*
X790490Y894390D01*
X790490Y892246D01*
X790488Y892175D01*
X790482Y892103D01*
X790473Y892033D01*
X790460Y891963D01*
X790443Y891893D01*
X790422Y891825D01*
X790398Y891758D01*
X790370Y891692D01*
X790339Y891628D01*
X790304Y891565D01*
X790266Y891505D01*
X790225Y891446D01*
X790181Y891390D01*
X790134Y891336D01*
X790085Y891285D01*
X790032Y891237D01*
X789977Y891191D01*
X789920Y891149D01*
X789860Y891109D01*
X789799Y891073D01*
X789735Y891040D01*
X789670Y891011D01*
X789604Y890985D01*
X789536Y890962D01*
X789467Y890943D01*
X789397Y890928D01*
X789327Y890917D01*
X789256Y890909D01*
X789185Y890905D01*
X789113Y890905D01*
X789042Y890909D01*
X788971Y890917D01*
X788901Y890928D01*
X788831Y890943D01*
X788762Y890962D01*
X788694Y890985D01*
X788628Y891011D01*
X788563Y891040D01*
X788499Y891073D01*
X788438Y891109D01*
X788378Y891149D01*
X788321Y891191D01*
X788266Y891237D01*
X788213Y891285D01*
X788164Y891336D01*
X788117Y891390D01*
X788073Y891446D01*
X788032Y891505D01*
X787994Y891565D01*
X787959Y891628D01*
X787928Y891692D01*
X787900Y891758D01*
X787876Y891825D01*
X787855Y891893D01*
X787838Y891963D01*
X787825Y892033D01*
X787816Y892103D01*
X787810Y892175D01*
X787808Y892246D01*
X793478Y892246D02*
X793478Y895731D01*
X793477Y892246D02*
X793479Y892175D01*
X793485Y892103D01*
X793494Y892033D01*
X793507Y891963D01*
X793524Y891893D01*
X793545Y891825D01*
X793569Y891758D01*
X793597Y891692D01*
X793628Y891628D01*
X793663Y891565D01*
X793701Y891505D01*
X793742Y891446D01*
X793786Y891390D01*
X793833Y891336D01*
X793882Y891285D01*
X793935Y891237D01*
X793990Y891191D01*
X794047Y891149D01*
X794107Y891109D01*
X794168Y891073D01*
X794232Y891040D01*
X794297Y891011D01*
X794363Y890985D01*
X794431Y890962D01*
X794500Y890943D01*
X794570Y890928D01*
X794640Y890917D01*
X794711Y890909D01*
X794782Y890905D01*
X794854Y890905D01*
X794925Y890909D01*
X794996Y890917D01*
X795066Y890928D01*
X795136Y890943D01*
X795205Y890962D01*
X795273Y890985D01*
X795339Y891011D01*
X795404Y891040D01*
X795468Y891073D01*
X795529Y891109D01*
X795589Y891149D01*
X795646Y891191D01*
X795701Y891237D01*
X795754Y891285D01*
X795803Y891336D01*
X795850Y891390D01*
X795894Y891446D01*
X795935Y891505D01*
X795973Y891565D01*
X796008Y891628D01*
X796039Y891692D01*
X796067Y891758D01*
X796091Y891825D01*
X796112Y891893D01*
X796129Y891963D01*
X796142Y892033D01*
X796151Y892103D01*
X796157Y892175D01*
X796159Y892246D01*
X796159Y895731D01*
X800122Y895731D02*
X800122Y890905D01*
X798781Y895731D02*
X801462Y895731D01*
D10*
X76200Y488950D02*
X69850Y495300D01*
X57150Y495300D01*
X50800Y488950D01*
X50800Y476250D01*
X57150Y469900D01*
X69850Y469900D01*
X76200Y476250D01*
X76200Y488950D01*
D11*
X51435Y497205D02*
X51435Y502031D01*
X52776Y502031D01*
X52847Y502029D01*
X52919Y502023D01*
X52989Y502014D01*
X53059Y502001D01*
X53129Y501984D01*
X53197Y501963D01*
X53264Y501939D01*
X53330Y501911D01*
X53394Y501880D01*
X53457Y501845D01*
X53517Y501807D01*
X53576Y501766D01*
X53632Y501722D01*
X53686Y501675D01*
X53737Y501626D01*
X53785Y501573D01*
X53831Y501518D01*
X53873Y501461D01*
X53913Y501401D01*
X53949Y501340D01*
X53982Y501276D01*
X54011Y501211D01*
X54037Y501145D01*
X54060Y501077D01*
X54079Y501008D01*
X54094Y500938D01*
X54105Y500868D01*
X54113Y500797D01*
X54117Y500726D01*
X54117Y500654D01*
X54113Y500583D01*
X54105Y500512D01*
X54094Y500442D01*
X54079Y500372D01*
X54060Y500303D01*
X54037Y500235D01*
X54011Y500169D01*
X53982Y500104D01*
X53949Y500040D01*
X53913Y499979D01*
X53873Y499919D01*
X53831Y499862D01*
X53785Y499807D01*
X53737Y499754D01*
X53686Y499705D01*
X53632Y499658D01*
X53576Y499614D01*
X53517Y499573D01*
X53457Y499535D01*
X53394Y499500D01*
X53330Y499469D01*
X53264Y499441D01*
X53197Y499417D01*
X53129Y499396D01*
X53059Y499379D01*
X52989Y499366D01*
X52919Y499357D01*
X52847Y499351D01*
X52776Y499349D01*
X52776Y499350D02*
X51435Y499350D01*
X53044Y499350D02*
X54116Y497205D01*
X57060Y497205D02*
X57060Y502031D01*
X57060Y497205D02*
X59205Y497205D01*
D12*
X1387094Y263652D02*
X1406906Y263652D01*
X1406906Y295148D02*
X1387094Y295148D01*
D14*
X1379571Y299572D02*
X1379571Y302277D01*
X1379571Y299572D02*
X1379573Y299509D01*
X1379579Y299447D01*
X1379588Y299384D01*
X1379601Y299323D01*
X1379618Y299262D01*
X1379639Y299203D01*
X1379663Y299145D01*
X1379690Y299088D01*
X1379721Y299033D01*
X1379755Y298981D01*
X1379793Y298930D01*
X1379833Y298882D01*
X1379876Y298836D01*
X1379922Y298793D01*
X1379970Y298753D01*
X1380021Y298715D01*
X1380073Y298681D01*
X1380128Y298650D01*
X1380185Y298623D01*
X1380243Y298599D01*
X1380302Y298578D01*
X1380363Y298561D01*
X1380424Y298548D01*
X1380487Y298539D01*
X1380549Y298533D01*
X1380612Y298531D01*
X1380675Y298533D01*
X1380737Y298539D01*
X1380800Y298548D01*
X1380861Y298561D01*
X1380922Y298578D01*
X1380981Y298599D01*
X1381039Y298623D01*
X1381096Y298650D01*
X1381151Y298681D01*
X1381203Y298715D01*
X1381254Y298753D01*
X1381302Y298793D01*
X1381348Y298836D01*
X1381391Y298882D01*
X1381431Y298930D01*
X1381469Y298981D01*
X1381503Y299033D01*
X1381534Y299088D01*
X1381561Y299145D01*
X1381585Y299203D01*
X1381606Y299262D01*
X1381623Y299323D01*
X1381636Y299384D01*
X1381645Y299447D01*
X1381651Y299509D01*
X1381653Y299572D01*
X1381652Y299572D02*
X1381652Y302277D01*
X1383291Y301445D02*
X1384332Y302277D01*
X1384332Y298531D01*
X1385372Y298531D02*
X1383291Y298531D01*
D10*
X863600Y106680D02*
X812800Y106680D01*
X812800Y114300D01*
X812800Y121920D01*
X863600Y121920D01*
X863600Y114300D01*
X863600Y106680D01*
X812800Y114300D02*
X810260Y114300D01*
X863600Y114300D02*
X866140Y114300D01*
D11*
X834148Y103505D02*
X834148Y98679D01*
X834148Y103505D02*
X835489Y103505D01*
X835560Y103503D01*
X835632Y103497D01*
X835702Y103488D01*
X835772Y103475D01*
X835842Y103458D01*
X835910Y103437D01*
X835977Y103413D01*
X836043Y103385D01*
X836107Y103354D01*
X836170Y103319D01*
X836230Y103281D01*
X836289Y103240D01*
X836345Y103196D01*
X836399Y103149D01*
X836450Y103100D01*
X836498Y103047D01*
X836544Y102992D01*
X836586Y102935D01*
X836626Y102875D01*
X836662Y102814D01*
X836695Y102750D01*
X836724Y102685D01*
X836750Y102619D01*
X836773Y102551D01*
X836792Y102482D01*
X836807Y102412D01*
X836818Y102342D01*
X836826Y102271D01*
X836830Y102200D01*
X836830Y102128D01*
X836826Y102057D01*
X836818Y101986D01*
X836807Y101916D01*
X836792Y101846D01*
X836773Y101777D01*
X836750Y101709D01*
X836724Y101643D01*
X836695Y101578D01*
X836662Y101514D01*
X836626Y101453D01*
X836586Y101393D01*
X836544Y101336D01*
X836498Y101281D01*
X836450Y101228D01*
X836399Y101179D01*
X836345Y101132D01*
X836289Y101088D01*
X836230Y101047D01*
X836170Y101009D01*
X836107Y100974D01*
X836043Y100943D01*
X835977Y100915D01*
X835910Y100891D01*
X835842Y100870D01*
X835772Y100853D01*
X835702Y100840D01*
X835632Y100831D01*
X835560Y100825D01*
X835489Y100823D01*
X835489Y100824D02*
X834148Y100824D01*
X835757Y100824D02*
X836829Y98679D01*
X839571Y98679D02*
X840911Y98679D01*
X840982Y98681D01*
X841054Y98687D01*
X841124Y98696D01*
X841194Y98709D01*
X841264Y98726D01*
X841332Y98747D01*
X841399Y98771D01*
X841465Y98799D01*
X841529Y98830D01*
X841592Y98865D01*
X841652Y98903D01*
X841711Y98944D01*
X841767Y98988D01*
X841821Y99035D01*
X841872Y99084D01*
X841920Y99137D01*
X841966Y99192D01*
X842008Y99249D01*
X842048Y99309D01*
X842084Y99370D01*
X842117Y99434D01*
X842146Y99499D01*
X842172Y99565D01*
X842195Y99633D01*
X842214Y99702D01*
X842229Y99772D01*
X842240Y99842D01*
X842248Y99913D01*
X842252Y99984D01*
X842252Y100056D01*
X842248Y100127D01*
X842240Y100198D01*
X842229Y100268D01*
X842214Y100338D01*
X842195Y100407D01*
X842172Y100475D01*
X842146Y100541D01*
X842117Y100606D01*
X842084Y100670D01*
X842048Y100731D01*
X842008Y100791D01*
X841966Y100848D01*
X841920Y100903D01*
X841872Y100956D01*
X841821Y101005D01*
X841767Y101052D01*
X841711Y101096D01*
X841652Y101137D01*
X841592Y101175D01*
X841529Y101210D01*
X841465Y101241D01*
X841399Y101269D01*
X841332Y101293D01*
X841264Y101314D01*
X841194Y101331D01*
X841124Y101344D01*
X841054Y101353D01*
X840982Y101359D01*
X840911Y101361D01*
X841179Y103505D02*
X839571Y103505D01*
X841179Y103505D02*
X841244Y103503D01*
X841308Y103497D01*
X841372Y103487D01*
X841436Y103474D01*
X841498Y103456D01*
X841559Y103435D01*
X841619Y103411D01*
X841677Y103382D01*
X841734Y103350D01*
X841788Y103315D01*
X841840Y103277D01*
X841890Y103235D01*
X841937Y103191D01*
X841981Y103144D01*
X842023Y103094D01*
X842061Y103042D01*
X842096Y102988D01*
X842128Y102931D01*
X842157Y102873D01*
X842181Y102813D01*
X842202Y102752D01*
X842220Y102690D01*
X842233Y102626D01*
X842243Y102562D01*
X842249Y102498D01*
X842251Y102433D01*
X842249Y102368D01*
X842243Y102304D01*
X842233Y102240D01*
X842220Y102176D01*
X842202Y102114D01*
X842181Y102053D01*
X842157Y101993D01*
X842128Y101935D01*
X842096Y101878D01*
X842061Y101824D01*
X842023Y101772D01*
X841981Y101722D01*
X841937Y101675D01*
X841890Y101631D01*
X841840Y101589D01*
X841788Y101551D01*
X841734Y101516D01*
X841677Y101484D01*
X841619Y101455D01*
X841559Y101431D01*
X841498Y101410D01*
X841436Y101392D01*
X841372Y101379D01*
X841308Y101369D01*
X841244Y101363D01*
X841179Y101361D01*
X841179Y101360D02*
X840107Y101360D01*
D10*
X317500Y401320D02*
X266700Y401320D01*
X317500Y401320D02*
X317500Y393700D01*
X317500Y386080D01*
X266700Y386080D01*
X266700Y393700D01*
X266700Y401320D01*
X317500Y393700D02*
X320040Y393700D01*
X266700Y393700D02*
X264160Y393700D01*
D11*
X285305Y404495D02*
X285305Y409321D01*
X286646Y409321D01*
X286717Y409319D01*
X286789Y409313D01*
X286859Y409304D01*
X286929Y409291D01*
X286999Y409274D01*
X287067Y409253D01*
X287134Y409229D01*
X287200Y409201D01*
X287264Y409170D01*
X287327Y409135D01*
X287387Y409097D01*
X287446Y409056D01*
X287502Y409012D01*
X287556Y408965D01*
X287607Y408916D01*
X287655Y408863D01*
X287701Y408808D01*
X287743Y408751D01*
X287783Y408691D01*
X287819Y408630D01*
X287852Y408566D01*
X287881Y408501D01*
X287907Y408435D01*
X287930Y408367D01*
X287949Y408298D01*
X287964Y408228D01*
X287975Y408158D01*
X287983Y408087D01*
X287987Y408016D01*
X287987Y407944D01*
X287983Y407873D01*
X287975Y407802D01*
X287964Y407732D01*
X287949Y407662D01*
X287930Y407593D01*
X287907Y407525D01*
X287881Y407459D01*
X287852Y407394D01*
X287819Y407330D01*
X287783Y407269D01*
X287743Y407209D01*
X287701Y407152D01*
X287655Y407097D01*
X287607Y407044D01*
X287556Y406995D01*
X287502Y406948D01*
X287446Y406904D01*
X287387Y406863D01*
X287327Y406825D01*
X287264Y406790D01*
X287200Y406759D01*
X287134Y406731D01*
X287067Y406707D01*
X286999Y406686D01*
X286929Y406669D01*
X286859Y406656D01*
X286789Y406647D01*
X286717Y406641D01*
X286646Y406639D01*
X286646Y406640D02*
X285305Y406640D01*
X286914Y406640D02*
X287986Y404495D01*
X290728Y408249D02*
X292068Y409321D01*
X292068Y404495D01*
X290728Y404495D02*
X293409Y404495D01*
X296214Y406908D02*
X296216Y407028D01*
X296221Y407148D01*
X296230Y407268D01*
X296243Y407388D01*
X296259Y407507D01*
X296279Y407626D01*
X296303Y407744D01*
X296330Y407861D01*
X296360Y407977D01*
X296394Y408092D01*
X296432Y408207D01*
X296473Y408320D01*
X296517Y408431D01*
X296565Y408542D01*
X296616Y408651D01*
X296617Y408651D02*
X296638Y408708D01*
X296664Y408764D01*
X296692Y408819D01*
X296724Y408871D01*
X296760Y408922D01*
X296798Y408970D01*
X296839Y409016D01*
X296883Y409059D01*
X296929Y409099D01*
X296978Y409136D01*
X297030Y409170D01*
X297083Y409201D01*
X297138Y409229D01*
X297194Y409253D01*
X297252Y409274D01*
X297311Y409291D01*
X297371Y409304D01*
X297432Y409313D01*
X297494Y409319D01*
X297555Y409321D01*
X297616Y409319D01*
X297678Y409313D01*
X297739Y409304D01*
X297799Y409291D01*
X297858Y409274D01*
X297916Y409253D01*
X297972Y409229D01*
X298027Y409201D01*
X298080Y409170D01*
X298132Y409136D01*
X298181Y409099D01*
X298227Y409059D01*
X298271Y409016D01*
X298312Y408970D01*
X298350Y408922D01*
X298386Y408871D01*
X298418Y408819D01*
X298446Y408764D01*
X298472Y408708D01*
X298493Y408651D01*
X298544Y408542D01*
X298592Y408431D01*
X298636Y408320D01*
X298677Y408207D01*
X298715Y408092D01*
X298749Y407977D01*
X298779Y407861D01*
X298806Y407744D01*
X298830Y407626D01*
X298850Y407507D01*
X298866Y407388D01*
X298879Y407268D01*
X298888Y407148D01*
X298893Y407028D01*
X298895Y406908D01*
X296214Y406908D02*
X296216Y406788D01*
X296221Y406668D01*
X296230Y406548D01*
X296243Y406428D01*
X296259Y406309D01*
X296279Y406190D01*
X296303Y406072D01*
X296330Y405955D01*
X296360Y405839D01*
X296394Y405724D01*
X296432Y405609D01*
X296473Y405496D01*
X296517Y405385D01*
X296565Y405274D01*
X296616Y405165D01*
X296617Y405165D02*
X296638Y405108D01*
X296664Y405052D01*
X296692Y404997D01*
X296724Y404945D01*
X296760Y404894D01*
X296798Y404846D01*
X296839Y404800D01*
X296883Y404757D01*
X296929Y404717D01*
X296978Y404680D01*
X297030Y404646D01*
X297083Y404615D01*
X297138Y404587D01*
X297194Y404563D01*
X297252Y404542D01*
X297311Y404525D01*
X297371Y404512D01*
X297432Y404503D01*
X297494Y404497D01*
X297555Y404495D01*
X298493Y405165D02*
X298544Y405274D01*
X298592Y405385D01*
X298636Y405496D01*
X298677Y405609D01*
X298715Y405724D01*
X298749Y405839D01*
X298779Y405955D01*
X298806Y406072D01*
X298830Y406190D01*
X298850Y406309D01*
X298866Y406428D01*
X298879Y406548D01*
X298888Y406668D01*
X298893Y406788D01*
X298895Y406908D01*
X298493Y405165D02*
X298472Y405108D01*
X298446Y405052D01*
X298418Y404997D01*
X298386Y404945D01*
X298350Y404894D01*
X298312Y404846D01*
X298271Y404800D01*
X298227Y404757D01*
X298180Y404717D01*
X298132Y404680D01*
X298080Y404646D01*
X298027Y404615D01*
X297972Y404587D01*
X297916Y404563D01*
X297858Y404542D01*
X297799Y404525D01*
X297739Y404512D01*
X297678Y404503D01*
X297616Y404497D01*
X297555Y404495D01*
X296482Y405567D02*
X298627Y408249D01*
D10*
X247650Y551100D02*
X241300Y551100D01*
X234950Y551100D01*
X241300Y541100D02*
X247650Y541100D01*
X241300Y541100D02*
X234950Y541100D01*
X241300Y551100D02*
X241300Y581100D01*
X241300Y541100D02*
X241300Y511100D01*
D11*
X256761Y543532D02*
X256761Y544604D01*
X256761Y543532D02*
X256759Y543467D01*
X256753Y543403D01*
X256743Y543339D01*
X256730Y543275D01*
X256712Y543213D01*
X256691Y543152D01*
X256667Y543092D01*
X256638Y543034D01*
X256606Y542977D01*
X256571Y542923D01*
X256533Y542871D01*
X256491Y542821D01*
X256447Y542774D01*
X256400Y542730D01*
X256350Y542688D01*
X256298Y542650D01*
X256244Y542615D01*
X256187Y542583D01*
X256129Y542554D01*
X256069Y542530D01*
X256008Y542509D01*
X255946Y542491D01*
X255882Y542478D01*
X255818Y542468D01*
X255754Y542462D01*
X255689Y542460D01*
X255689Y542459D02*
X253007Y542459D01*
X252942Y542461D01*
X252878Y542467D01*
X252814Y542477D01*
X252750Y542490D01*
X252688Y542508D01*
X252627Y542529D01*
X252567Y542554D01*
X252508Y542582D01*
X252452Y542614D01*
X252397Y542649D01*
X252345Y542687D01*
X252295Y542729D01*
X252248Y542773D01*
X252204Y542820D01*
X252162Y542870D01*
X252124Y542922D01*
X252089Y542977D01*
X252057Y543033D01*
X252029Y543092D01*
X252004Y543151D01*
X251983Y543213D01*
X251965Y543275D01*
X251952Y543339D01*
X251942Y543403D01*
X251936Y543467D01*
X251934Y543532D01*
X251935Y543532D02*
X251935Y544604D01*
X251935Y548132D02*
X255689Y547060D01*
X255689Y549741D01*
X254616Y548937D02*
X256761Y548937D01*
D10*
X273050Y109300D02*
X279400Y109300D01*
X285750Y109300D01*
X279400Y119300D02*
X273050Y119300D01*
X279400Y119300D02*
X285750Y119300D01*
X279400Y109300D02*
X279400Y79300D01*
X279400Y119300D02*
X279400Y149300D01*
D11*
X268765Y112804D02*
X268765Y111732D01*
X268763Y111667D01*
X268757Y111603D01*
X268747Y111539D01*
X268734Y111475D01*
X268716Y111413D01*
X268695Y111352D01*
X268671Y111292D01*
X268642Y111234D01*
X268610Y111177D01*
X268575Y111123D01*
X268537Y111071D01*
X268495Y111021D01*
X268451Y110974D01*
X268404Y110930D01*
X268354Y110888D01*
X268302Y110850D01*
X268248Y110815D01*
X268191Y110783D01*
X268133Y110754D01*
X268073Y110730D01*
X268012Y110709D01*
X267950Y110691D01*
X267886Y110678D01*
X267822Y110668D01*
X267758Y110662D01*
X267693Y110660D01*
X267693Y110659D02*
X265011Y110659D01*
X264946Y110661D01*
X264882Y110667D01*
X264818Y110677D01*
X264754Y110690D01*
X264692Y110708D01*
X264631Y110729D01*
X264571Y110754D01*
X264512Y110782D01*
X264456Y110814D01*
X264401Y110849D01*
X264349Y110887D01*
X264299Y110929D01*
X264252Y110973D01*
X264208Y111020D01*
X264166Y111070D01*
X264128Y111122D01*
X264093Y111177D01*
X264061Y111233D01*
X264033Y111292D01*
X264008Y111351D01*
X263987Y111413D01*
X263969Y111475D01*
X263956Y111539D01*
X263946Y111603D01*
X263940Y111667D01*
X263938Y111732D01*
X263939Y111732D02*
X263939Y112804D01*
X268765Y115260D02*
X268765Y116868D01*
X268763Y116933D01*
X268757Y116997D01*
X268747Y117061D01*
X268734Y117125D01*
X268716Y117187D01*
X268695Y117248D01*
X268671Y117308D01*
X268642Y117366D01*
X268610Y117423D01*
X268575Y117477D01*
X268537Y117529D01*
X268495Y117579D01*
X268451Y117626D01*
X268404Y117670D01*
X268354Y117712D01*
X268302Y117750D01*
X268248Y117785D01*
X268191Y117817D01*
X268133Y117846D01*
X268073Y117870D01*
X268012Y117891D01*
X267950Y117909D01*
X267886Y117922D01*
X267822Y117932D01*
X267758Y117938D01*
X267693Y117940D01*
X267693Y117941D02*
X267156Y117941D01*
X267156Y117940D02*
X267091Y117938D01*
X267027Y117932D01*
X266963Y117922D01*
X266899Y117909D01*
X266837Y117891D01*
X266776Y117870D01*
X266716Y117846D01*
X266658Y117817D01*
X266601Y117785D01*
X266547Y117750D01*
X266495Y117712D01*
X266445Y117670D01*
X266398Y117626D01*
X266354Y117579D01*
X266312Y117529D01*
X266274Y117477D01*
X266239Y117423D01*
X266207Y117366D01*
X266178Y117308D01*
X266154Y117248D01*
X266133Y117187D01*
X266115Y117125D01*
X266102Y117061D01*
X266092Y116997D01*
X266086Y116933D01*
X266084Y116868D01*
X266084Y115260D01*
X263939Y115260D01*
X263939Y117941D01*
D10*
X177800Y109300D02*
X171450Y109300D01*
X177800Y109300D02*
X184150Y109300D01*
X177800Y119300D02*
X171450Y119300D01*
X177800Y119300D02*
X184150Y119300D01*
X177800Y109300D02*
X177800Y79300D01*
X177800Y119300D02*
X177800Y149300D01*
D11*
X167165Y112804D02*
X167165Y111732D01*
X167163Y111667D01*
X167157Y111603D01*
X167147Y111539D01*
X167134Y111475D01*
X167116Y111413D01*
X167095Y111352D01*
X167071Y111292D01*
X167042Y111234D01*
X167010Y111177D01*
X166975Y111123D01*
X166937Y111071D01*
X166895Y111021D01*
X166851Y110974D01*
X166804Y110930D01*
X166754Y110888D01*
X166702Y110850D01*
X166648Y110815D01*
X166591Y110783D01*
X166533Y110754D01*
X166473Y110730D01*
X166412Y110709D01*
X166350Y110691D01*
X166286Y110678D01*
X166222Y110668D01*
X166158Y110662D01*
X166093Y110660D01*
X166093Y110659D02*
X163411Y110659D01*
X163346Y110661D01*
X163282Y110667D01*
X163218Y110677D01*
X163154Y110690D01*
X163092Y110708D01*
X163031Y110729D01*
X162971Y110754D01*
X162912Y110782D01*
X162856Y110814D01*
X162801Y110849D01*
X162749Y110887D01*
X162699Y110929D01*
X162652Y110973D01*
X162608Y111020D01*
X162566Y111070D01*
X162528Y111122D01*
X162493Y111177D01*
X162461Y111233D01*
X162433Y111292D01*
X162408Y111351D01*
X162387Y111413D01*
X162369Y111475D01*
X162356Y111539D01*
X162346Y111603D01*
X162340Y111667D01*
X162338Y111732D01*
X162339Y111732D02*
X162339Y112804D01*
X164484Y115260D02*
X164484Y116868D01*
X164486Y116933D01*
X164492Y116997D01*
X164502Y117061D01*
X164515Y117125D01*
X164533Y117187D01*
X164554Y117248D01*
X164578Y117308D01*
X164607Y117366D01*
X164639Y117423D01*
X164674Y117477D01*
X164712Y117529D01*
X164754Y117579D01*
X164798Y117626D01*
X164845Y117670D01*
X164895Y117712D01*
X164947Y117750D01*
X165001Y117785D01*
X165058Y117817D01*
X165116Y117846D01*
X165176Y117870D01*
X165237Y117891D01*
X165299Y117909D01*
X165363Y117922D01*
X165427Y117932D01*
X165491Y117938D01*
X165556Y117940D01*
X165556Y117941D02*
X165824Y117941D01*
X165895Y117939D01*
X165967Y117933D01*
X166037Y117924D01*
X166107Y117911D01*
X166177Y117894D01*
X166245Y117873D01*
X166312Y117849D01*
X166378Y117821D01*
X166442Y117790D01*
X166505Y117755D01*
X166565Y117717D01*
X166624Y117676D01*
X166680Y117632D01*
X166734Y117585D01*
X166785Y117536D01*
X166833Y117483D01*
X166879Y117428D01*
X166921Y117371D01*
X166961Y117311D01*
X166997Y117250D01*
X167030Y117186D01*
X167059Y117121D01*
X167085Y117055D01*
X167108Y116987D01*
X167127Y116918D01*
X167142Y116848D01*
X167153Y116778D01*
X167161Y116707D01*
X167165Y116636D01*
X167165Y116564D01*
X167161Y116493D01*
X167153Y116422D01*
X167142Y116352D01*
X167127Y116282D01*
X167108Y116213D01*
X167085Y116145D01*
X167059Y116079D01*
X167030Y116014D01*
X166997Y115950D01*
X166961Y115889D01*
X166921Y115829D01*
X166879Y115772D01*
X166833Y115717D01*
X166785Y115664D01*
X166734Y115615D01*
X166680Y115568D01*
X166624Y115524D01*
X166565Y115483D01*
X166505Y115445D01*
X166442Y115410D01*
X166378Y115379D01*
X166312Y115351D01*
X166245Y115327D01*
X166177Y115306D01*
X166107Y115289D01*
X166037Y115276D01*
X165967Y115267D01*
X165895Y115261D01*
X165824Y115259D01*
X165824Y115260D02*
X164484Y115260D01*
X164393Y115262D01*
X164302Y115268D01*
X164212Y115277D01*
X164121Y115291D01*
X164032Y115308D01*
X163944Y115329D01*
X163856Y115354D01*
X163769Y115383D01*
X163684Y115415D01*
X163600Y115450D01*
X163518Y115490D01*
X163438Y115532D01*
X163359Y115578D01*
X163283Y115628D01*
X163209Y115680D01*
X163136Y115736D01*
X163067Y115795D01*
X163000Y115856D01*
X162935Y115921D01*
X162874Y115988D01*
X162815Y116057D01*
X162759Y116129D01*
X162707Y116204D01*
X162657Y116280D01*
X162611Y116359D01*
X162569Y116439D01*
X162529Y116521D01*
X162494Y116605D01*
X162462Y116690D01*
X162433Y116777D01*
X162408Y116864D01*
X162387Y116953D01*
X162370Y117042D01*
X162356Y117132D01*
X162347Y117223D01*
X162341Y117314D01*
X162339Y117405D01*
M02*
