G04 EAGLE Gerber RS-274X export*
G75*
%MOMM*%
%FSLAX34Y34*%
%LPD*%
%INSoldermask Top*%
%IPPOS*%
%AMOC8*
5,1,8,0,0,1.08239X$1,22.5*%
G01*
%ADD10C,2.082800*%
%ADD11C,1.854200*%
%ADD12R,1.727200X0.965200*%
%ADD13R,1.403200X2.703200*%
%ADD14C,1.403200*%
%ADD15R,1.414400X0.704000*%
%ADD16C,0.959600*%


D10*
X482600Y876300D03*
D11*
X901700Y443700D03*
X901700Y343700D03*
X419900Y596900D03*
X519900Y596900D03*
X851700Y673100D03*
X951700Y673100D03*
X558800Y407200D03*
X558800Y507200D03*
X1004100Y520700D03*
X1104100Y520700D03*
D10*
X685800Y876300D03*
D12*
X1349248Y552450D03*
X1349248Y539750D03*
X1349248Y527050D03*
X1349248Y514350D03*
X1349248Y501650D03*
X1349248Y488950D03*
X1349248Y476250D03*
X1349248Y463550D03*
X1444752Y463550D03*
X1444752Y476250D03*
X1444752Y488950D03*
X1444752Y501650D03*
X1444752Y514350D03*
X1444752Y527050D03*
X1444752Y539750D03*
X1444752Y552450D03*
D13*
X140100Y311900D03*
X151100Y246900D03*
X100100Y311900D03*
X70100Y311900D03*
D14*
X54100Y279400D03*
X124100Y279400D03*
D10*
X63500Y736600D03*
X584200Y876300D03*
X1016000Y876300D03*
X889000Y876300D03*
X215900Y736600D03*
X292100Y736600D03*
X1536700Y520700D03*
X1536700Y444500D03*
X1219200Y482600D03*
X1219200Y558800D03*
X558800Y685800D03*
X635000Y685800D03*
X1016000Y419100D03*
X1092200Y419100D03*
X673100Y596900D03*
X749300Y596900D03*
X1320800Y114300D03*
X1397000Y114300D03*
X1295400Y889000D03*
X1371600Y889000D03*
X1036691Y241008D03*
X1046109Y165392D03*
X1536700Y673100D03*
X1536700Y596900D03*
X1028700Y279400D03*
X1104900Y279400D03*
X558800Y76200D03*
X558800Y152400D03*
X63500Y596900D03*
X774700Y876300D03*
X63500Y482600D03*
D15*
X1385500Y288900D03*
X1385500Y279400D03*
X1385500Y269900D03*
X1408500Y269900D03*
X1408500Y288900D03*
D10*
X876300Y114300D03*
X800100Y114300D03*
X254000Y393700D03*
X330200Y393700D03*
D11*
X241300Y596100D03*
X241300Y496100D03*
X279400Y64300D03*
X279400Y164300D03*
X177800Y64300D03*
X177800Y164300D03*
D16*
X742188Y259080D03*
X1162812Y310896D03*
X1380744Y806196D03*
X672084Y320040D03*
X1356360Y641604D03*
X1344168Y653796D03*
M02*
