G04 EAGLE Gerber RS-274X export*
G75*
%MOMM*%
%FSLAX34Y34*%
%LPD*%
%INBottom Copper*%
%IPPOS*%
%AMOC8*
5,1,8,0,0,1.08239X$1,22.5*%
G01*
%ADD10C,1.879600*%
%ADD11C,1.651000*%
%ADD12C,0.152400*%
%ADD13C,0.756400*%

G36*
X1612920Y-758D02*
X1612920Y-758D01*
X1612939Y-760D01*
X1613041Y-738D01*
X1613143Y-722D01*
X1613160Y-712D01*
X1613180Y-708D01*
X1613269Y-655D01*
X1613360Y-606D01*
X1613374Y-592D01*
X1613391Y-582D01*
X1613458Y-503D01*
X1613530Y-428D01*
X1613538Y-410D01*
X1613551Y-395D01*
X1613590Y-299D01*
X1613633Y-205D01*
X1613635Y-185D01*
X1613643Y-167D01*
X1613661Y0D01*
X1613661Y1092200D01*
X1613658Y1092220D01*
X1613660Y1092239D01*
X1613638Y1092341D01*
X1613622Y1092443D01*
X1613612Y1092460D01*
X1613608Y1092480D01*
X1613555Y1092569D01*
X1613506Y1092660D01*
X1613492Y1092674D01*
X1613482Y1092691D01*
X1613403Y1092758D01*
X1613328Y1092830D01*
X1613310Y1092838D01*
X1613295Y1092851D01*
X1613199Y1092890D01*
X1613105Y1092933D01*
X1613085Y1092935D01*
X1613067Y1092943D01*
X1612900Y1092961D01*
X-88900Y1092961D01*
X-88920Y1092958D01*
X-88939Y1092960D01*
X-89041Y1092938D01*
X-89143Y1092922D01*
X-89160Y1092912D01*
X-89180Y1092908D01*
X-89269Y1092855D01*
X-89360Y1092806D01*
X-89374Y1092792D01*
X-89391Y1092782D01*
X-89458Y1092703D01*
X-89530Y1092628D01*
X-89538Y1092610D01*
X-89551Y1092595D01*
X-89590Y1092499D01*
X-89633Y1092405D01*
X-89635Y1092385D01*
X-89643Y1092367D01*
X-89661Y1092200D01*
X-89661Y0D01*
X-89658Y-20D01*
X-89660Y-39D01*
X-89638Y-141D01*
X-89622Y-243D01*
X-89612Y-260D01*
X-89608Y-280D01*
X-89555Y-369D01*
X-89506Y-460D01*
X-89492Y-474D01*
X-89482Y-491D01*
X-89403Y-558D01*
X-89328Y-630D01*
X-89310Y-638D01*
X-89295Y-651D01*
X-89199Y-690D01*
X-89105Y-733D01*
X-89085Y-735D01*
X-89067Y-743D01*
X-88900Y-761D01*
X1612900Y-761D01*
X1612920Y-758D01*
G37*
%LPC*%
G36*
X874127Y103377D02*
X874127Y103377D01*
X870113Y105040D01*
X867040Y108113D01*
X865377Y112127D01*
X865377Y116473D01*
X867040Y120487D01*
X870113Y123560D01*
X874127Y125223D01*
X878473Y125223D01*
X881903Y123802D01*
X882017Y123775D01*
X882130Y123747D01*
X882137Y123747D01*
X882143Y123746D01*
X882259Y123757D01*
X882376Y123766D01*
X882381Y123768D01*
X882388Y123769D01*
X882495Y123817D01*
X882602Y123862D01*
X882608Y123867D01*
X882612Y123869D01*
X882626Y123881D01*
X882733Y123967D01*
X883196Y124430D01*
X883207Y124446D01*
X883223Y124458D01*
X883279Y124546D01*
X883339Y124629D01*
X883345Y124648D01*
X883356Y124665D01*
X883381Y124766D01*
X883412Y124865D01*
X883411Y124884D01*
X883416Y124904D01*
X883408Y125007D01*
X883405Y125110D01*
X883398Y125129D01*
X883397Y125149D01*
X883357Y125244D01*
X883321Y125341D01*
X883308Y125357D01*
X883301Y125375D01*
X883196Y125506D01*
X881672Y127030D01*
X881598Y127083D01*
X881528Y127143D01*
X881498Y127155D01*
X881472Y127174D01*
X881385Y127201D01*
X881300Y127235D01*
X881259Y127239D01*
X881237Y127246D01*
X881205Y127245D01*
X881133Y127253D01*
X878401Y127253D01*
X749045Y256609D01*
X749045Y262389D01*
X749031Y262480D01*
X749023Y262570D01*
X749011Y262600D01*
X749006Y262632D01*
X748963Y262713D01*
X748927Y262797D01*
X748901Y262829D01*
X748890Y262850D01*
X748867Y262872D01*
X748822Y262928D01*
X703364Y308386D01*
X703290Y308439D01*
X703220Y308499D01*
X703190Y308511D01*
X703164Y308530D01*
X703077Y308557D01*
X702992Y308591D01*
X702951Y308595D01*
X702929Y308602D01*
X702897Y308601D01*
X702825Y308609D01*
X697045Y308609D01*
X691172Y314482D01*
X691098Y314535D01*
X691028Y314595D01*
X690998Y314607D01*
X690972Y314626D01*
X690885Y314653D01*
X690800Y314687D01*
X690759Y314691D01*
X690737Y314698D01*
X690705Y314697D01*
X690633Y314705D01*
X677233Y314705D01*
X676282Y315656D01*
X676266Y315668D01*
X676253Y315684D01*
X676166Y315740D01*
X676082Y315800D01*
X676063Y315806D01*
X676046Y315817D01*
X675946Y315842D01*
X675847Y315872D01*
X675827Y315872D01*
X675808Y315877D01*
X675705Y315869D01*
X675601Y315866D01*
X675582Y315859D01*
X675562Y315857D01*
X675468Y315817D01*
X675370Y315781D01*
X675354Y315769D01*
X675336Y315761D01*
X675205Y315656D01*
X674282Y314733D01*
X669886Y314733D01*
X666777Y317842D01*
X666777Y318749D01*
X666763Y318840D01*
X666755Y318930D01*
X666743Y318960D01*
X666738Y318992D01*
X666695Y319073D01*
X666659Y319157D01*
X666633Y319189D01*
X666622Y319210D01*
X666599Y319232D01*
X666554Y319288D01*
X624116Y361726D01*
X624042Y361779D01*
X623972Y361839D01*
X623942Y361851D01*
X623916Y361870D01*
X623829Y361897D01*
X623744Y361931D01*
X623703Y361935D01*
X623681Y361942D01*
X623649Y361941D01*
X623577Y361949D01*
X622369Y361949D01*
X617981Y366337D01*
X617981Y371279D01*
X618266Y371564D01*
X619829Y373127D01*
X622231Y373127D01*
X623571Y371787D01*
X623571Y369893D01*
X623286Y369608D01*
X623232Y369534D01*
X623173Y369464D01*
X623161Y369434D01*
X623142Y369408D01*
X623115Y369321D01*
X623081Y369236D01*
X623077Y369195D01*
X623070Y369173D01*
X623071Y369141D01*
X623063Y369070D01*
X623063Y368877D01*
X623024Y368838D01*
X623013Y368822D01*
X622997Y368810D01*
X622941Y368722D01*
X622881Y368639D01*
X622875Y368620D01*
X622864Y368603D01*
X622839Y368502D01*
X622808Y368403D01*
X622809Y368384D01*
X622804Y368364D01*
X622812Y368261D01*
X622815Y368158D01*
X622822Y368139D01*
X622823Y368119D01*
X622863Y368024D01*
X622899Y367927D01*
X622912Y367911D01*
X622919Y367893D01*
X623024Y367762D01*
X624040Y366746D01*
X624114Y366693D01*
X624184Y366633D01*
X624214Y366621D01*
X624240Y366602D01*
X624327Y366575D01*
X624412Y366541D01*
X624453Y366537D01*
X624475Y366530D01*
X624507Y366531D01*
X624579Y366523D01*
X625787Y366523D01*
X667886Y324424D01*
X667902Y324412D01*
X667915Y324396D01*
X668002Y324340D01*
X668086Y324280D01*
X668105Y324274D01*
X668122Y324263D01*
X668222Y324238D01*
X668321Y324208D01*
X668341Y324208D01*
X668360Y324203D01*
X668463Y324211D01*
X668567Y324214D01*
X668586Y324221D01*
X668606Y324223D01*
X668700Y324263D01*
X668798Y324299D01*
X668814Y324311D01*
X668832Y324319D01*
X668963Y324424D01*
X669886Y325347D01*
X670793Y325347D01*
X670884Y325361D01*
X670974Y325369D01*
X670989Y325375D01*
X673184Y325375D01*
X673208Y325365D01*
X673249Y325361D01*
X673271Y325354D01*
X673303Y325355D01*
X673375Y325347D01*
X674282Y325347D01*
X677391Y322238D01*
X677391Y321331D01*
X677405Y321240D01*
X677413Y321150D01*
X677425Y321120D01*
X677430Y321088D01*
X677473Y321007D01*
X677509Y320923D01*
X677535Y320891D01*
X677546Y320870D01*
X677569Y320848D01*
X677614Y320792D01*
X678904Y319502D01*
X678978Y319449D01*
X679048Y319389D01*
X679078Y319377D01*
X679104Y319358D01*
X679191Y319331D01*
X679276Y319297D01*
X679317Y319293D01*
X679339Y319286D01*
X679371Y319287D01*
X679443Y319279D01*
X698939Y319279D01*
X700279Y317939D01*
X700279Y316045D01*
X698716Y314482D01*
X698705Y314467D01*
X698690Y314455D01*
X698662Y314411D01*
X698625Y314372D01*
X698603Y314325D01*
X698573Y314283D01*
X698567Y314265D01*
X698557Y314249D01*
X698544Y314197D01*
X698521Y314149D01*
X698516Y314097D01*
X698500Y314047D01*
X698501Y314029D01*
X698496Y314010D01*
X698500Y313957D01*
X698494Y313905D01*
X698505Y313853D01*
X698507Y313802D01*
X698513Y313784D01*
X698515Y313765D01*
X698535Y313716D01*
X698546Y313664D01*
X698573Y313619D01*
X698591Y313571D01*
X698603Y313556D01*
X698610Y313538D01*
X698645Y313499D01*
X698673Y313453D01*
X698712Y313419D01*
X698745Y313379D01*
X698761Y313368D01*
X698773Y313354D01*
X698835Y313314D01*
X698860Y313293D01*
X698881Y313285D01*
X698914Y313263D01*
X698934Y313257D01*
X698952Y313246D01*
X699021Y313228D01*
X699088Y313201D01*
X699127Y313197D01*
X699149Y313190D01*
X699170Y313191D01*
X699190Y313185D01*
X699213Y313187D01*
X699255Y313183D01*
X705035Y313183D01*
X753619Y264599D01*
X753619Y258819D01*
X753622Y258801D01*
X753620Y258786D01*
X753634Y258719D01*
X753641Y258638D01*
X753653Y258608D01*
X753658Y258576D01*
X753670Y258554D01*
X753672Y258545D01*
X753695Y258506D01*
X753701Y258495D01*
X753737Y258411D01*
X753763Y258379D01*
X753774Y258358D01*
X753797Y258336D01*
X753798Y258334D01*
X753800Y258333D01*
X753842Y258280D01*
X880072Y132050D01*
X880146Y131997D01*
X880216Y131937D01*
X880246Y131925D01*
X880272Y131906D01*
X880359Y131879D01*
X880444Y131845D01*
X880485Y131841D01*
X880507Y131834D01*
X880539Y131835D01*
X880611Y131827D01*
X883343Y131827D01*
X886430Y128740D01*
X886446Y128729D01*
X886458Y128713D01*
X886546Y128657D01*
X886629Y128597D01*
X886649Y128591D01*
X886665Y128580D01*
X886766Y128555D01*
X886865Y128524D01*
X886885Y128525D01*
X886904Y128520D01*
X887007Y128528D01*
X887110Y128531D01*
X887129Y128538D01*
X887149Y128539D01*
X887244Y128580D01*
X887341Y128615D01*
X887357Y128628D01*
X887375Y128635D01*
X887506Y128740D01*
X887545Y128779D01*
X889439Y128779D01*
X890779Y127439D01*
X890779Y125545D01*
X889478Y124244D01*
X885967Y120733D01*
X885899Y120639D01*
X885829Y120544D01*
X885827Y120538D01*
X885823Y120533D01*
X885789Y120422D01*
X885753Y120310D01*
X885753Y120304D01*
X885751Y120298D01*
X885754Y120181D01*
X885755Y120064D01*
X885757Y120057D01*
X885757Y120052D01*
X885764Y120035D01*
X885802Y119903D01*
X887223Y116473D01*
X887223Y112127D01*
X885560Y108113D01*
X882487Y105040D01*
X878473Y103377D01*
X874127Y103377D01*
G37*
%LPD*%
%LPC*%
G36*
X1318627Y103377D02*
X1318627Y103377D01*
X1314613Y105040D01*
X1311540Y108113D01*
X1309877Y112127D01*
X1309877Y116473D01*
X1311540Y120487D01*
X1314613Y123560D01*
X1318627Y125223D01*
X1322832Y125223D01*
X1322852Y125226D01*
X1322871Y125224D01*
X1322973Y125246D01*
X1323075Y125262D01*
X1323092Y125272D01*
X1323112Y125276D01*
X1323201Y125329D01*
X1323292Y125378D01*
X1323306Y125392D01*
X1323323Y125402D01*
X1323390Y125481D01*
X1323462Y125556D01*
X1323470Y125574D01*
X1323483Y125589D01*
X1323522Y125685D01*
X1323565Y125779D01*
X1323567Y125799D01*
X1323575Y125817D01*
X1323593Y125984D01*
X1323593Y127439D01*
X1324933Y128779D01*
X1326827Y128779D01*
X1338796Y116810D01*
X1338870Y116757D01*
X1338940Y116697D01*
X1338970Y116685D01*
X1338996Y116666D01*
X1339083Y116639D01*
X1339168Y116605D01*
X1339209Y116601D01*
X1339231Y116594D01*
X1339263Y116595D01*
X1339335Y116587D01*
X1385616Y116587D01*
X1385731Y116606D01*
X1385847Y116623D01*
X1385852Y116625D01*
X1385859Y116626D01*
X1385961Y116681D01*
X1386066Y116734D01*
X1386070Y116739D01*
X1386076Y116742D01*
X1386156Y116826D01*
X1386238Y116910D01*
X1386242Y116916D01*
X1386245Y116920D01*
X1386253Y116937D01*
X1386319Y117057D01*
X1387740Y120487D01*
X1390813Y123560D01*
X1394827Y125223D01*
X1399173Y125223D01*
X1403187Y123560D01*
X1406260Y120487D01*
X1407923Y116473D01*
X1407923Y112127D01*
X1406260Y108113D01*
X1403187Y105040D01*
X1399173Y103377D01*
X1394827Y103377D01*
X1390813Y105040D01*
X1387740Y108113D01*
X1386319Y111543D01*
X1386258Y111643D01*
X1386198Y111743D01*
X1386193Y111747D01*
X1386190Y111752D01*
X1386100Y111827D01*
X1386011Y111903D01*
X1386005Y111905D01*
X1386000Y111909D01*
X1385892Y111951D01*
X1385783Y111995D01*
X1385775Y111996D01*
X1385770Y111997D01*
X1385752Y111998D01*
X1385616Y112013D01*
X1337125Y112013D01*
X1333022Y116116D01*
X1332964Y116158D01*
X1332912Y116207D01*
X1332865Y116229D01*
X1332823Y116259D01*
X1332754Y116280D01*
X1332689Y116311D01*
X1332637Y116316D01*
X1332587Y116332D01*
X1332516Y116330D01*
X1332445Y116338D01*
X1332394Y116327D01*
X1332342Y116325D01*
X1332274Y116301D01*
X1332204Y116286D01*
X1332159Y116259D01*
X1332111Y116241D01*
X1332055Y116196D01*
X1331993Y116159D01*
X1331959Y116120D01*
X1331919Y116087D01*
X1331880Y116027D01*
X1331833Y115972D01*
X1331814Y115924D01*
X1331786Y115880D01*
X1331768Y115811D01*
X1331741Y115744D01*
X1331733Y115673D01*
X1331725Y115642D01*
X1331727Y115618D01*
X1331723Y115578D01*
X1331723Y112127D01*
X1330060Y108113D01*
X1326987Y105040D01*
X1322973Y103377D01*
X1318627Y103377D01*
G37*
%LPD*%
%LPC*%
G36*
X120885Y263239D02*
X120885Y263239D01*
X114946Y265700D01*
X110400Y270246D01*
X107939Y276185D01*
X107939Y282615D01*
X110400Y288554D01*
X114946Y293100D01*
X120885Y295561D01*
X127315Y295561D01*
X133254Y293100D01*
X137800Y288554D01*
X140261Y282615D01*
X140261Y276185D01*
X137800Y270246D01*
X133254Y265700D01*
X127315Y263239D01*
X120885Y263239D01*
G37*
%LPD*%
%LPC*%
G36*
X50885Y263239D02*
X50885Y263239D01*
X44946Y265700D01*
X40400Y270246D01*
X37939Y276185D01*
X37939Y282615D01*
X40400Y288554D01*
X44946Y293100D01*
X50885Y295561D01*
X57315Y295561D01*
X63254Y293100D01*
X67800Y288554D01*
X70261Y282615D01*
X70261Y276185D01*
X67800Y270246D01*
X63254Y265700D01*
X57315Y263239D01*
X50885Y263239D01*
G37*
%LPD*%
%LPC*%
G36*
X1013827Y408177D02*
X1013827Y408177D01*
X1009813Y409840D01*
X1006740Y412913D01*
X1005077Y416927D01*
X1005077Y421273D01*
X1006740Y425287D01*
X1009813Y428360D01*
X1013827Y430023D01*
X1018173Y430023D01*
X1022187Y428360D01*
X1025260Y425287D01*
X1026923Y421273D01*
X1026923Y416927D01*
X1025260Y412913D01*
X1022187Y409840D01*
X1018173Y408177D01*
X1013827Y408177D01*
G37*
%LPD*%
%LPC*%
G36*
X328027Y382777D02*
X328027Y382777D01*
X324013Y384440D01*
X320940Y387513D01*
X319277Y391527D01*
X319277Y395873D01*
X320940Y399887D01*
X324013Y402960D01*
X328027Y404623D01*
X332373Y404623D01*
X336387Y402960D01*
X339460Y399887D01*
X341123Y395873D01*
X341123Y391527D01*
X339460Y387513D01*
X336387Y384440D01*
X332373Y382777D01*
X328027Y382777D01*
G37*
%LPD*%
%LPC*%
G36*
X1013827Y865377D02*
X1013827Y865377D01*
X1009813Y867040D01*
X1006740Y870113D01*
X1005077Y874127D01*
X1005077Y878473D01*
X1006740Y882487D01*
X1009813Y885560D01*
X1013827Y887223D01*
X1018173Y887223D01*
X1022187Y885560D01*
X1025260Y882487D01*
X1026923Y878473D01*
X1026923Y874127D01*
X1025260Y870113D01*
X1022187Y867040D01*
X1018173Y865377D01*
X1013827Y865377D01*
G37*
%LPD*%
%LPC*%
G36*
X886827Y865377D02*
X886827Y865377D01*
X882813Y867040D01*
X879740Y870113D01*
X878077Y874127D01*
X878077Y878473D01*
X879740Y882487D01*
X882813Y885560D01*
X886827Y887223D01*
X891173Y887223D01*
X895187Y885560D01*
X898260Y882487D01*
X899923Y878473D01*
X899923Y874127D01*
X898260Y870113D01*
X895187Y867040D01*
X891173Y865377D01*
X886827Y865377D01*
G37*
%LPD*%
%LPC*%
G36*
X772527Y865377D02*
X772527Y865377D01*
X768513Y867040D01*
X765440Y870113D01*
X763777Y874127D01*
X763777Y878473D01*
X765440Y882487D01*
X768513Y885560D01*
X772527Y887223D01*
X776873Y887223D01*
X780887Y885560D01*
X783960Y882487D01*
X785623Y878473D01*
X785623Y874127D01*
X783960Y870113D01*
X780887Y867040D01*
X776873Y865377D01*
X772527Y865377D01*
G37*
%LPD*%
%LPC*%
G36*
X582027Y865377D02*
X582027Y865377D01*
X578013Y867040D01*
X574940Y870113D01*
X573277Y874127D01*
X573277Y878473D01*
X574940Y882487D01*
X578013Y885560D01*
X582027Y887223D01*
X586373Y887223D01*
X590387Y885560D01*
X593460Y882487D01*
X595123Y878473D01*
X595123Y874127D01*
X593460Y870113D01*
X590387Y867040D01*
X586373Y865377D01*
X582027Y865377D01*
G37*
%LPD*%
%LPC*%
G36*
X480427Y865377D02*
X480427Y865377D01*
X476413Y867040D01*
X473340Y870113D01*
X471677Y874127D01*
X471677Y878473D01*
X473340Y882487D01*
X476413Y885560D01*
X480427Y887223D01*
X484773Y887223D01*
X488787Y885560D01*
X491860Y882487D01*
X493523Y878473D01*
X493523Y874127D01*
X491860Y870113D01*
X488787Y867040D01*
X484773Y865377D01*
X480427Y865377D01*
G37*
%LPD*%
%LPC*%
G36*
X1534527Y433577D02*
X1534527Y433577D01*
X1530513Y435240D01*
X1527440Y438313D01*
X1525777Y442327D01*
X1525777Y446673D01*
X1527440Y450687D01*
X1530513Y453760D01*
X1534527Y455423D01*
X1538873Y455423D01*
X1542887Y453760D01*
X1545960Y450687D01*
X1547623Y446673D01*
X1547623Y442327D01*
X1545960Y438313D01*
X1542887Y435240D01*
X1538873Y433577D01*
X1534527Y433577D01*
G37*
%LPD*%
%LPC*%
G36*
X61327Y471677D02*
X61327Y471677D01*
X57313Y473340D01*
X54240Y476413D01*
X52577Y480427D01*
X52577Y484773D01*
X54240Y488787D01*
X57313Y491860D01*
X61327Y493523D01*
X65673Y493523D01*
X69687Y491860D01*
X72760Y488787D01*
X74423Y484773D01*
X74423Y480427D01*
X72760Y476413D01*
X69687Y473340D01*
X65673Y471677D01*
X61327Y471677D01*
G37*
%LPD*%
%LPC*%
G36*
X289927Y725677D02*
X289927Y725677D01*
X285913Y727340D01*
X282840Y730413D01*
X281177Y734427D01*
X281177Y738773D01*
X282840Y742787D01*
X285913Y745860D01*
X289927Y747523D01*
X294273Y747523D01*
X298287Y745860D01*
X301360Y742787D01*
X303023Y738773D01*
X303023Y734427D01*
X301360Y730413D01*
X298287Y727340D01*
X294273Y725677D01*
X289927Y725677D01*
G37*
%LPD*%
%LPC*%
G36*
X213727Y725677D02*
X213727Y725677D01*
X209713Y727340D01*
X206640Y730413D01*
X204977Y734427D01*
X204977Y738773D01*
X206640Y742787D01*
X209713Y745860D01*
X213727Y747523D01*
X218073Y747523D01*
X222087Y745860D01*
X225160Y742787D01*
X226823Y738773D01*
X226823Y734427D01*
X225160Y730413D01*
X222087Y727340D01*
X218073Y725677D01*
X213727Y725677D01*
G37*
%LPD*%
%LPC*%
G36*
X61327Y725677D02*
X61327Y725677D01*
X57313Y727340D01*
X54240Y730413D01*
X52577Y734427D01*
X52577Y738773D01*
X54240Y742787D01*
X57313Y745860D01*
X61327Y747523D01*
X65673Y747523D01*
X69687Y745860D01*
X72760Y742787D01*
X74423Y738773D01*
X74423Y734427D01*
X72760Y730413D01*
X69687Y727340D01*
X65673Y725677D01*
X61327Y725677D01*
G37*
%LPD*%
%LPC*%
G36*
X632827Y674877D02*
X632827Y674877D01*
X628813Y676540D01*
X625740Y679613D01*
X624077Y683627D01*
X624077Y687973D01*
X625740Y691987D01*
X628813Y695060D01*
X632827Y696723D01*
X637173Y696723D01*
X641187Y695060D01*
X644260Y691987D01*
X645923Y687973D01*
X645923Y683627D01*
X644260Y679613D01*
X641187Y676540D01*
X637173Y674877D01*
X632827Y674877D01*
G37*
%LPD*%
%LPC*%
G36*
X556627Y674877D02*
X556627Y674877D01*
X552613Y676540D01*
X549540Y679613D01*
X547877Y683627D01*
X547877Y687973D01*
X549540Y691987D01*
X552613Y695060D01*
X556627Y696723D01*
X560973Y696723D01*
X564987Y695060D01*
X568060Y691987D01*
X569723Y687973D01*
X569723Y683627D01*
X568060Y679613D01*
X564987Y676540D01*
X560973Y674877D01*
X556627Y674877D01*
G37*
%LPD*%
%LPC*%
G36*
X1534527Y662177D02*
X1534527Y662177D01*
X1530513Y663840D01*
X1527440Y666913D01*
X1525777Y670927D01*
X1525777Y675273D01*
X1527440Y679287D01*
X1530513Y682360D01*
X1534527Y684023D01*
X1538873Y684023D01*
X1542887Y682360D01*
X1545960Y679287D01*
X1547623Y675273D01*
X1547623Y670927D01*
X1545960Y666913D01*
X1542887Y663840D01*
X1538873Y662177D01*
X1534527Y662177D01*
G37*
%LPD*%
%LPC*%
G36*
X1369427Y878077D02*
X1369427Y878077D01*
X1365413Y879740D01*
X1362340Y882813D01*
X1360677Y886827D01*
X1360677Y891173D01*
X1362340Y895187D01*
X1365413Y898260D01*
X1369427Y899923D01*
X1373773Y899923D01*
X1377787Y898260D01*
X1380860Y895187D01*
X1382523Y891173D01*
X1382523Y886827D01*
X1380860Y882813D01*
X1377787Y879740D01*
X1373773Y878077D01*
X1369427Y878077D01*
G37*
%LPD*%
%LPC*%
G36*
X1534527Y509777D02*
X1534527Y509777D01*
X1530513Y511440D01*
X1527440Y514513D01*
X1525777Y518527D01*
X1525777Y522873D01*
X1527440Y526887D01*
X1530513Y529960D01*
X1534527Y531623D01*
X1538873Y531623D01*
X1542887Y529960D01*
X1545960Y526887D01*
X1547623Y522873D01*
X1547623Y518527D01*
X1545960Y514513D01*
X1542887Y511440D01*
X1538873Y509777D01*
X1534527Y509777D01*
G37*
%LPD*%
%LPC*%
G36*
X1217027Y547877D02*
X1217027Y547877D01*
X1213013Y549540D01*
X1209940Y552613D01*
X1208277Y556627D01*
X1208277Y560973D01*
X1209940Y564987D01*
X1213013Y568060D01*
X1217027Y569723D01*
X1221373Y569723D01*
X1225387Y568060D01*
X1228460Y564987D01*
X1230123Y560973D01*
X1230123Y556627D01*
X1228460Y552613D01*
X1225387Y549540D01*
X1221373Y547877D01*
X1217027Y547877D01*
G37*
%LPD*%
%LPC*%
G36*
X1217027Y471677D02*
X1217027Y471677D01*
X1213013Y473340D01*
X1209940Y476413D01*
X1208277Y480427D01*
X1208277Y484773D01*
X1209940Y488787D01*
X1213013Y491860D01*
X1217027Y493523D01*
X1221373Y493523D01*
X1225387Y491860D01*
X1228460Y488787D01*
X1230123Y484773D01*
X1230123Y480427D01*
X1228460Y476413D01*
X1225387Y473340D01*
X1221373Y471677D01*
X1217027Y471677D01*
G37*
%LPD*%
%LPC*%
G36*
X1102727Y268477D02*
X1102727Y268477D01*
X1098713Y270140D01*
X1095640Y273213D01*
X1093977Y277227D01*
X1093977Y281573D01*
X1095640Y285587D01*
X1098713Y288660D01*
X1102727Y290323D01*
X1107073Y290323D01*
X1111087Y288660D01*
X1114160Y285587D01*
X1115823Y281573D01*
X1115823Y277227D01*
X1114160Y273213D01*
X1111087Y270140D01*
X1107073Y268477D01*
X1102727Y268477D01*
G37*
%LPD*%
%LPC*%
G36*
X1534527Y585977D02*
X1534527Y585977D01*
X1530513Y587640D01*
X1527440Y590713D01*
X1525777Y594727D01*
X1525777Y599073D01*
X1527440Y603087D01*
X1530513Y606160D01*
X1534527Y607823D01*
X1538873Y607823D01*
X1542887Y606160D01*
X1545960Y603087D01*
X1547623Y599073D01*
X1547623Y594727D01*
X1545960Y590713D01*
X1542887Y587640D01*
X1538873Y585977D01*
X1534527Y585977D01*
G37*
%LPD*%
%LPC*%
G36*
X670927Y585977D02*
X670927Y585977D01*
X666913Y587640D01*
X663840Y590713D01*
X662177Y594727D01*
X662177Y599073D01*
X663840Y603087D01*
X666913Y606160D01*
X670927Y607823D01*
X675273Y607823D01*
X679287Y606160D01*
X682360Y603087D01*
X684023Y599073D01*
X684023Y594727D01*
X682360Y590713D01*
X679287Y587640D01*
X675273Y585977D01*
X670927Y585977D01*
G37*
%LPD*%
%LPC*%
G36*
X61327Y585977D02*
X61327Y585977D01*
X57313Y587640D01*
X54240Y590713D01*
X52577Y594727D01*
X52577Y599073D01*
X54240Y603087D01*
X57313Y606160D01*
X61327Y607823D01*
X65673Y607823D01*
X69687Y606160D01*
X72760Y603087D01*
X74423Y599073D01*
X74423Y594727D01*
X72760Y590713D01*
X69687Y587640D01*
X65673Y585977D01*
X61327Y585977D01*
G37*
%LPD*%
%LPC*%
G36*
X1090027Y408177D02*
X1090027Y408177D01*
X1086013Y409840D01*
X1082940Y412913D01*
X1081277Y416927D01*
X1081277Y421273D01*
X1082940Y425287D01*
X1086013Y428360D01*
X1090027Y430023D01*
X1094373Y430023D01*
X1098387Y428360D01*
X1101460Y425287D01*
X1103123Y421273D01*
X1103123Y416927D01*
X1101460Y412913D01*
X1098387Y409840D01*
X1094373Y408177D01*
X1090027Y408177D01*
G37*
%LPD*%
%LPC*%
G36*
X1043937Y154469D02*
X1043937Y154469D01*
X1039922Y156132D01*
X1036849Y159205D01*
X1035186Y163219D01*
X1035186Y167565D01*
X1036849Y171579D01*
X1039922Y174652D01*
X1043937Y176315D01*
X1048282Y176315D01*
X1052296Y174652D01*
X1055369Y171579D01*
X1057032Y167565D01*
X1057032Y163219D01*
X1055369Y159205D01*
X1052296Y156132D01*
X1048282Y154469D01*
X1043937Y154469D01*
G37*
%LPD*%
%LPC*%
G36*
X556627Y141477D02*
X556627Y141477D01*
X552613Y143140D01*
X549540Y146213D01*
X547877Y150227D01*
X547877Y154573D01*
X549540Y158587D01*
X552613Y161660D01*
X556627Y163323D01*
X560973Y163323D01*
X564987Y161660D01*
X568060Y158587D01*
X569723Y154573D01*
X569723Y150227D01*
X568060Y146213D01*
X564987Y143140D01*
X560973Y141477D01*
X556627Y141477D01*
G37*
%LPD*%
%LPC*%
G36*
X1293227Y878077D02*
X1293227Y878077D01*
X1289213Y879740D01*
X1286140Y882813D01*
X1284477Y886827D01*
X1284477Y891173D01*
X1286140Y895187D01*
X1289213Y898260D01*
X1293227Y899923D01*
X1297573Y899923D01*
X1301587Y898260D01*
X1304660Y895187D01*
X1306323Y891173D01*
X1306323Y886827D01*
X1304660Y882813D01*
X1301587Y879740D01*
X1297573Y878077D01*
X1293227Y878077D01*
G37*
%LPD*%
%LPC*%
G36*
X797927Y103377D02*
X797927Y103377D01*
X793913Y105040D01*
X790840Y108113D01*
X789177Y112127D01*
X789177Y116473D01*
X790840Y120487D01*
X793913Y123560D01*
X797927Y125223D01*
X802273Y125223D01*
X806287Y123560D01*
X809360Y120487D01*
X811023Y116473D01*
X811023Y112127D01*
X809360Y108113D01*
X806287Y105040D01*
X802273Y103377D01*
X797927Y103377D01*
G37*
%LPD*%
%LPC*%
G36*
X556627Y65277D02*
X556627Y65277D01*
X552613Y66940D01*
X549540Y70013D01*
X547877Y74027D01*
X547877Y78373D01*
X549540Y82387D01*
X552613Y85460D01*
X556627Y87123D01*
X560973Y87123D01*
X564987Y85460D01*
X568060Y82387D01*
X569723Y78373D01*
X569723Y74027D01*
X568060Y70013D01*
X564987Y66940D01*
X560973Y65277D01*
X556627Y65277D01*
G37*
%LPD*%
%LPC*%
G36*
X277455Y54520D02*
X277455Y54520D01*
X273860Y56009D01*
X271109Y58760D01*
X269620Y62355D01*
X269620Y66245D01*
X271109Y69840D01*
X273860Y72591D01*
X277455Y74080D01*
X281345Y74080D01*
X284940Y72591D01*
X287691Y69840D01*
X288333Y68289D01*
X288395Y68189D01*
X288455Y68089D01*
X288460Y68085D01*
X288463Y68080D01*
X288553Y68005D01*
X288642Y67929D01*
X288648Y67927D01*
X288652Y67923D01*
X288760Y67881D01*
X288870Y67837D01*
X288877Y67836D01*
X288882Y67835D01*
X288900Y67834D01*
X289037Y67819D01*
X290507Y67819D01*
X291847Y66479D01*
X291847Y64585D01*
X290507Y63245D01*
X289941Y63245D01*
X289921Y63242D01*
X289902Y63244D01*
X289800Y63222D01*
X289698Y63206D01*
X289681Y63196D01*
X289661Y63192D01*
X289572Y63139D01*
X289481Y63090D01*
X289467Y63076D01*
X289450Y63066D01*
X289383Y62987D01*
X289311Y62912D01*
X289303Y62894D01*
X289290Y62879D01*
X289251Y62783D01*
X289208Y62689D01*
X289206Y62669D01*
X289198Y62651D01*
X289180Y62484D01*
X289180Y62355D01*
X287691Y58760D01*
X284940Y56009D01*
X281345Y54520D01*
X277455Y54520D01*
G37*
%LPD*%
%LPC*%
G36*
X517955Y587120D02*
X517955Y587120D01*
X514360Y588609D01*
X511609Y591360D01*
X510120Y594955D01*
X510120Y598845D01*
X511609Y602440D01*
X514360Y605191D01*
X517955Y606680D01*
X521845Y606680D01*
X525440Y605191D01*
X528191Y602440D01*
X529680Y598845D01*
X529680Y594955D01*
X528191Y591360D01*
X525440Y588609D01*
X521845Y587120D01*
X517955Y587120D01*
G37*
%LPD*%
%LPC*%
G36*
X1102155Y510920D02*
X1102155Y510920D01*
X1098560Y512409D01*
X1095809Y515160D01*
X1094320Y518755D01*
X1094320Y522645D01*
X1095809Y526240D01*
X1098560Y528991D01*
X1102155Y530480D01*
X1106045Y530480D01*
X1109640Y528991D01*
X1112391Y526240D01*
X1113880Y522645D01*
X1113880Y518755D01*
X1112391Y515160D01*
X1109640Y512409D01*
X1106045Y510920D01*
X1102155Y510920D01*
G37*
%LPD*%
%LPC*%
G36*
X949755Y663320D02*
X949755Y663320D01*
X946160Y664809D01*
X943409Y667560D01*
X941920Y671155D01*
X941920Y675045D01*
X943409Y678640D01*
X946160Y681391D01*
X949755Y682880D01*
X953645Y682880D01*
X957240Y681391D01*
X959991Y678640D01*
X961480Y675045D01*
X961480Y671155D01*
X959991Y667560D01*
X957240Y664809D01*
X953645Y663320D01*
X949755Y663320D01*
G37*
%LPD*%
%LPC*%
G36*
X1002155Y510920D02*
X1002155Y510920D01*
X998560Y512409D01*
X995809Y515160D01*
X994320Y518755D01*
X994320Y522645D01*
X995809Y526240D01*
X998560Y528991D01*
X1002155Y530480D01*
X1006045Y530480D01*
X1009640Y528991D01*
X1012391Y526240D01*
X1013880Y522645D01*
X1013880Y518755D01*
X1012391Y515160D01*
X1009640Y512409D01*
X1006045Y510920D01*
X1002155Y510920D01*
G37*
%LPD*%
%LPC*%
G36*
X899755Y433920D02*
X899755Y433920D01*
X896160Y435409D01*
X893409Y438160D01*
X891920Y441755D01*
X891920Y445645D01*
X893409Y449240D01*
X896160Y451991D01*
X899755Y453480D01*
X903645Y453480D01*
X907240Y451991D01*
X909991Y449240D01*
X911480Y445645D01*
X911480Y441755D01*
X909991Y438160D01*
X907240Y435409D01*
X903645Y433920D01*
X899755Y433920D01*
G37*
%LPD*%
%LPC*%
G36*
X556855Y397420D02*
X556855Y397420D01*
X553260Y398909D01*
X550509Y401660D01*
X549020Y405255D01*
X549020Y409145D01*
X550509Y412740D01*
X553260Y415491D01*
X556855Y416980D01*
X560745Y416980D01*
X564340Y415491D01*
X567091Y412740D01*
X568580Y409145D01*
X568580Y405255D01*
X567091Y401660D01*
X564340Y398909D01*
X560745Y397420D01*
X556855Y397420D01*
G37*
%LPD*%
%LPC*%
G36*
X417955Y587120D02*
X417955Y587120D01*
X414360Y588609D01*
X411609Y591360D01*
X410120Y594955D01*
X410120Y598845D01*
X411609Y602440D01*
X414360Y605191D01*
X417955Y606680D01*
X421845Y606680D01*
X425440Y605191D01*
X428191Y602440D01*
X429680Y598845D01*
X429680Y594955D01*
X428191Y591360D01*
X425440Y588609D01*
X421845Y587120D01*
X417955Y587120D01*
G37*
%LPD*%
%LPC*%
G36*
X849755Y663320D02*
X849755Y663320D01*
X846160Y664809D01*
X843409Y667560D01*
X841920Y671155D01*
X841920Y675045D01*
X843409Y678640D01*
X846160Y681391D01*
X849755Y682880D01*
X853645Y682880D01*
X857240Y681391D01*
X859991Y678640D01*
X861480Y675045D01*
X861480Y671155D01*
X859991Y667560D01*
X857240Y664809D01*
X853645Y663320D01*
X849755Y663320D01*
G37*
%LPD*%
%LPC*%
G36*
X239355Y586320D02*
X239355Y586320D01*
X235760Y587809D01*
X233009Y590560D01*
X231520Y594155D01*
X231520Y598045D01*
X233009Y601640D01*
X235760Y604391D01*
X239355Y605880D01*
X243245Y605880D01*
X246840Y604391D01*
X249591Y601640D01*
X251080Y598045D01*
X251080Y594155D01*
X249591Y590560D01*
X246840Y587809D01*
X243245Y586320D01*
X239355Y586320D01*
G37*
%LPD*%
%LPC*%
G36*
X175855Y54520D02*
X175855Y54520D01*
X172260Y56009D01*
X169509Y58760D01*
X168020Y62355D01*
X168020Y66245D01*
X169509Y69840D01*
X172260Y72591D01*
X175855Y74080D01*
X179745Y74080D01*
X183340Y72591D01*
X186091Y69840D01*
X187580Y66245D01*
X187580Y62355D01*
X186091Y58760D01*
X183340Y56009D01*
X179745Y54520D01*
X175855Y54520D01*
G37*
%LPD*%
%LPC*%
G36*
X1354162Y636297D02*
X1354162Y636297D01*
X1351053Y639406D01*
X1351053Y643361D01*
X1351039Y643452D01*
X1351031Y643542D01*
X1351019Y643572D01*
X1351014Y643604D01*
X1350971Y643685D01*
X1350935Y643769D01*
X1350909Y643801D01*
X1350898Y643822D01*
X1350875Y643844D01*
X1350830Y643900D01*
X1346464Y648266D01*
X1346390Y648319D01*
X1346320Y648379D01*
X1346290Y648391D01*
X1346264Y648410D01*
X1346177Y648437D01*
X1346092Y648471D01*
X1346051Y648475D01*
X1346029Y648482D01*
X1345997Y648481D01*
X1345925Y648489D01*
X1341970Y648489D01*
X1338861Y651598D01*
X1338861Y655994D01*
X1341970Y659103D01*
X1346366Y659103D01*
X1349475Y655994D01*
X1349475Y652039D01*
X1349489Y651948D01*
X1349497Y651858D01*
X1349509Y651828D01*
X1349514Y651796D01*
X1349557Y651715D01*
X1349593Y651631D01*
X1349619Y651599D01*
X1349630Y651578D01*
X1349653Y651556D01*
X1349698Y651500D01*
X1354064Y647134D01*
X1354138Y647081D01*
X1354208Y647021D01*
X1354238Y647009D01*
X1354264Y646990D01*
X1354351Y646963D01*
X1354436Y646929D01*
X1354477Y646925D01*
X1354499Y646918D01*
X1354531Y646919D01*
X1354603Y646911D01*
X1358558Y646911D01*
X1361667Y643802D01*
X1361667Y639406D01*
X1358558Y636297D01*
X1354162Y636297D01*
G37*
%LPD*%
%LPC*%
G36*
X1378546Y800889D02*
X1378546Y800889D01*
X1375437Y803998D01*
X1375437Y808394D01*
X1378546Y811503D01*
X1382942Y811503D01*
X1386051Y808394D01*
X1386051Y803998D01*
X1382942Y800889D01*
X1378546Y800889D01*
G37*
%LPD*%
%LPC*%
G36*
X739990Y253773D02*
X739990Y253773D01*
X736881Y256882D01*
X736881Y261278D01*
X739990Y264387D01*
X744386Y264387D01*
X747495Y261278D01*
X747495Y256882D01*
X744386Y253773D01*
X739990Y253773D01*
G37*
%LPD*%
%LPC*%
G36*
X1036739Y252947D02*
X1036739Y252947D01*
X1037630Y252947D01*
X1039486Y252653D01*
X1041274Y252072D01*
X1042948Y251219D01*
X1044468Y250114D01*
X1045797Y248786D01*
X1046902Y247265D01*
X1047755Y245591D01*
X1048276Y243986D01*
X1038014Y242708D01*
X1036739Y252947D01*
G37*
%LPD*%
%LPC*%
G36*
X1024752Y241947D02*
X1024752Y241947D01*
X1025046Y243803D01*
X1025627Y245591D01*
X1026480Y247265D01*
X1027585Y248786D01*
X1028913Y250114D01*
X1030434Y251219D01*
X1032108Y252072D01*
X1033713Y252593D01*
X1034991Y242331D01*
X1024752Y241056D01*
X1024752Y241947D01*
G37*
%LPD*%
%LPC*%
G36*
X1038391Y239685D02*
X1038391Y239685D01*
X1048630Y240960D01*
X1048630Y240068D01*
X1048336Y238212D01*
X1047755Y236425D01*
X1046902Y234751D01*
X1045797Y233230D01*
X1044468Y231902D01*
X1042948Y230797D01*
X1041274Y229944D01*
X1039669Y229422D01*
X1038391Y239685D01*
G37*
%LPD*%
%LPC*%
G36*
X1035751Y229069D02*
X1035751Y229069D01*
X1033895Y229363D01*
X1032108Y229944D01*
X1030434Y230797D01*
X1028913Y231902D01*
X1027585Y233230D01*
X1026480Y234751D01*
X1025627Y236425D01*
X1025105Y238030D01*
X1035367Y239308D01*
X1036643Y229069D01*
X1035751Y229069D01*
G37*
%LPD*%
%LPC*%
G36*
X255523Y395223D02*
X255523Y395223D01*
X255523Y405546D01*
X256796Y405345D01*
X258583Y404764D01*
X260257Y403911D01*
X261778Y402806D01*
X263106Y401478D01*
X264211Y399957D01*
X265064Y398283D01*
X265645Y396496D01*
X265846Y395223D01*
X255523Y395223D01*
G37*
%LPD*%
%LPC*%
G36*
X687323Y877823D02*
X687323Y877823D01*
X687323Y888146D01*
X688596Y887945D01*
X690383Y887364D01*
X692057Y886511D01*
X693578Y885406D01*
X694906Y884078D01*
X696011Y882557D01*
X696864Y880883D01*
X697445Y879096D01*
X697646Y877823D01*
X687323Y877823D01*
G37*
%LPD*%
%LPC*%
G36*
X750823Y598423D02*
X750823Y598423D01*
X750823Y608746D01*
X752096Y608545D01*
X753883Y607964D01*
X755557Y607111D01*
X757078Y606006D01*
X758406Y604678D01*
X759511Y603157D01*
X760364Y601483D01*
X760945Y599696D01*
X761146Y598423D01*
X750823Y598423D01*
G37*
%LPD*%
%LPC*%
G36*
X1030223Y280923D02*
X1030223Y280923D01*
X1030223Y291246D01*
X1031496Y291045D01*
X1033283Y290464D01*
X1034957Y289611D01*
X1036478Y288506D01*
X1037806Y287178D01*
X1038911Y285657D01*
X1039764Y283983D01*
X1040345Y282196D01*
X1040546Y280923D01*
X1030223Y280923D01*
G37*
%LPD*%
%LPC*%
G36*
X750823Y595377D02*
X750823Y595377D01*
X761146Y595377D01*
X760945Y594104D01*
X760364Y592317D01*
X759511Y590643D01*
X758406Y589122D01*
X757078Y587794D01*
X755557Y586689D01*
X753883Y585836D01*
X752096Y585255D01*
X750823Y585054D01*
X750823Y595377D01*
G37*
%LPD*%
%LPC*%
G36*
X737454Y598423D02*
X737454Y598423D01*
X737655Y599696D01*
X738236Y601483D01*
X739089Y603157D01*
X740194Y604678D01*
X741522Y606006D01*
X743043Y607111D01*
X744717Y607964D01*
X746504Y608545D01*
X747777Y608746D01*
X747777Y598423D01*
X737454Y598423D01*
G37*
%LPD*%
%LPC*%
G36*
X242154Y395223D02*
X242154Y395223D01*
X242355Y396496D01*
X242936Y398283D01*
X243789Y399957D01*
X244894Y401478D01*
X246222Y402806D01*
X247743Y403911D01*
X249417Y404764D01*
X251204Y405345D01*
X252477Y405546D01*
X252477Y395223D01*
X242154Y395223D01*
G37*
%LPD*%
%LPC*%
G36*
X255523Y392177D02*
X255523Y392177D01*
X265846Y392177D01*
X265645Y390904D01*
X265064Y389117D01*
X264211Y387443D01*
X263106Y385922D01*
X261778Y384594D01*
X260257Y383489D01*
X258583Y382636D01*
X256796Y382055D01*
X255523Y381854D01*
X255523Y392177D01*
G37*
%LPD*%
%LPC*%
G36*
X1016854Y280923D02*
X1016854Y280923D01*
X1017055Y282196D01*
X1017636Y283983D01*
X1018489Y285657D01*
X1019594Y287178D01*
X1020922Y288506D01*
X1022443Y289611D01*
X1024117Y290464D01*
X1025904Y291045D01*
X1027177Y291246D01*
X1027177Y280923D01*
X1016854Y280923D01*
G37*
%LPD*%
%LPC*%
G36*
X1030223Y277877D02*
X1030223Y277877D01*
X1040546Y277877D01*
X1040345Y276604D01*
X1039764Y274817D01*
X1038911Y273143D01*
X1037806Y271622D01*
X1036478Y270294D01*
X1034957Y269189D01*
X1033283Y268336D01*
X1031496Y267755D01*
X1030223Y267554D01*
X1030223Y277877D01*
G37*
%LPD*%
%LPC*%
G36*
X673954Y877823D02*
X673954Y877823D01*
X674155Y879096D01*
X674736Y880883D01*
X675589Y882557D01*
X676694Y884078D01*
X678022Y885406D01*
X679543Y886511D01*
X681217Y887364D01*
X683004Y887945D01*
X684277Y888146D01*
X684277Y877823D01*
X673954Y877823D01*
G37*
%LPD*%
%LPC*%
G36*
X687323Y874777D02*
X687323Y874777D01*
X697646Y874777D01*
X697445Y873504D01*
X696864Y871717D01*
X696011Y870043D01*
X694906Y868522D01*
X693578Y867194D01*
X692057Y866089D01*
X690383Y865236D01*
X688596Y864655D01*
X687323Y864454D01*
X687323Y874777D01*
G37*
%LPD*%
%LPC*%
G36*
X746504Y585255D02*
X746504Y585255D01*
X744717Y585836D01*
X743043Y586689D01*
X741522Y587794D01*
X740194Y589122D01*
X739089Y590643D01*
X738236Y592317D01*
X737655Y594104D01*
X737454Y595377D01*
X747777Y595377D01*
X747777Y585054D01*
X746504Y585255D01*
G37*
%LPD*%
%LPC*%
G36*
X683004Y864655D02*
X683004Y864655D01*
X681217Y865236D01*
X679543Y866089D01*
X678022Y867194D01*
X676694Y868522D01*
X675589Y870043D01*
X674736Y871717D01*
X674155Y873504D01*
X673954Y874777D01*
X684277Y874777D01*
X684277Y864454D01*
X683004Y864655D01*
G37*
%LPD*%
%LPC*%
G36*
X1025904Y267755D02*
X1025904Y267755D01*
X1024117Y268336D01*
X1022443Y269189D01*
X1020922Y270294D01*
X1019594Y271622D01*
X1018489Y273143D01*
X1017636Y274817D01*
X1017055Y276604D01*
X1016854Y277877D01*
X1027177Y277877D01*
X1027177Y267554D01*
X1025904Y267755D01*
G37*
%LPD*%
%LPC*%
G36*
X251204Y382055D02*
X251204Y382055D01*
X249417Y382636D01*
X247743Y383489D01*
X246222Y384594D01*
X244894Y385922D01*
X243789Y387443D01*
X242936Y389117D01*
X242355Y390904D01*
X242154Y392177D01*
X252477Y392177D01*
X252477Y381854D01*
X251204Y382055D01*
G37*
%LPD*%
%LPC*%
G36*
X560323Y508723D02*
X560323Y508723D01*
X560323Y517889D01*
X561328Y517730D01*
X562944Y517205D01*
X564458Y516433D01*
X565833Y515434D01*
X567034Y514233D01*
X568033Y512858D01*
X568805Y511344D01*
X569330Y509728D01*
X569489Y508723D01*
X560323Y508723D01*
G37*
%LPD*%
%LPC*%
G36*
X179323Y165823D02*
X179323Y165823D01*
X179323Y174989D01*
X180328Y174830D01*
X181944Y174305D01*
X183458Y173533D01*
X184833Y172534D01*
X186034Y171333D01*
X187033Y169958D01*
X187805Y168444D01*
X188330Y166828D01*
X188489Y165823D01*
X179323Y165823D01*
G37*
%LPD*%
%LPC*%
G36*
X242823Y497623D02*
X242823Y497623D01*
X242823Y506789D01*
X243828Y506630D01*
X245444Y506105D01*
X246958Y505333D01*
X248333Y504334D01*
X249534Y503133D01*
X250533Y501758D01*
X251305Y500244D01*
X251830Y498628D01*
X251989Y497623D01*
X242823Y497623D01*
G37*
%LPD*%
%LPC*%
G36*
X280923Y165823D02*
X280923Y165823D01*
X280923Y174989D01*
X281928Y174830D01*
X283544Y174305D01*
X285058Y173533D01*
X286433Y172534D01*
X287634Y171333D01*
X288633Y169958D01*
X289405Y168444D01*
X289930Y166828D01*
X290089Y165823D01*
X280923Y165823D01*
G37*
%LPD*%
%LPC*%
G36*
X903223Y345223D02*
X903223Y345223D01*
X903223Y354389D01*
X904228Y354230D01*
X905844Y353705D01*
X907358Y352933D01*
X908733Y351934D01*
X909934Y350733D01*
X910933Y349358D01*
X911705Y347844D01*
X912230Y346228D01*
X912389Y345223D01*
X903223Y345223D01*
G37*
%LPD*%
%LPC*%
G36*
X268711Y165823D02*
X268711Y165823D01*
X268870Y166828D01*
X269395Y168444D01*
X270167Y169958D01*
X271166Y171333D01*
X272367Y172534D01*
X273742Y173533D01*
X275256Y174305D01*
X276872Y174830D01*
X277877Y174989D01*
X277877Y165823D01*
X268711Y165823D01*
G37*
%LPD*%
%LPC*%
G36*
X903223Y342177D02*
X903223Y342177D01*
X912389Y342177D01*
X912230Y341172D01*
X911705Y339556D01*
X910933Y338042D01*
X909934Y336667D01*
X908733Y335466D01*
X907358Y334467D01*
X905844Y333695D01*
X904228Y333170D01*
X903223Y333011D01*
X903223Y342177D01*
G37*
%LPD*%
%LPC*%
G36*
X548111Y508723D02*
X548111Y508723D01*
X548270Y509728D01*
X548795Y511344D01*
X549567Y512858D01*
X550566Y514233D01*
X551767Y515434D01*
X553142Y516433D01*
X554656Y517205D01*
X556272Y517730D01*
X557277Y517889D01*
X557277Y508723D01*
X548111Y508723D01*
G37*
%LPD*%
%LPC*%
G36*
X230611Y497623D02*
X230611Y497623D01*
X230770Y498628D01*
X231295Y500244D01*
X232067Y501758D01*
X233066Y503133D01*
X234267Y504334D01*
X235642Y505333D01*
X237156Y506105D01*
X238772Y506630D01*
X239777Y506789D01*
X239777Y497623D01*
X230611Y497623D01*
G37*
%LPD*%
%LPC*%
G36*
X560323Y505677D02*
X560323Y505677D01*
X569489Y505677D01*
X569330Y504672D01*
X568805Y503056D01*
X568033Y501542D01*
X567034Y500167D01*
X565833Y498966D01*
X564458Y497967D01*
X562944Y497195D01*
X561328Y496670D01*
X560323Y496511D01*
X560323Y505677D01*
G37*
%LPD*%
%LPC*%
G36*
X167111Y165823D02*
X167111Y165823D01*
X167270Y166828D01*
X167795Y168444D01*
X168567Y169958D01*
X169566Y171333D01*
X170767Y172534D01*
X172142Y173533D01*
X173656Y174305D01*
X175272Y174830D01*
X176277Y174989D01*
X176277Y165823D01*
X167111Y165823D01*
G37*
%LPD*%
%LPC*%
G36*
X242823Y494577D02*
X242823Y494577D01*
X251989Y494577D01*
X251830Y493572D01*
X251305Y491956D01*
X250533Y490442D01*
X249534Y489067D01*
X248333Y487866D01*
X246958Y486867D01*
X245444Y486095D01*
X243828Y485570D01*
X242823Y485411D01*
X242823Y494577D01*
G37*
%LPD*%
%LPC*%
G36*
X280923Y162777D02*
X280923Y162777D01*
X290089Y162777D01*
X289930Y161772D01*
X289405Y160156D01*
X288633Y158642D01*
X287634Y157267D01*
X286433Y156066D01*
X285058Y155067D01*
X283544Y154295D01*
X281928Y153770D01*
X280923Y153611D01*
X280923Y162777D01*
G37*
%LPD*%
%LPC*%
G36*
X179323Y162777D02*
X179323Y162777D01*
X188489Y162777D01*
X188330Y161772D01*
X187805Y160156D01*
X187033Y158642D01*
X186034Y157267D01*
X184833Y156066D01*
X183458Y155067D01*
X181944Y154295D01*
X180328Y153770D01*
X179323Y153611D01*
X179323Y162777D01*
G37*
%LPD*%
%LPC*%
G36*
X891011Y345223D02*
X891011Y345223D01*
X891170Y346228D01*
X891695Y347844D01*
X892467Y349358D01*
X893466Y350733D01*
X894667Y351934D01*
X896042Y352933D01*
X897556Y353705D01*
X899172Y354230D01*
X900177Y354389D01*
X900177Y345223D01*
X891011Y345223D01*
G37*
%LPD*%
%LPC*%
G36*
X899172Y333170D02*
X899172Y333170D01*
X897556Y333695D01*
X896042Y334467D01*
X894667Y335466D01*
X893466Y336667D01*
X892467Y338042D01*
X891695Y339556D01*
X891170Y341172D01*
X891011Y342177D01*
X900177Y342177D01*
X900177Y333011D01*
X899172Y333170D01*
G37*
%LPD*%
%LPC*%
G36*
X238772Y485570D02*
X238772Y485570D01*
X237156Y486095D01*
X235642Y486867D01*
X234267Y487866D01*
X233066Y489067D01*
X232067Y490442D01*
X231295Y491956D01*
X230770Y493572D01*
X230611Y494577D01*
X239777Y494577D01*
X239777Y485411D01*
X238772Y485570D01*
G37*
%LPD*%
%LPC*%
G36*
X556272Y496670D02*
X556272Y496670D01*
X554656Y497195D01*
X553142Y497967D01*
X551767Y498966D01*
X550566Y500167D01*
X549567Y501542D01*
X548795Y503056D01*
X548270Y504672D01*
X548111Y505677D01*
X557277Y505677D01*
X557277Y496511D01*
X556272Y496670D01*
G37*
%LPD*%
%LPC*%
G36*
X276872Y153770D02*
X276872Y153770D01*
X275256Y154295D01*
X273742Y155067D01*
X272367Y156066D01*
X271166Y157267D01*
X270167Y158642D01*
X269395Y160156D01*
X268870Y161772D01*
X268711Y162777D01*
X277877Y162777D01*
X277877Y153611D01*
X276872Y153770D01*
G37*
%LPD*%
%LPC*%
G36*
X175272Y153770D02*
X175272Y153770D01*
X173656Y154295D01*
X172142Y155067D01*
X170767Y156066D01*
X169566Y157267D01*
X168567Y158642D01*
X167795Y160156D01*
X167270Y161772D01*
X167111Y162777D01*
X176277Y162777D01*
X176277Y153611D01*
X175272Y153770D01*
G37*
%LPD*%
%LPC*%
G36*
X901699Y343699D02*
X901699Y343699D01*
X901699Y343701D01*
X901701Y343701D01*
X901701Y343699D01*
X901699Y343699D01*
G37*
%LPD*%
%LPC*%
G36*
X241299Y496099D02*
X241299Y496099D01*
X241299Y496101D01*
X241301Y496101D01*
X241301Y496099D01*
X241299Y496099D01*
G37*
%LPD*%
%LPC*%
G36*
X749299Y596899D02*
X749299Y596899D01*
X749299Y596901D01*
X749301Y596901D01*
X749301Y596899D01*
X749299Y596899D01*
G37*
%LPD*%
%LPC*%
G36*
X1028699Y279399D02*
X1028699Y279399D01*
X1028699Y279401D01*
X1028701Y279401D01*
X1028701Y279399D01*
X1028699Y279399D01*
G37*
%LPD*%
%LPC*%
G36*
X279399Y164299D02*
X279399Y164299D01*
X279399Y164301D01*
X279401Y164301D01*
X279401Y164299D01*
X279399Y164299D01*
G37*
%LPD*%
%LPC*%
G36*
X558799Y507199D02*
X558799Y507199D01*
X558799Y507201D01*
X558801Y507201D01*
X558801Y507199D01*
X558799Y507199D01*
G37*
%LPD*%
%LPC*%
G36*
X177799Y164299D02*
X177799Y164299D01*
X177799Y164301D01*
X177801Y164301D01*
X177801Y164299D01*
X177799Y164299D01*
G37*
%LPD*%
%LPC*%
G36*
X685799Y876299D02*
X685799Y876299D01*
X685799Y876301D01*
X685801Y876301D01*
X685801Y876299D01*
X685799Y876299D01*
G37*
%LPD*%
%LPC*%
G36*
X253999Y393699D02*
X253999Y393699D01*
X253999Y393701D01*
X254001Y393701D01*
X254001Y393699D01*
X253999Y393699D01*
G37*
%LPD*%
%LPC*%
G36*
X1036690Y241009D02*
X1036690Y241009D01*
X1036692Y241009D01*
X1036692Y241007D01*
X1036690Y241007D01*
X1036690Y241009D01*
G37*
%LPD*%
D10*
X482600Y876300D03*
D11*
X901700Y443700D03*
X901700Y343700D03*
X419900Y596900D03*
X519900Y596900D03*
X851700Y673100D03*
X951700Y673100D03*
X558800Y407200D03*
X558800Y507200D03*
X1004100Y520700D03*
X1104100Y520700D03*
D10*
X685800Y876300D03*
X63500Y736600D03*
X584200Y876300D03*
X1016000Y876300D03*
X889000Y876300D03*
X215900Y736600D03*
X292100Y736600D03*
X1536700Y520700D03*
X1536700Y444500D03*
X1219200Y482600D03*
X1219200Y558800D03*
X558800Y685800D03*
X635000Y685800D03*
X1016000Y419100D03*
X1092200Y419100D03*
X673100Y596900D03*
X749300Y596900D03*
X1320800Y114300D03*
X1397000Y114300D03*
X1295400Y889000D03*
X1371600Y889000D03*
X1036691Y241008D03*
X1046109Y165392D03*
X1536700Y673100D03*
X1536700Y596900D03*
X1028700Y279400D03*
X1104900Y279400D03*
X558800Y76200D03*
X558800Y152400D03*
X63500Y596900D03*
X774700Y876300D03*
X63500Y482600D03*
X876300Y114300D03*
X800100Y114300D03*
X254000Y393700D03*
X330200Y393700D03*
D11*
X241300Y596100D03*
X241300Y496100D03*
X279400Y64300D03*
X279400Y164300D03*
X177800Y64300D03*
X177800Y164300D03*
D12*
X558800Y76200D02*
X559308Y76200D01*
D13*
X742188Y259080D03*
D12*
X1028700Y279400D02*
X1028700Y280416D01*
D13*
X1162812Y310896D03*
D12*
X1295400Y888492D02*
X1298448Y888492D01*
X1295400Y888492D02*
X1295400Y889000D01*
D13*
X1380744Y806196D03*
D12*
X620776Y370840D02*
X620776Y369824D01*
X483108Y876300D02*
X482600Y876300D01*
X1338072Y114300D02*
X1397000Y114300D01*
X1338072Y114300D02*
X1325880Y126492D01*
X886968Y124968D02*
X876300Y114300D01*
X886968Y124968D02*
X888492Y126492D01*
X621284Y370840D02*
X620776Y370840D01*
D13*
X672084Y320040D03*
D12*
X678180Y316992D02*
X691896Y316992D01*
X697992Y316992D01*
X678180Y316992D02*
X672084Y323088D01*
X672084Y320040D01*
X289560Y65532D02*
X280416Y65532D01*
X279400Y64300D01*
X620268Y367284D02*
X620268Y370332D01*
X620268Y367284D02*
X623316Y364236D01*
X624840Y364236D01*
X669036Y320040D01*
X672084Y320040D01*
X620776Y370840D02*
X620268Y370332D01*
X704088Y310896D02*
X751332Y263652D01*
X704088Y310896D02*
X697992Y310896D01*
X691896Y316992D01*
X751332Y263652D02*
X751332Y257556D01*
X879348Y129540D01*
X882396Y129540D01*
X886968Y124968D01*
X1356360Y641604D02*
X1344168Y653796D01*
D13*
X1356360Y641604D03*
X1344168Y653796D03*
D12*
X1004100Y520700D02*
X1002792Y519684D01*
X559308Y408432D02*
X558800Y407200D01*
X851408Y672084D02*
X851700Y673100D01*
M02*
